<?xml version="1.0" encoding="UTF-8" standalone="no"?>
<!DOCTYPE svg PUBLIC "-//W3C//DTD SVG 1.1//EN"
 "http://www.w3.org/Graphics/SVG/1.1/DTD/svg11.dtd">
<!-- Generated by graphviz version 8.0.1 (0)
 -->
<!-- Title: RenderGraph Pages: 1 -->
<svg width="2748pt" height="538pt"
 viewBox="0.00 0.00 2748.00 538.00" xmlns="http://www.w3.org/2000/svg" xmlns:xlink="http://www.w3.org/1999/xlink">
<g id="graph0" class="graph" transform="scale(1 1) rotate(0) translate(4 534)">
<title>RenderGraph</title>
<polygon fill="white" stroke="none" points="-4,4 -4,-534 2744,-534 2744,4 -4,4"/>
<g id="clust1" class="cluster">
<title>cluster_core_2d</title>
<path fill="#e4e9f5" stroke="#e4e9f5" d="M20,-8C20,-8 1995,-8 1995,-8 2001,-8 2007,-14 2007,-20 2007,-20 2007,-168 2007,-168 2007,-174 2001,-180 1995,-180 1995,-180 20,-180 20,-180 14,-180 8,-174 8,-168 8,-168 8,-20 8,-20 8,-14 14,-8 20,-8"/>
<text text-anchor="middle" x="1007.5" y="-164.8" font-family="Times,serif" font-size="14.00">core_2d</text>
</g>
<g id="clust2" class="cluster">
<title>cluster_core_2d_draw_ui</title>
<path fill="#c4d0ed" stroke="#c4d0ed" d="M41.5,-68C41.5,-68 116.5,-68 116.5,-68 122.5,-68 128.5,-74 128.5,-80 128.5,-80 128.5,-137 128.5,-137 128.5,-143 122.5,-149 116.5,-149 116.5,-149 41.5,-149 41.5,-149 35.5,-149 29.5,-143 29.5,-137 29.5,-137 29.5,-80 29.5,-80 29.5,-74 35.5,-68 41.5,-68"/>
<text text-anchor="middle" x="79" y="-133.8" font-family="Times,serif" font-size="14.00">draw_ui</text>
</g>
<g id="clust3" class="cluster">
<title>cluster_core_3d</title>
<path fill="#e4e9f5" stroke="#e4e9f5" d="M20,-188C20,-188 2720,-188 2720,-188 2726,-188 2732,-194 2732,-200 2732,-200 2732,-468 2732,-468 2732,-474 2726,-480 2720,-480 2720,-480 20,-480 20,-480 14,-480 8,-474 8,-468 8,-468 8,-200 8,-200 8,-194 14,-188 20,-188"/>
<text text-anchor="middle" x="1370" y="-464.8" font-family="Times,serif" font-size="14.00">core_3d</text>
</g>
<g id="clust4" class="cluster">
<title>cluster_core_3d_draw_ui</title>
<path fill="#c4d0ed" stroke="#c4d0ed" d="M41.5,-368C41.5,-368 116.5,-368 116.5,-368 122.5,-368 128.5,-374 128.5,-380 128.5,-380 128.5,-437 128.5,-437 128.5,-443 122.5,-449 116.5,-449 116.5,-449 41.5,-449 41.5,-449 35.5,-449 29.5,-443 29.5,-437 29.5,-437 29.5,-380 29.5,-380 29.5,-374 35.5,-368 41.5,-368"/>
<text text-anchor="middle" x="79" y="-433.8" font-family="Times,serif" font-size="14.00">draw_ui</text>
</g>
<!-- _core_2d_draw_ui__core_2d_draw_uiui_pass -->
<g id="node1" class="node">
<title>_core_2d_draw_ui__core_2d_draw_uiui_pass</title>
<text text-anchor="start" x="55.5" y="-98.8" font-family="Helvetica,sans-Serif" font-size="14.00">ui_pass</text>
<text text-anchor="start" x="51" y="-88" font-family="Helvetica,sans-Serif" font-size="10.00" fill="red">UiPassNode</text>
<path fill="none" stroke="black" d="M56.83,-80C56.83,-80 101.17,-80 101.17,-80 106.83,-80 112.5,-85.67 112.5,-91.33 112.5,-91.33 112.5,-102.67 112.5,-102.67 112.5,-108.33 106.83,-114 101.17,-114 101.17,-114 56.83,-114 56.83,-114 51.17,-114 45.5,-108.33 45.5,-102.67 45.5,-102.67 45.5,-91.33 45.5,-91.33 45.5,-85.67 51.17,-80 56.83,-80"/>
</g>
<!-- _core_2d__core_2dbloom -->
<g id="node2" class="node">
<title>_core_2d__core_2dbloom</title>
<text text-anchor="start" x="467" y="-48.8" font-family="Helvetica,sans-Serif" font-size="14.00">bloom</text>
<text text-anchor="start" x="459.5" y="-38" font-family="Helvetica,sans-Serif" font-size="10.00" fill="red">BloomNode</text>
<path fill="none" stroke="black" d="M465.33,-30C465.33,-30 505.67,-30 505.67,-30 511.33,-30 517,-35.67 517,-41.33 517,-41.33 517,-52.67 517,-52.67 517,-58.33 511.33,-64 505.67,-64 505.67,-64 465.33,-64 465.33,-64 459.67,-64 454,-58.33 454,-52.67 454,-52.67 454,-41.33 454,-41.33 454,-35.67 459.67,-30 465.33,-30"/>
</g>
<!-- _core_2d__core_2dtonemapping -->
<g id="node7" class="node">
<title>_core_2d__core_2dtonemapping</title>
<text text-anchor="start" x="675" y="-58.8" font-family="Helvetica,sans-Serif" font-size="14.00">tonemapping</text>
<text text-anchor="start" x="673.5" y="-48" font-family="Helvetica,sans-Serif" font-size="10.00" fill="red">TonemappingNode</text>
<path fill="none" stroke="black" d="M679.33,-40C679.33,-40 749.67,-40 749.67,-40 755.33,-40 761,-45.67 761,-51.33 761,-51.33 761,-62.67 761,-62.67 761,-68.33 755.33,-74 749.67,-74 749.67,-74 679.33,-74 679.33,-74 673.67,-74 668,-68.33 668,-62.67 668,-62.67 668,-51.33 668,-51.33 668,-45.67 673.67,-40 679.33,-40"/>
</g>
<!-- _core_2d__core_2dbloom&#45;&gt;_core_2d__core_2dtonemapping -->
<g id="edge7" class="edge">
<title>_core_2d__core_2dbloom:e&#45;&gt;_core_2d__core_2dtonemapping:w</title>
<path fill="none" stroke="black" d="M515.5,-47C580.34,-47 598.92,-55.94 658.69,-56.91"/>
<polygon fill="black" stroke="black" points="658.47,-60.42 668.5,-57 658.53,-53.42 658.47,-60.42"/>
</g>
<!-- _core_2d__core_2dcontrast_adaptive_sharpening -->
<g id="node3" class="node">
<title>_core_2d__core_2dcontrast_adaptive_sharpening</title>
<text text-anchor="start" x="1079.5" y="-38.8" font-family="Helvetica,sans-Serif" font-size="14.00">contrast_adaptive_sharpening</text>
<text text-anchor="start" x="1148" y="-28" font-family="Helvetica,sans-Serif" font-size="10.00" fill="red">CASNode</text>
<path fill="none" stroke="black" d="M1085.33,-20C1085.33,-20 1254.67,-20 1254.67,-20 1260.33,-20 1266,-25.67 1266,-31.33 1266,-31.33 1266,-42.67 1266,-42.67 1266,-48.33 1260.33,-54 1254.67,-54 1254.67,-54 1085.33,-54 1085.33,-54 1079.67,-54 1074,-48.33 1074,-42.67 1074,-42.67 1074,-31.33 1074,-31.33 1074,-25.67 1079.67,-20 1085.33,-20"/>
</g>
<!-- _core_2d__core_2dend_main_pass_post_processing -->
<g id="node9" class="node">
<title>_core_2d__core_2dend_main_pass_post_processing</title>
<text text-anchor="start" x="1359.5" y="-78.8" font-family="Helvetica,sans-Serif" font-size="14.00">end_main_pass_post_processing</text>
<text text-anchor="start" x="1435" y="-68" font-family="Helvetica,sans-Serif" font-size="10.00" fill="red">EmptyNode</text>
<path fill="none" stroke="black" d="M1365.33,-60C1365.33,-60 1555.67,-60 1555.67,-60 1561.33,-60 1567,-65.67 1567,-71.33 1567,-71.33 1567,-82.67 1567,-82.67 1567,-88.33 1561.33,-94 1555.67,-94 1555.67,-94 1365.33,-94 1365.33,-94 1359.67,-94 1354,-88.33 1354,-82.67 1354,-82.67 1354,-71.33 1354,-71.33 1354,-65.67 1359.67,-60 1365.33,-60"/>
</g>
<!-- _core_2d__core_2dcontrast_adaptive_sharpening&#45;&gt;_core_2d__core_2dend_main_pass_post_processing -->
<g id="edge12" class="edge">
<title>_core_2d__core_2dcontrast_adaptive_sharpening:e&#45;&gt;_core_2d__core_2dend_main_pass_post_processing:w</title>
<path fill="none" stroke="black" d="M1264,-37C1304.57,-37 1310.34,-70.42 1344.93,-76.16"/>
<polygon fill="black" stroke="black" points="1344.26,-79.7 1354.5,-77 1344.81,-72.72 1344.26,-79.7"/>
</g>
<!-- _core_2d__core_2dmain_pass -->
<g id="node4" class="node">
<title>_core_2d__core_2dmain_pass</title>
<text text-anchor="start" x="244.5" y="-68.8" font-family="Helvetica,sans-Serif" font-size="14.00">main_pass</text>
<text text-anchor="start" x="238.5" y="-58" font-family="Helvetica,sans-Serif" font-size="10.00" fill="red">MainPass2dNode</text>
<path fill="none" stroke="black" d="M244.33,-50C244.33,-50 310.67,-50 310.67,-50 316.33,-50 322,-55.67 322,-61.33 322,-61.33 322,-72.67 322,-72.67 322,-78.33 316.33,-84 310.67,-84 310.67,-84 244.33,-84 244.33,-84 238.67,-84 233,-78.33 233,-72.67 233,-72.67 233,-61.33 233,-61.33 233,-55.67 238.67,-50 244.33,-50"/>
</g>
<!-- _core_2d__core_2dmain_pass&#45;&gt;_core_2d__core_2dbloom -->
<g id="edge1" class="edge">
<title>_core_2d__core_2dmain_pass:e&#45;&gt;_core_2d__core_2dbloom:w</title>
<path fill="none" stroke="black" d="M320.5,-67C377.36,-67 392.95,-49.42 444.65,-47.22"/>
<polygon fill="black" stroke="black" points="444.57,-50.71 454.5,-47 444.43,-43.71 444.57,-50.71"/>
</g>
<!-- _core_2d__core_2dmain_pass&#45;&gt;_core_2d__core_2dtonemapping -->
<g id="edge6" class="edge">
<title>_core_2d__core_2dmain_pass:e&#45;&gt;_core_2d__core_2dtonemapping:w</title>
<path fill="none" stroke="black" d="M320.5,-67C361.85,-67 371.71,-74.77 413,-77 477.35,-80.47 493.81,-82.71 558,-77 604.33,-72.88 617.25,-59.3 658.65,-57.26"/>
<polygon fill="black" stroke="black" points="658.59,-60.74 668.5,-57 658.42,-53.74 658.59,-60.74"/>
</g>
<!-- _core_2d__core_2dui_pass -->
<g id="node10" class="node">
<title>_core_2d__core_2dui_pass</title>
<text text-anchor="start" x="1688" y="-118.8" font-family="Helvetica,sans-Serif" font-size="14.00">ui_pass</text>
<text text-anchor="start" x="1660.5" y="-108" font-family="Helvetica,sans-Serif" font-size="10.00" fill="red">RunGraphOnViewNode</text>
<path fill="none" stroke="black" d="M1666.33,-100C1666.33,-100 1756.67,-100 1756.67,-100 1762.33,-100 1768,-105.67 1768,-111.33 1768,-111.33 1768,-122.67 1768,-122.67 1768,-128.33 1762.33,-134 1756.67,-134 1756.67,-134 1666.33,-134 1666.33,-134 1660.67,-134 1655,-128.33 1655,-122.67 1655,-122.67 1655,-111.33 1655,-111.33 1655,-105.67 1660.67,-100 1666.33,-100"/>
</g>
<!-- _core_2d__core_2dmain_pass&#45;&gt;_core_2d__core_2dui_pass -->
<g id="edge13" class="edge">
<title>_core_2d__core_2dmain_pass:e&#45;&gt;_core_2d__core_2dui_pass:w</title>
<path fill="none" stroke="black" d="M320.5,-67C362.22,-67 371.7,-77.1 413,-83 546.06,-102.02 579.09,-117 713.5,-117 713.5,-117 713.5,-117 1171,-117 1383.09,-117 1438.83,-117 1645.58,-117"/>
<polygon fill="black" stroke="black" points="1645.5,-120.5 1655.5,-117 1645.5,-113.5 1645.5,-120.5"/>
</g>
<!-- _core_2d__core_2dfxaa -->
<g id="node5" class="node">
<title>_core_2d__core_2dfxaa</title>
<text text-anchor="start" x="919.5" y="-58.8" font-family="Helvetica,sans-Serif" font-size="14.00">fxaa</text>
<text text-anchor="start" x="910" y="-48" font-family="Helvetica,sans-Serif" font-size="10.00" fill="red">FxaaNode</text>
<path fill="none" stroke="black" d="M915.83,-40C915.83,-40 949.17,-40 949.17,-40 954.83,-40 960.5,-45.67 960.5,-51.33 960.5,-51.33 960.5,-62.67 960.5,-62.67 960.5,-68.33 954.83,-74 949.17,-74 949.17,-74 915.83,-74 915.83,-74 910.17,-74 904.5,-68.33 904.5,-62.67 904.5,-62.67 904.5,-51.33 904.5,-51.33 904.5,-45.67 910.17,-40 915.83,-40"/>
</g>
<!-- _core_2d__core_2dfxaa&#45;&gt;_core_2d__core_2dcontrast_adaptive_sharpening -->
<g id="edge3" class="edge">
<title>_core_2d__core_2dfxaa:e&#45;&gt;_core_2d__core_2dcontrast_adaptive_sharpening:w</title>
<path fill="none" stroke="black" d="M958.5,-57C1007.65,-57 1021.14,-39.79 1065.13,-37.3"/>
<polygon fill="black" stroke="black" points="1065.1,-40.77 1075,-37 1064.91,-33.78 1065.1,-40.77"/>
</g>
<!-- _core_2d__core_2dfxaa&#45;&gt;_core_2d__core_2dend_main_pass_post_processing -->
<g id="edge11" class="edge">
<title>_core_2d__core_2dfxaa:e&#45;&gt;_core_2d__core_2dend_main_pass_post_processing:w</title>
<path fill="none" stroke="black" d="M958.5,-57C1006.48,-57 1018.11,-63.95 1066,-67 1190.84,-74.96 1224.85,-76.89 1344.79,-77"/>
<polygon fill="black" stroke="black" points="1344.5,-80.5 1354.5,-77 1344.5,-73.5 1344.5,-80.5"/>
</g>
<!-- _core_2d__core_2dmsaa_writeback -->
<g id="node6" class="node">
<title>_core_2d__core_2dmsaa_writeback</title>
<text text-anchor="start" x="29.5" y="-38.8" font-family="Helvetica,sans-Serif" font-size="14.00">msaa_writeback</text>
<text text-anchor="start" x="33.5" y="-28" font-family="Helvetica,sans-Serif" font-size="10.00" fill="red">MsaaWritebackNode</text>
<path fill="none" stroke="black" d="M35.33,-20C35.33,-20 122.67,-20 122.67,-20 128.33,-20 134,-25.67 134,-31.33 134,-31.33 134,-42.67 134,-42.67 134,-48.33 128.33,-54 122.67,-54 122.67,-54 35.33,-54 35.33,-54 29.67,-54 24,-48.33 24,-42.67 24,-42.67 24,-31.33 24,-31.33 24,-25.67 29.67,-20 35.33,-20"/>
</g>
<!-- _core_2d__core_2dmsaa_writeback&#45;&gt;_core_2d__core_2dmain_pass -->
<g id="edge4" class="edge">
<title>_core_2d__core_2dmsaa_writeback:e&#45;&gt;_core_2d__core_2dmain_pass:w</title>
<path fill="none" stroke="black" d="M132,-37C175.57,-37 185.52,-62.28 223.58,-66.43"/>
<polygon fill="black" stroke="black" points="223.33,-69.97 233.5,-67 223.7,-62.98 223.33,-69.97"/>
</g>
<!-- _core_2d__core_2dtonemapping&#45;&gt;_core_2d__core_2dcontrast_adaptive_sharpening -->
<g id="edge2" class="edge">
<title>_core_2d__core_2dtonemapping:e&#45;&gt;_core_2d__core_2dcontrast_adaptive_sharpening:w</title>
<path fill="none" stroke="black" d="M759.5,-57C810.82,-57 820.12,-33.72 871,-27 925.2,-19.84 939.43,-23.69 994,-27 1026.78,-28.99 1037.15,-35.42 1065.25,-36.76"/>
<polygon fill="black" stroke="black" points="1064.92,-40.27 1075,-37 1065.08,-33.27 1064.92,-40.27"/>
</g>
<!-- _core_2d__core_2dtonemapping&#45;&gt;_core_2d__core_2dfxaa -->
<g id="edge5" class="edge">
<title>_core_2d__core_2dtonemapping:e&#45;&gt;_core_2d__core_2dfxaa:w</title>
<path fill="none" stroke="black" d="M759.5,-57C821.01,-57 839.08,-57 895.5,-57"/>
<polygon fill="black" stroke="black" points="895.5,-60.5 905.5,-57 895.5,-53.5 895.5,-60.5"/>
</g>
<!-- _core_2d__core_2dtonemapping&#45;&gt;_core_2d__core_2dend_main_pass_post_processing -->
<g id="edge10" class="edge">
<title>_core_2d__core_2dtonemapping:e&#45;&gt;_core_2d__core_2dend_main_pass_post_processing:w</title>
<path fill="none" stroke="black" d="M759.5,-57C810.82,-57 820.12,-80.28 871,-87 925.2,-94.16 939.34,-87.76 994,-87 1151.1,-84.83 1192.91,-77.35 1344.85,-77.01"/>
<polygon fill="black" stroke="black" points="1344.5,-80.51 1354.5,-77 1344.5,-73.51 1344.5,-80.51"/>
</g>
<!-- _core_2d__core_2dupscaling -->
<g id="node8" class="node">
<title>_core_2d__core_2dupscaling</title>
<text text-anchor="start" x="1923" y="-98.8" font-family="Helvetica,sans-Serif" font-size="14.00">upscaling</text>
<text text-anchor="start" x="1918.5" y="-88" font-family="Helvetica,sans-Serif" font-size="10.00" fill="red">UpscalingNode</text>
<path fill="none" stroke="black" d="M1924.33,-80C1924.33,-80 1979.67,-80 1979.67,-80 1985.33,-80 1991,-85.67 1991,-91.33 1991,-91.33 1991,-102.67 1991,-102.67 1991,-108.33 1985.33,-114 1979.67,-114 1979.67,-114 1924.33,-114 1924.33,-114 1918.67,-114 1913,-108.33 1913,-102.67 1913,-102.67 1913,-91.33 1913,-91.33 1913,-85.67 1918.67,-80 1924.33,-80"/>
</g>
<!-- _core_2d__core_2dend_main_pass_post_processing&#45;&gt;_core_2d__core_2dupscaling -->
<g id="edge8" class="edge">
<title>_core_2d__core_2dend_main_pass_post_processing:e&#45;&gt;_core_2d__core_2dupscaling:w</title>
<path fill="none" stroke="black" d="M1565.5,-77C1659.16,-77 1682.51,-81.42 1776,-87 1834.08,-90.47 1851.05,-96.25 1904.24,-96.93"/>
<polygon fill="black" stroke="black" points="1903.98,-100.44 1914,-97 1904.02,-93.44 1903.98,-100.44"/>
</g>
<!-- _core_2d__core_2dend_main_pass_post_processing&#45;&gt;_core_2d__core_2dui_pass -->
<g id="edge14" class="edge">
<title>_core_2d__core_2dend_main_pass_post_processing:e&#45;&gt;_core_2d__core_2dui_pass:w</title>
<path fill="none" stroke="black" d="M1565.5,-77C1605.71,-77 1611.51,-110.14 1645.54,-116.09"/>
<polygon fill="black" stroke="black" points="1645.24,-119.66 1655.5,-117 1645.82,-112.68 1645.24,-119.66"/>
</g>
<!-- _core_2d__core_2dui_pass&#45;&gt;_core_2d__core_2dupscaling -->
<g id="edge9" class="edge">
<title>_core_2d__core_2dui_pass:e&#45;&gt;_core_2d__core_2dupscaling:w</title>
<path fill="none" stroke="black" d="M1766.5,-117C1829.32,-117 1846.51,-99.2 1904.16,-97.19"/>
<polygon fill="black" stroke="black" points="1904.06,-100.67 1914,-97 1903.94,-93.67 1904.06,-100.67"/>
</g>
<!-- _core_3d_draw_ui__core_3d_draw_uiui_pass -->
<g id="node11" class="node">
<title>_core_3d_draw_ui__core_3d_draw_uiui_pass</title>
<text text-anchor="start" x="55.5" y="-398.8" font-family="Helvetica,sans-Serif" font-size="14.00">ui_pass</text>
<text text-anchor="start" x="51" y="-388" font-family="Helvetica,sans-Serif" font-size="10.00" fill="red">UiPassNode</text>
<path fill="none" stroke="black" d="M56.83,-380C56.83,-380 101.17,-380 101.17,-380 106.83,-380 112.5,-385.67 112.5,-391.33 112.5,-391.33 112.5,-402.67 112.5,-402.67 112.5,-408.33 106.83,-414 101.17,-414 101.17,-414 56.83,-414 56.83,-414 51.17,-414 45.5,-408.33 45.5,-402.67 45.5,-402.67 45.5,-391.33 45.5,-391.33 45.5,-385.67 51.17,-380 56.83,-380"/>
</g>
<!-- _core_3d__core_3dbloom -->
<g id="node12" class="node">
<title>_core_3d__core_3dbloom</title>
<text text-anchor="start" x="1151.5" y="-238.8" font-family="Helvetica,sans-Serif" font-size="14.00">bloom</text>
<text text-anchor="start" x="1144" y="-228" font-family="Helvetica,sans-Serif" font-size="10.00" fill="red">BloomNode</text>
<path fill="none" stroke="black" d="M1149.83,-220C1149.83,-220 1190.17,-220 1190.17,-220 1195.83,-220 1201.5,-225.67 1201.5,-231.33 1201.5,-231.33 1201.5,-242.67 1201.5,-242.67 1201.5,-248.33 1195.83,-254 1190.17,-254 1190.17,-254 1149.83,-254 1149.83,-254 1144.17,-254 1138.5,-248.33 1138.5,-242.67 1138.5,-242.67 1138.5,-231.33 1138.5,-231.33 1138.5,-225.67 1144.17,-220 1149.83,-220"/>
</g>
<!-- _core_3d__core_3dtonemapping -->
<g id="node19" class="node">
<title>_core_3d__core_3dtonemapping</title>
<text text-anchor="start" x="1421" y="-238.8" font-family="Helvetica,sans-Serif" font-size="14.00">tonemapping</text>
<text text-anchor="start" x="1419.5" y="-228" font-family="Helvetica,sans-Serif" font-size="10.00" fill="red">TonemappingNode</text>
<path fill="none" stroke="black" d="M1425.33,-220C1425.33,-220 1495.67,-220 1495.67,-220 1501.33,-220 1507,-225.67 1507,-231.33 1507,-231.33 1507,-242.67 1507,-242.67 1507,-248.33 1501.33,-254 1495.67,-254 1495.67,-254 1425.33,-254 1425.33,-254 1419.67,-254 1414,-248.33 1414,-242.67 1414,-242.67 1414,-231.33 1414,-231.33 1414,-225.67 1419.67,-220 1425.33,-220"/>
</g>
<!-- _core_3d__core_3dbloom&#45;&gt;_core_3d__core_3dtonemapping -->
<g id="edge22" class="edge">
<title>_core_3d__core_3dbloom:e&#45;&gt;_core_3d__core_3dtonemapping:w</title>
<path fill="none" stroke="black" d="M1200,-237C1292.04,-237 1317.74,-237 1404.6,-237"/>
<polygon fill="black" stroke="black" points="1404.5,-240.5 1414.5,-237 1404.5,-233.5 1404.5,-240.5"/>
</g>
<!-- _core_3d__core_3dcontrast_adaptive_sharpening -->
<g id="node13" class="node">
<title>_core_3d__core_3dcontrast_adaptive_sharpening</title>
<text text-anchor="start" x="1861.5" y="-218.8" font-family="Helvetica,sans-Serif" font-size="14.00">contrast_adaptive_sharpening</text>
<text text-anchor="start" x="1930" y="-208" font-family="Helvetica,sans-Serif" font-size="10.00" fill="red">CASNode</text>
<path fill="none" stroke="black" d="M1867.33,-200C1867.33,-200 2036.67,-200 2036.67,-200 2042.33,-200 2048,-205.67 2048,-211.33 2048,-211.33 2048,-222.67 2048,-222.67 2048,-228.33 2042.33,-234 2036.67,-234 2036.67,-234 1867.33,-234 1867.33,-234 1861.67,-234 1856,-228.33 1856,-222.67 1856,-222.67 1856,-211.33 1856,-211.33 1856,-205.67 1861.67,-200 1867.33,-200"/>
</g>
<!-- _core_3d__core_3dend_main_pass_post_processing -->
<g id="node23" class="node">
<title>_core_3d__core_3dend_main_pass_post_processing</title>
<text text-anchor="start" x="2141.5" y="-258.8" font-family="Helvetica,sans-Serif" font-size="14.00">end_main_pass_post_processing</text>
<text text-anchor="start" x="2217" y="-248" font-family="Helvetica,sans-Serif" font-size="10.00" fill="red">EmptyNode</text>
<path fill="none" stroke="black" d="M2147.33,-240C2147.33,-240 2337.67,-240 2337.67,-240 2343.33,-240 2349,-245.67 2349,-251.33 2349,-251.33 2349,-262.67 2349,-262.67 2349,-268.33 2343.33,-274 2337.67,-274 2337.67,-274 2147.33,-274 2147.33,-274 2141.67,-274 2136,-268.33 2136,-262.67 2136,-262.67 2136,-251.33 2136,-251.33 2136,-245.67 2141.67,-240 2147.33,-240"/>
</g>
<!-- _core_3d__core_3dcontrast_adaptive_sharpening&#45;&gt;_core_3d__core_3dend_main_pass_post_processing -->
<g id="edge28" class="edge">
<title>_core_3d__core_3dcontrast_adaptive_sharpening:e&#45;&gt;_core_3d__core_3dend_main_pass_post_processing:w</title>
<path fill="none" stroke="black" d="M2046,-217C2086.57,-217 2092.34,-250.42 2126.93,-256.16"/>
<polygon fill="black" stroke="black" points="2126.26,-259.7 2136.5,-257 2126.81,-252.72 2126.26,-259.7"/>
</g>
<!-- _core_3d__core_3dmain_opaque_pass -->
<g id="node14" class="node">
<title>_core_3d__core_3dmain_opaque_pass</title>
<text text-anchor="start" x="426.5" y="-278.8" font-family="Helvetica,sans-Serif" font-size="14.00">main_opaque_pass</text>
<text text-anchor="start" x="429.5" y="-268" font-family="Helvetica,sans-Serif" font-size="10.00" fill="red">MainOpaquePass3dNode</text>
<path fill="none" stroke="black" d="M432.33,-260C432.33,-260 538.67,-260 538.67,-260 544.33,-260 550,-265.67 550,-271.33 550,-271.33 550,-282.67 550,-282.67 550,-288.33 544.33,-294 538.67,-294 538.67,-294 432.33,-294 432.33,-294 426.67,-294 421,-288.33 421,-282.67 421,-282.67 421,-271.33 421,-271.33 421,-265.67 426.67,-260 432.33,-260"/>
</g>
<!-- _core_3d__core_3dmain_transparent_pass -->
<g id="node15" class="node">
<title>_core_3d__core_3dmain_transparent_pass</title>
<text text-anchor="start" x="643.5" y="-278.8" font-family="Helvetica,sans-Serif" font-size="14.00">main_transparent_pass</text>
<text text-anchor="start" x="649.5" y="-268" font-family="Helvetica,sans-Serif" font-size="10.00" fill="red">MainTransparentPass3dNode</text>
<path fill="none" stroke="black" d="M649.33,-260C649.33,-260 779.67,-260 779.67,-260 785.33,-260 791,-265.67 791,-271.33 791,-271.33 791,-282.67 791,-282.67 791,-288.33 785.33,-294 779.67,-294 779.67,-294 649.33,-294 649.33,-294 643.67,-294 638,-288.33 638,-282.67 638,-282.67 638,-271.33 638,-271.33 638,-265.67 643.67,-260 649.33,-260"/>
</g>
<!-- _core_3d__core_3dmain_opaque_pass&#45;&gt;_core_3d__core_3dmain_transparent_pass -->
<g id="edge19" class="edge">
<title>_core_3d__core_3dmain_opaque_pass:e&#45;&gt;_core_3d__core_3dmain_transparent_pass:w</title>
<path fill="none" stroke="black" d="M548.5,-277C585.15,-277 596.89,-277 628.87,-277"/>
<polygon fill="black" stroke="black" points="628.5,-280.5 638.5,-277 628.5,-273.5 628.5,-280.5"/>
</g>
<!-- _core_3d__core_3dend_main_pass -->
<g id="node22" class="node">
<title>_core_3d__core_3dend_main_pass</title>
<text text-anchor="start" x="884.5" y="-278.8" font-family="Helvetica,sans-Serif" font-size="14.00">end_main_pass</text>
<text text-anchor="start" x="907" y="-268" font-family="Helvetica,sans-Serif" font-size="10.00" fill="red">EmptyNode</text>
<path fill="none" stroke="black" d="M890.33,-260C890.33,-260 974.67,-260 974.67,-260 980.33,-260 986,-265.67 986,-271.33 986,-271.33 986,-282.67 986,-282.67 986,-288.33 980.33,-294 974.67,-294 974.67,-294 890.33,-294 890.33,-294 884.67,-294 879,-288.33 879,-282.67 879,-282.67 879,-271.33 879,-271.33 879,-265.67 884.67,-260 890.33,-260"/>
</g>
<!-- _core_3d__core_3dmain_transparent_pass&#45;&gt;_core_3d__core_3dend_main_pass -->
<g id="edge25" class="edge">
<title>_core_3d__core_3dmain_transparent_pass:e&#45;&gt;_core_3d__core_3dend_main_pass:w</title>
<path fill="none" stroke="black" d="M789.5,-277C826.15,-277 837.89,-277 869.87,-277"/>
<polygon fill="black" stroke="black" points="869.5,-280.5 879.5,-277 869.5,-273.5 869.5,-280.5"/>
</g>
<!-- _core_3d__core_3dfxaa -->
<g id="node16" class="node">
<title>_core_3d__core_3dfxaa</title>
<text text-anchor="start" x="1698.5" y="-238.8" font-family="Helvetica,sans-Serif" font-size="14.00">fxaa</text>
<text text-anchor="start" x="1689" y="-228" font-family="Helvetica,sans-Serif" font-size="10.00" fill="red">FxaaNode</text>
<path fill="none" stroke="black" d="M1694.83,-220C1694.83,-220 1728.17,-220 1728.17,-220 1733.83,-220 1739.5,-225.67 1739.5,-231.33 1739.5,-231.33 1739.5,-242.67 1739.5,-242.67 1739.5,-248.33 1733.83,-254 1728.17,-254 1728.17,-254 1694.83,-254 1694.83,-254 1689.17,-254 1683.5,-248.33 1683.5,-242.67 1683.5,-242.67 1683.5,-231.33 1683.5,-231.33 1683.5,-225.67 1689.17,-220 1694.83,-220"/>
</g>
<!-- _core_3d__core_3dfxaa&#45;&gt;_core_3d__core_3dcontrast_adaptive_sharpening -->
<g id="edge17" class="edge">
<title>_core_3d__core_3dfxaa:e&#45;&gt;_core_3d__core_3dcontrast_adaptive_sharpening:w</title>
<path fill="none" stroke="black" d="M1737.5,-237C1787.97,-237 1801.83,-219.71 1847.15,-217.28"/>
<polygon fill="black" stroke="black" points="1847.09,-220.76 1857,-217 1846.91,-213.76 1847.09,-220.76"/>
</g>
<!-- _core_3d__core_3dfxaa&#45;&gt;_core_3d__core_3dend_main_pass_post_processing -->
<g id="edge27" class="edge">
<title>_core_3d__core_3dfxaa:e&#45;&gt;_core_3d__core_3dend_main_pass_post_processing:w</title>
<path fill="none" stroke="black" d="M1737.5,-237C1786.81,-237 1798.78,-243.93 1848,-247 1972.85,-254.8 2006.85,-256.88 2126.79,-257"/>
<polygon fill="black" stroke="black" points="2126.5,-260.5 2136.5,-257 2126.5,-253.5 2126.5,-260.5"/>
</g>
<!-- _core_3d__core_3dmsaa_writeback -->
<g id="node17" class="node">
<title>_core_3d__core_3dmsaa_writeback</title>
<text text-anchor="start" x="29.5" y="-338.8" font-family="Helvetica,sans-Serif" font-size="14.00">msaa_writeback</text>
<text text-anchor="start" x="33.5" y="-328" font-family="Helvetica,sans-Serif" font-size="10.00" fill="red">MsaaWritebackNode</text>
<path fill="none" stroke="black" d="M35.33,-320C35.33,-320 122.67,-320 122.67,-320 128.33,-320 134,-325.67 134,-331.33 134,-331.33 134,-342.67 134,-342.67 134,-348.33 128.33,-354 122.67,-354 122.67,-354 35.33,-354 35.33,-354 29.67,-354 24,-348.33 24,-342.67 24,-342.67 24,-331.33 24,-331.33 24,-325.67 29.67,-320 35.33,-320"/>
</g>
<!-- _core_3d__core_3dstart_main_pass -->
<g id="node24" class="node">
<title>_core_3d__core_3dstart_main_pass</title>
<text text-anchor="start" x="227.5" y="-278.8" font-family="Helvetica,sans-Serif" font-size="14.00">start_main_pass</text>
<text text-anchor="start" x="252" y="-268" font-family="Helvetica,sans-Serif" font-size="10.00" fill="red">EmptyNode</text>
<path fill="none" stroke="black" d="M233.33,-260C233.33,-260 321.67,-260 321.67,-260 327.33,-260 333,-265.67 333,-271.33 333,-271.33 333,-282.67 333,-282.67 333,-288.33 327.33,-294 321.67,-294 321.67,-294 233.33,-294 233.33,-294 227.67,-294 222,-288.33 222,-282.67 222,-282.67 222,-271.33 222,-271.33 222,-265.67 227.67,-260 233.33,-260"/>
</g>
<!-- _core_3d__core_3dmsaa_writeback&#45;&gt;_core_3d__core_3dstart_main_pass -->
<g id="edge30" class="edge">
<title>_core_3d__core_3dmsaa_writeback:e&#45;&gt;_core_3d__core_3dstart_main_pass:w</title>
<path fill="none" stroke="black" d="M132,-337C176.64,-337 175.45,-286.44 212.57,-278.15"/>
<polygon fill="black" stroke="black" points="212.92,-281.52 222.5,-277 212.19,-274.56 212.92,-281.52"/>
</g>
<!-- _core_3d__core_3dprepass -->
<g id="node18" class="node">
<title>_core_3d__core_3dprepass</title>
<text text-anchor="start" x="54.5" y="-278.8" font-family="Helvetica,sans-Serif" font-size="14.00">prepass</text>
<text text-anchor="start" x="49" y="-268" font-family="Helvetica,sans-Serif" font-size="10.00" fill="red">PrepassNode</text>
<path fill="none" stroke="black" d="M54.83,-260C54.83,-260 103.17,-260 103.17,-260 108.83,-260 114.5,-265.67 114.5,-271.33 114.5,-271.33 114.5,-282.67 114.5,-282.67 114.5,-288.33 108.83,-294 103.17,-294 103.17,-294 54.83,-294 54.83,-294 49.17,-294 43.5,-288.33 43.5,-282.67 43.5,-282.67 43.5,-271.33 43.5,-271.33 43.5,-265.67 49.17,-260 54.83,-260"/>
</g>
<!-- _core_3d__core_3dprepass&#45;&gt;_core_3d__core_3dstart_main_pass -->
<g id="edge29" class="edge">
<title>_core_3d__core_3dprepass:e&#45;&gt;_core_3d__core_3dstart_main_pass:w</title>
<path fill="none" stroke="black" d="M113,-277C158.27,-277 172.25,-277 212.63,-277"/>
<polygon fill="black" stroke="black" points="212.5,-280.5 222.5,-277 212.5,-273.5 212.5,-280.5"/>
</g>
<!-- _core_3d__core_3dtonemapping&#45;&gt;_core_3d__core_3dcontrast_adaptive_sharpening -->
<g id="edge16" class="edge">
<title>_core_3d__core_3dtonemapping:e&#45;&gt;_core_3d__core_3dcontrast_adaptive_sharpening:w</title>
<path fill="none" stroke="black" d="M1505.5,-237C1569.79,-237 1583.06,-213.7 1647,-207 1704.02,-201.02 1718.77,-203.52 1776,-207 1808.78,-208.99 1819.15,-215.42 1847.25,-216.76"/>
<polygon fill="black" stroke="black" points="1846.92,-220.27 1857,-217 1847.08,-213.27 1846.92,-220.27"/>
</g>
<!-- _core_3d__core_3dtonemapping&#45;&gt;_core_3d__core_3dfxaa -->
<g id="edge20" class="edge">
<title>_core_3d__core_3dtonemapping:e&#45;&gt;_core_3d__core_3dfxaa:w</title>
<path fill="none" stroke="black" d="M1505.5,-237C1581.75,-237 1603.49,-237 1674.63,-237"/>
<polygon fill="black" stroke="black" points="1674.5,-240.5 1684.5,-237 1674.5,-233.5 1674.5,-240.5"/>
</g>
<!-- _core_3d__core_3dtonemapping&#45;&gt;_core_3d__core_3dend_main_pass_post_processing -->
<g id="edge26" class="edge">
<title>_core_3d__core_3dtonemapping:e&#45;&gt;_core_3d__core_3dend_main_pass_post_processing:w</title>
<path fill="none" stroke="black" d="M1505.5,-237C1569.79,-237 1583.06,-260.3 1647,-267 1704.02,-272.98 1718.67,-267.79 1776,-267 1933.1,-264.83 1974.91,-257.35 2126.85,-257.01"/>
<polygon fill="black" stroke="black" points="2126.5,-260.51 2136.5,-257 2126.5,-253.51 2126.5,-260.51"/>
</g>
<!-- _core_3d__core_3dupscaling -->
<g id="node20" class="node">
<title>_core_3d__core_3dupscaling</title>
<text text-anchor="start" x="2648" y="-278.8" font-family="Helvetica,sans-Serif" font-size="14.00">upscaling</text>
<text text-anchor="start" x="2643.5" y="-268" font-family="Helvetica,sans-Serif" font-size="10.00" fill="red">UpscalingNode</text>
<path fill="none" stroke="black" d="M2649.33,-260C2649.33,-260 2704.67,-260 2704.67,-260 2710.33,-260 2716,-265.67 2716,-271.33 2716,-271.33 2716,-282.67 2716,-282.67 2716,-288.33 2710.33,-294 2704.67,-294 2704.67,-294 2649.33,-294 2649.33,-294 2643.67,-294 2638,-288.33 2638,-282.67 2638,-282.67 2638,-271.33 2638,-271.33 2638,-265.67 2643.67,-260 2649.33,-260"/>
</g>
<!-- _core_3d__core_3dshadow_pass -->
<g id="node21" class="node">
<title>_core_3d__core_3dshadow_pass</title>
<text text-anchor="start" x="37.5" y="-218.8" font-family="Helvetica,sans-Serif" font-size="14.00">shadow_pass</text>
<text text-anchor="start" x="38" y="-208" font-family="Helvetica,sans-Serif" font-size="10.00" fill="red">ShadowPassNode</text>
<path fill="none" stroke="black" d="M43.33,-200C43.33,-200 114.67,-200 114.67,-200 120.33,-200 126,-205.67 126,-211.33 126,-211.33 126,-222.67 126,-222.67 126,-228.33 120.33,-234 114.67,-234 114.67,-234 43.33,-234 43.33,-234 37.67,-234 32,-228.33 32,-222.67 32,-222.67 32,-211.33 32,-211.33 32,-205.67 37.67,-200 43.33,-200"/>
</g>
<!-- _core_3d__core_3dshadow_pass&#45;&gt;_core_3d__core_3dstart_main_pass -->
<g id="edge31" class="edge">
<title>_core_3d__core_3dshadow_pass:e&#45;&gt;_core_3d__core_3dstart_main_pass:w</title>
<path fill="none" stroke="black" d="M124,-217C171.71,-217 172.11,-268.21 212.62,-276.01"/>
<polygon fill="black" stroke="black" points="212.22,-279.58 222.5,-277 212.86,-272.61 212.22,-279.58"/>
</g>
<!-- _core_3d__core_3dend_main_pass&#45;&gt;_core_3d__core_3dbloom -->
<g id="edge15" class="edge">
<title>_core_3d__core_3dend_main_pass:e&#45;&gt;_core_3d__core_3dbloom:w</title>
<path fill="none" stroke="black" d="M984.5,-277C1052.1,-277 1067.13,-241.11 1129.18,-237.32"/>
<polygon fill="black" stroke="black" points="1129.11,-240.8 1139,-237 1128.9,-233.8 1129.11,-240.8"/>
</g>
<!-- _core_3d__core_3dend_main_pass&#45;&gt;_core_3d__core_3dtonemapping -->
<g id="edge21" class="edge">
<title>_core_3d__core_3dend_main_pass:e&#45;&gt;_core_3d__core_3dtonemapping:w</title>
<path fill="none" stroke="black" d="M984.5,-277C1113.24,-277 1146.21,-282.63 1274,-267 1334.07,-259.65 1349.47,-239.55 1404.7,-237.22"/>
<polygon fill="black" stroke="black" points="1404.57,-240.7 1414.5,-237 1404.43,-233.71 1404.57,-240.7"/>
</g>
<!-- _core_3d__core_3dui_pass -->
<g id="node25" class="node">
<title>_core_3d__core_3dui_pass</title>
<text text-anchor="start" x="2470" y="-298.8" font-family="Helvetica,sans-Serif" font-size="14.00">ui_pass</text>
<text text-anchor="start" x="2442.5" y="-288" font-family="Helvetica,sans-Serif" font-size="10.00" fill="red">RunGraphOnViewNode</text>
<path fill="none" stroke="black" d="M2448.33,-280C2448.33,-280 2538.67,-280 2538.67,-280 2544.33,-280 2550,-285.67 2550,-291.33 2550,-291.33 2550,-302.67 2550,-302.67 2550,-308.33 2544.33,-314 2538.67,-314 2538.67,-314 2448.33,-314 2448.33,-314 2442.67,-314 2437,-308.33 2437,-302.67 2437,-302.67 2437,-291.33 2437,-291.33 2437,-285.67 2442.67,-280 2448.33,-280"/>
</g>
<!-- _core_3d__core_3dend_main_pass&#45;&gt;_core_3d__core_3dui_pass -->
<g id="edge32" class="edge">
<title>_core_3d__core_3dend_main_pass:e&#45;&gt;_core_3d__core_3dui_pass:w</title>
<path fill="none" stroke="black" d="M984.5,-277C1195.8,-277 1248.2,-297 1459.5,-297 1459.5,-297 1459.5,-297 1953,-297 2165.09,-297 2220.83,-297 2427.58,-297"/>
<polygon fill="black" stroke="black" points="2427.5,-300.5 2437.5,-297 2427.5,-293.5 2427.5,-300.5"/>
</g>
<!-- _core_3d__core_3dend_main_pass_post_processing&#45;&gt;_core_3d__core_3dupscaling -->
<g id="edge23" class="edge">
<title>_core_3d__core_3dend_main_pass_post_processing:e&#45;&gt;_core_3d__core_3dupscaling:w</title>
<path fill="none" stroke="black" d="M2347.5,-257C2441.16,-257 2464.67,-259.1 2558,-267 2590.73,-269.77 2601.14,-275.59 2629.25,-276.78"/>
<polygon fill="black" stroke="black" points="2628.93,-280.3 2639,-277 2629.07,-273.3 2628.93,-280.3"/>
</g>
<!-- _core_3d__core_3dend_main_pass_post_processing&#45;&gt;_core_3d__core_3dui_pass -->
<g id="edge33" class="edge">
<title>_core_3d__core_3dend_main_pass_post_processing:e&#45;&gt;_core_3d__core_3dui_pass:w</title>
<path fill="none" stroke="black" d="M2347.5,-257C2387.71,-257 2393.51,-290.14 2427.54,-296.09"/>
<polygon fill="black" stroke="black" points="2427.24,-299.66 2437.5,-297 2427.82,-292.68 2427.24,-299.66"/>
</g>
<!-- _core_3d__core_3dstart_main_pass&#45;&gt;_core_3d__core_3dmain_opaque_pass -->
<g id="edge18" class="edge">
<title>_core_3d__core_3dstart_main_pass:e&#45;&gt;_core_3d__core_3dmain_opaque_pass:w</title>
<path fill="none" stroke="black" d="M331.5,-277C368.15,-277 379.89,-277 411.87,-277"/>
<polygon fill="black" stroke="black" points="411.5,-280.5 421.5,-277 411.5,-273.5 411.5,-280.5"/>
</g>
<!-- _core_3d__core_3dui_pass&#45;&gt;_core_3d__core_3dupscaling -->
<g id="edge24" class="edge">
<title>_core_3d__core_3dui_pass:e&#45;&gt;_core_3d__core_3dupscaling:w</title>
<path fill="none" stroke="black" d="M2548.5,-297C2586.22,-297 2596.53,-280.57 2629.12,-277.49"/>
<polygon fill="black" stroke="black" points="2629.17,-280.95 2639,-277 2628.85,-273.96 2629.17,-280.95"/>
</g>
<!-- _camera_driver -->
<g id="node26" class="node">
<title>_camera_driver</title>
<text text-anchor="start" x="35.5" y="-510.8" font-family="Helvetica,sans-Serif" font-size="14.00">camera_driver</text>
<text text-anchor="start" x="37.5" y="-500" font-family="Helvetica,sans-Serif" font-size="10.00" fill="red">CameraDriverNode</text>
<path fill="none" stroke="black" d="M41.33,-492C41.33,-492 116.67,-492 116.67,-492 122.33,-492 128,-497.67 128,-503.33 128,-503.33 128,-514.67 128,-514.67 128,-520.33 122.33,-526 116.67,-526 116.67,-526 41.33,-526 41.33,-526 35.67,-526 30,-520.33 30,-514.67 30,-514.67 30,-503.33 30,-503.33 30,-497.67 35.67,-492 41.33,-492"/>
</g>
</g>
</svg>
