<?xml version="1.0" encoding="UTF-8" standalone="no"?>
<!DOCTYPE svg PUBLIC "-//W3C//DTD SVG 1.1//EN"
 "http://www.w3.org/Graphics/SVG/1.1/DTD/svg11.dtd">
<!-- Generated by graphviz version 8.0.1 (0)
 -->
<!-- Pages: 1 -->
<svg width="517pt" height="2073pt"
 viewBox="0.00 0.00 517.00 2073.00" xmlns="http://www.w3.org/2000/svg" xmlns:xlink="http://www.w3.org/1999/xlink">
<g id="graph0" class="graph" transform="scale(1 1) rotate(0) translate(4 2069)">
<polygon fill="#0d1117" stroke="none" points="-4,4 -4,-2069 513,-2069 513,4 -4,4"/>
<g id="clust1" class="cluster">
<title>clusternode_Set(24)</title>
<g id="a_clust1"><a xlink:title="ExtractSprites">
<path fill="#ffffff" fill-opacity="0.266667" stroke="#ffffff" stroke-width="2" stroke-opacity="0.313725" d="M123.5,-8C123.5,-8 219.5,-8 219.5,-8 225.5,-8 231.5,-14 231.5,-20 231.5,-20 231.5,-82 231.5,-82 231.5,-88 225.5,-94 219.5,-94 219.5,-94 123.5,-94 123.5,-94 117.5,-94 111.5,-88 111.5,-82 111.5,-82 111.5,-20 111.5,-20 111.5,-14 117.5,-8 123.5,-8"/>
<text text-anchor="middle" x="171.5" y="-78.8" font-family="Helvetica,sans-Serif" font-size="14.00">ExtractSprites</text>
</a>
</g>
</g>
<g id="clust2" class="cluster">
<title>clusternode_Set(31)</title>
<g id="a_clust2"><a xlink:title="ExtractNode">
<path fill="#ffffff" fill-opacity="0.266667" stroke="#ffffff" stroke-width="2" stroke-opacity="0.313725" d="M119.5,-102C119.5,-102 223.5,-102 223.5,-102 229.5,-102 235.5,-108 235.5,-114 235.5,-114 235.5,-176 235.5,-176 235.5,-182 229.5,-188 223.5,-188 223.5,-188 119.5,-188 119.5,-188 113.5,-188 107.5,-182 107.5,-176 107.5,-176 107.5,-114 107.5,-114 107.5,-108 113.5,-102 119.5,-102"/>
<text text-anchor="middle" x="171.5" y="-172.8" font-family="Helvetica,sans-Serif" font-size="14.00">ExtractNode</text>
</a>
</g>
</g>
<g id="clust3" class="cluster">
<title>clusternode_Set(42)</title>
<g id="a_clust3"><a xlink:title="ExtractClusters">
<path fill="#ffffff" fill-opacity="0.266667" stroke="#ffffff" stroke-width="2" stroke-opacity="0.313725" d="M120,-196C120,-196 223,-196 223,-196 229,-196 235,-202 235,-208 235,-208 235,-270 235,-270 235,-276 229,-282 223,-282 223,-282 120,-282 120,-282 114,-282 108,-276 108,-270 108,-270 108,-208 108,-208 108,-202 114,-196 120,-196"/>
<text text-anchor="middle" x="171.5" y="-266.8" font-family="Helvetica,sans-Serif" font-size="14.00">ExtractClusters</text>
</a>
</g>
</g>
<g id="clust4" class="cluster">
<title>clusternode_Set(44)</title>
<g id="a_clust4"><a xlink:title="ExtractLights">
<path fill="#ffffff" fill-opacity="0.266667" stroke="#ffffff" stroke-width="2" stroke-opacity="0.313725" d="M127.5,-290C127.5,-290 215.5,-290 215.5,-290 221.5,-290 227.5,-296 227.5,-302 227.5,-302 227.5,-364 227.5,-364 227.5,-370 221.5,-376 215.5,-376 215.5,-376 127.5,-376 127.5,-376 121.5,-376 115.5,-370 115.5,-364 115.5,-364 115.5,-302 115.5,-302 115.5,-296 121.5,-290 127.5,-290"/>
<text text-anchor="middle" x="171.5" y="-360.8" font-family="Helvetica,sans-Serif" font-size="14.00">ExtractLights</text>
</a>
</g>
</g>
<!-- set_marker_node_Set(24) -->
<!-- node_System(25) -->
<g id="node33" class="node">
<title>node_System(25)</title>
<g id="a_node33"><a xlink:title="bevy_text::text2d::extract_text2d_sprite">
<polygon fill="lightgrey" stroke="black" points="509,-81 379,-81 379,-45 509,-45 509,-81"/>
<text text-anchor="middle" x="444" y="-59.3" font-family="Times,serif" font-size="14.00">extract_text2d_sprite</text>
</a>
</g>
</g>
<!-- set_marker_node_Set(24)&#45;&gt;node_System(25) -->
<g id="edge1" class="edge">
<title>set_marker_node_Set(24)&#45;&gt;node_System(25)</title>
<g id="a_edge1"><a xlink:title="ExtractSprites → extract_text2d_sprite">
<path fill="none" stroke="#eede00" stroke-width="2" d="M231.5,-63C270.92,-63 323.17,-63 365.88,-63"/>
<polygon fill="#eede00" stroke="#eede00" stroke-width="2" points="365.74,-66.5 375.74,-63 365.74,-59.5 365.74,-66.5"/>
</a>
</g>
</g>
<!-- node_System(23) -->
<g id="node2" class="node">
<title>node_System(23)</title>
<g id="a_node2"><a xlink:title="bevy_sprite::render::extract_sprites">
<polygon fill="#eff1f3" stroke="#b4bec7" points="223.5,-52 119.5,-52 119.5,-16 223.5,-16 223.5,-52"/>
<text text-anchor="middle" x="171.5" y="-30.3" font-family="Helvetica,sans-Serif" font-size="14.00" fill="#15191d">extract_sprites</text>
</a>
</g>
</g>
<!-- set_marker_node_Set(31) -->
<!-- node_System(30) -->
<g id="node37" class="node">
<title>node_System(30)</title>
<g id="a_node37"><a xlink:title="bevy_ui::render::extract_text_uinodes">
<polygon fill="lightgrey" stroke="black" points="508.5,-175 379.5,-175 379.5,-139 508.5,-139 508.5,-175"/>
<text text-anchor="middle" x="444" y="-153.3" font-family="Times,serif" font-size="14.00">extract_text_uinodes</text>
</a>
</g>
</g>
<!-- set_marker_node_Set(31)&#45;&gt;node_System(30) -->
<g id="edge2" class="edge">
<title>set_marker_node_Set(31)&#45;&gt;node_System(30)</title>
<g id="a_edge2"><a xlink:title="ExtractNode → extract_text_uinodes">
<path fill="none" stroke="#881877" stroke-width="2" d="M235.5,-157C274.51,-157 324.88,-157 366.22,-157"/>
<polygon fill="#881877" stroke="#881877" stroke-width="2" points="366.08,-160.5 376.08,-157 366.08,-153.5 366.08,-160.5"/>
</a>
</g>
</g>
<!-- node_System(29) -->
<g id="node4" class="node">
<title>node_System(29)</title>
<g id="a_node4"><a xlink:title="bevy_ui::render::extract_uinodes">
<polygon fill="#ffb1e5" stroke="#ff4bc2" points="227.5,-146 115.5,-146 115.5,-110 227.5,-110 227.5,-146"/>
<text text-anchor="middle" x="171.5" y="-124.3" font-family="Helvetica,sans-Serif" font-size="14.00" fill="#320021">extract_uinodes</text>
</a>
</g>
</g>
<!-- set_marker_node_Set(42) -->
<!-- node_System(39) -->
<g id="node6" class="node">
<title>node_System(39)</title>
<g id="a_node6"><a xlink:title="bevy_pbr::render::light::extract_clusters">
<polygon fill="#abd5fc" stroke="#48a3f8" points="227,-240 116,-240 116,-204 227,-204 227,-240"/>
<text text-anchor="middle" x="171.5" y="-218.3" font-family="Helvetica,sans-Serif" font-size="14.00" fill="#011a31">extract_clusters</text>
</a>
</g>
</g>
<!-- set_marker_node_Set(44) -->
<!-- node_System(40) -->
<g id="node8" class="node">
<title>node_System(40)</title>
<g id="a_node8"><a xlink:title="bevy_pbr::render::light::extract_lights">
<polygon fill="#abd5fc" stroke="#48a3f8" points="219.5,-334 123.5,-334 123.5,-298 219.5,-298 219.5,-334"/>
<text text-anchor="middle" x="171.5" y="-312.3" font-family="Helvetica,sans-Serif" font-size="14.00" fill="#011a31">extract_lights</text>
</a>
</g>
</g>
<!-- node_System(0) -->
<g id="node9" class="node">
<title>node_System(0)</title>
<g id="a_node9"><a xlink:title="bevy_render::render_resource::pipeline_cache::PipelineCache::extract_shaders">
<polygon fill="lightgrey" stroke="black" points="221.5,-420 121.5,-420 121.5,-384 221.5,-384 221.5,-420"/>
<text text-anchor="middle" x="171.5" y="-398.3" font-family="Times,serif" font-size="14.00">extract_shaders</text>
</a>
</g>
</g>
<!-- node_System(1) -->
<g id="node10" class="node">
<title>node_System(1)</title>
<g id="a_node10"><a xlink:title="bevy_render::view::window::extract_windows">
<polygon fill="lightgrey" stroke="black" points="226,-467 117,-467 117,-431 226,-431 226,-467"/>
<text text-anchor="middle" x="171.5" y="-445.3" font-family="Times,serif" font-size="14.00">extract_windows</text>
</a>
</g>
</g>
<!-- node_System(2) -->
<g id="node11" class="node">
<title>node_System(2)</title>
<g id="a_node11"><a xlink:title="bevy_render::camera::camera::extract_cameras">
<polygon fill="lightgrey" stroke="black" points="223.5,-514 119.5,-514 119.5,-478 223.5,-478 223.5,-514"/>
<text text-anchor="middle" x="171.5" y="-492.3" font-family="Times,serif" font-size="14.00">extract_cameras</text>
</a>
</g>
</g>
<!-- node_System(3) -->
<g id="node12" class="node">
<title>node_System(3)</title>
<g id="a_node12"><a xlink:title="bevy_render::extract_resource::extract_resource&lt;bevy_render::view::Msaa&gt;">
<polygon fill="lightgrey" stroke="black" points="247.5,-561 95.5,-561 95.5,-525 247.5,-525 247.5,-561"/>
<text text-anchor="middle" x="171.5" y="-539.3" font-family="Times,serif" font-size="14.00">extract_resource&lt;Msaa&gt;</text>
</a>
</g>
</g>
<!-- node_System(4) -->
<g id="node13" class="node">
<title>node_System(4)</title>
<g id="a_node13"><a xlink:title="bevy_render::render_asset::extract_render_asset&lt;bevy_render::mesh::mesh::Mesh&gt;">
<polygon fill="lightgrey" stroke="black" points="258,-608 85,-608 85,-572 258,-572 258,-608"/>
<text text-anchor="middle" x="171.5" y="-586.3" font-family="Times,serif" font-size="14.00">extract_render_asset&lt;Mesh&gt;</text>
</a>
</g>
</g>
<!-- node_System(5) -->
<g id="node14" class="node">
<title>node_System(5)</title>
<g id="a_node14"><a xlink:title="bevy_render::globals::extract_frame_count">
<polygon fill="lightgrey" stroke="black" points="235.5,-655 107.5,-655 107.5,-619 235.5,-619 235.5,-655"/>
<text text-anchor="middle" x="171.5" y="-633.3" font-family="Times,serif" font-size="14.00">extract_frame_count</text>
</a>
</g>
</g>
<!-- node_System(6) -->
<g id="node15" class="node">
<title>node_System(6)</title>
<g id="a_node15"><a xlink:title="bevy_render::globals::extract_time">
<polygon fill="lightgrey" stroke="black" points="213.5,-702 129.5,-702 129.5,-666 213.5,-666 213.5,-702"/>
<text text-anchor="middle" x="171.5" y="-680.3" font-family="Times,serif" font-size="14.00">extract_time</text>
</a>
</g>
</g>
<!-- node_System(7) -->
<g id="node16" class="node">
<title>node_System(7)</title>
<g id="a_node16"><a xlink:title="bevy_render::render_asset::extract_render_asset&lt;bevy_render::texture::image::Image&gt;">
<polygon fill="lightgrey" stroke="black" points="260.5,-749 82.5,-749 82.5,-713 260.5,-713 260.5,-749"/>
<text text-anchor="middle" x="171.5" y="-727.3" font-family="Times,serif" font-size="14.00">extract_render_asset&lt;Image&gt;</text>
</a>
</g>
</g>
<!-- node_System(8) -->
<g id="node17" class="node">
<title>node_System(8)</title>
<g id="a_node17"><a xlink:title="bevy_render::extract_resource::extract_resource&lt;bevy_core_pipeline::clear_color::ClearColor&gt;">
<polygon fill="lightgrey" stroke="black" points="263.5,-796 79.5,-796 79.5,-760 263.5,-760 263.5,-796"/>
<text text-anchor="middle" x="171.5" y="-774.3" font-family="Times,serif" font-size="14.00">extract_resource&lt;ClearColor&gt;</text>
</a>
</g>
</g>
<!-- node_System(9) -->
<g id="node18" class="node">
<title>node_System(9)</title>
<g id="a_node18"><a xlink:title="bevy_render::extract_component::extract_components&lt;bevy_core_pipeline::core_2d::camera_2d::Camera2d&gt;">
<polygon fill="lightgrey" stroke="black" points="271,-843 72,-843 72,-807 271,-807 271,-843"/>
<text text-anchor="middle" x="171.5" y="-821.3" font-family="Times,serif" font-size="14.00">extract_components&lt;Camera2d&gt;</text>
</a>
</g>
</g>
<!-- node_System(10) -->
<g id="node19" class="node">
<title>node_System(10)</title>
<g id="a_node19"><a xlink:title="bevy_core_pipeline::core_2d::extract_core_2d_camera_phases">
<polygon fill="lightgrey" stroke="black" points="267.5,-890 75.5,-890 75.5,-854 267.5,-854 267.5,-890"/>
<text text-anchor="middle" x="171.5" y="-868.3" font-family="Times,serif" font-size="14.00">extract_core_2d_camera_phases</text>
</a>
</g>
</g>
<!-- node_System(11) -->
<g id="node20" class="node">
<title>node_System(11)</title>
<g id="a_node20"><a xlink:title="bevy_render::extract_component::extract_components&lt;bevy_core_pipeline::skybox::Skybox&gt;">
<polygon fill="lightgrey" stroke="black" points="264,-937 79,-937 79,-901 264,-901 264,-937"/>
<text text-anchor="middle" x="171.5" y="-915.3" font-family="Times,serif" font-size="14.00">extract_components&lt;Skybox&gt;</text>
</a>
</g>
</g>
<!-- node_System(12) -->
<g id="node21" class="node">
<title>node_System(12)</title>
<g id="a_node21"><a xlink:title="bevy_render::extract_component::extract_components&lt;bevy_core_pipeline::core_3d::camera_3d::Camera3d&gt;">
<polygon fill="lightgrey" stroke="black" points="271,-984 72,-984 72,-948 271,-948 271,-984"/>
<text text-anchor="middle" x="171.5" y="-962.3" font-family="Times,serif" font-size="14.00">extract_components&lt;Camera3d&gt;</text>
</a>
</g>
</g>
<!-- node_System(13) -->
<g id="node22" class="node">
<title>node_System(13)</title>
<g id="a_node22"><a xlink:title="bevy_core_pipeline::core_3d::extract_core_3d_camera_phases">
<polygon fill="lightgrey" stroke="black" points="267.5,-1031 75.5,-1031 75.5,-995 267.5,-995 267.5,-1031"/>
<text text-anchor="middle" x="171.5" y="-1009.3" font-family="Times,serif" font-size="14.00">extract_core_3d_camera_phases</text>
</a>
</g>
</g>
<!-- node_System(14) -->
<g id="node23" class="node">
<title>node_System(14)</title>
<g id="a_node23"><a xlink:title="bevy_render::extract_resource::extract_resource&lt;bevy_core_pipeline::tonemapping::TonemappingLuts&gt;">
<polygon fill="lightgrey" stroke="black" points="282,-1078 61,-1078 61,-1042 282,-1042 282,-1078"/>
<text text-anchor="middle" x="171.5" y="-1056.3" font-family="Times,serif" font-size="14.00">extract_resource&lt;TonemappingLuts&gt;</text>
</a>
</g>
</g>
<!-- node_System(15) -->
<g id="node24" class="node">
<title>node_System(15)</title>
<g id="a_node24"><a xlink:title="bevy_render::extract_component::extract_components&lt;bevy_core_pipeline::tonemapping::Tonemapping&gt;">
<polygon fill="lightgrey" stroke="black" points="280.5,-1125 62.5,-1125 62.5,-1089 280.5,-1089 280.5,-1125"/>
<text text-anchor="middle" x="171.5" y="-1103.3" font-family="Times,serif" font-size="14.00">extract_components&lt;Tonemapping&gt;</text>
</a>
</g>
</g>
<!-- node_System(16) -->
<g id="node25" class="node">
<title>node_System(16)</title>
<g id="a_node25"><a xlink:title="bevy_render::extract_component::extract_components&lt;bevy_core_pipeline::tonemapping::DebandDither&gt;">
<polygon fill="lightgrey" stroke="black" points="281,-1172 62,-1172 62,-1136 281,-1136 281,-1172"/>
<text text-anchor="middle" x="171.5" y="-1150.3" font-family="Times,serif" font-size="14.00">extract_components&lt;DebandDither&gt;</text>
</a>
</g>
</g>
<!-- node_System(17) -->
<g id="node26" class="node">
<title>node_System(17)</title>
<g id="a_node26"><a xlink:title="bevy_render::extract_component::extract_components&lt;bevy_core_pipeline::bloom::settings::BloomSettings&gt;">
<polygon fill="lightgrey" stroke="black" points="283.5,-1219 59.5,-1219 59.5,-1183 283.5,-1183 283.5,-1219"/>
<text text-anchor="middle" x="171.5" y="-1197.3" font-family="Times,serif" font-size="14.00">extract_components&lt;BloomSettings&gt;</text>
</a>
</g>
</g>
<!-- node_System(18) -->
<g id="node27" class="node">
<title>node_System(18)</title>
<g id="a_node27"><a xlink:title="bevy_render::extract_component::extract_components&lt;bevy_core_pipeline::fxaa::Fxaa&gt;">
<polygon fill="lightgrey" stroke="black" points="256.5,-1266 86.5,-1266 86.5,-1230 256.5,-1230 256.5,-1266"/>
<text text-anchor="middle" x="171.5" y="-1244.3" font-family="Times,serif" font-size="14.00">extract_components&lt;Fxaa&gt;</text>
</a>
</g>
</g>
<!-- node_System(19) -->
<g id="node28" class="node">
<title>node_System(19)</title>
<g id="a_node28"><a xlink:title="bevy_render::extract_component::extract_components&lt;bevy_core_pipeline::contrast_adaptive_sharpening::ContrastAdaptiveSharpeningSettings&gt;">
<polygon fill="lightgrey" stroke="black" points="343,-1313 0,-1313 0,-1277 343,-1277 343,-1313"/>
<text text-anchor="middle" x="171.5" y="-1291.3" font-family="Times,serif" font-size="14.00">extract_components&lt;ContrastAdaptiveSharpeningSettings&gt;</text>
</a>
</g>
</g>
<!-- node_System(20) -->
<g id="node29" class="node">
<title>node_System(20)</title>
<g id="a_node29"><a xlink:title="bevy_sprite::mesh2d::mesh::extract_mesh2d">
<polygon fill="lightgrey" stroke="black" points="222,-1360 121,-1360 121,-1324 222,-1324 222,-1360"/>
<text text-anchor="middle" x="171.5" y="-1338.3" font-family="Times,serif" font-size="14.00">extract_mesh2d</text>
</a>
</g>
</g>
<!-- node_System(21) -->
<g id="node30" class="node">
<title>node_System(21)</title>
<g id="a_node30"><a xlink:title="bevy_render::extract_component::extract_visible_components&lt;bevy_asset::handle::Handle&lt;bevy_sprite::mesh2d::color_material::ColorMaterial&gt;&gt;">
<polygon fill="lightgrey" stroke="black" points="330.5,-1407 12.5,-1407 12.5,-1371 330.5,-1371 330.5,-1407"/>
<text text-anchor="middle" x="171.5" y="-1385.3" font-family="Times,serif" font-size="14.00">extract_visible_components&lt;Handle&lt;ColorMaterial&gt;&gt;</text>
</a>
</g>
</g>
<!-- node_System(22) -->
<g id="node31" class="node">
<title>node_System(22)</title>
<g id="a_node31"><a xlink:title="bevy_sprite::mesh2d::material::extract_materials_2d&lt;bevy_sprite::mesh2d::color_material::ColorMaterial&gt;">
<polygon fill="lightgrey" stroke="black" points="283.5,-1454 59.5,-1454 59.5,-1418 283.5,-1418 283.5,-1454"/>
<text text-anchor="middle" x="171.5" y="-1432.3" font-family="Times,serif" font-size="14.00">extract_materials_2d&lt;ColorMaterial&gt;</text>
</a>
</g>
</g>
<!-- node_System(24) -->
<g id="node32" class="node">
<title>node_System(24)</title>
<g id="a_node32"><a xlink:title="bevy_sprite::render::extract_sprite_events">
<polygon fill="lightgrey" stroke="black" points="236.5,-1501 106.5,-1501 106.5,-1465 236.5,-1465 236.5,-1501"/>
<text text-anchor="middle" x="171.5" y="-1479.3" font-family="Times,serif" font-size="14.00">extract_sprite_events</text>
</a>
</g>
</g>
<!-- node_System(26) -->
<g id="node34" class="node">
<title>node_System(26)</title>
<g id="a_node34"><a xlink:title="bevy_render::extract_component::extract_components&lt;bevy_ui::camera_config::UiCameraConfig&gt;">
<polygon fill="lightgrey" stroke="black" points="289.5,-1548 53.5,-1548 53.5,-1512 289.5,-1512 289.5,-1548"/>
<text text-anchor="middle" x="171.5" y="-1526.3" font-family="Times,serif" font-size="14.00">extract_components&lt;UiCameraConfig&gt;</text>
</a>
</g>
</g>
<!-- node_System(27) -->
<g id="node35" class="node">
<title>node_System(27)</title>
<g id="a_node35"><a xlink:title="bevy_ui::render::extract_default_ui_camera_view&lt;bevy_core_pipeline::core_2d::camera_2d::Camera2d&gt;">
<polygon fill="lightgrey" stroke="black" points="304.5,-1595 38.5,-1595 38.5,-1559 304.5,-1559 304.5,-1595"/>
<text text-anchor="middle" x="171.5" y="-1573.3" font-family="Times,serif" font-size="14.00">extract_default_ui_camera_view&lt;Camera2d&gt;</text>
</a>
</g>
</g>
<!-- node_System(28) -->
<g id="node36" class="node">
<title>node_System(28)</title>
<g id="a_node36"><a xlink:title="bevy_ui::render::extract_default_ui_camera_view&lt;bevy_core_pipeline::core_3d::camera_3d::Camera3d&gt;">
<polygon fill="lightgrey" stroke="black" points="304.5,-1642 38.5,-1642 38.5,-1606 304.5,-1606 304.5,-1642"/>
<text text-anchor="middle" x="171.5" y="-1620.3" font-family="Times,serif" font-size="14.00">extract_default_ui_camera_view&lt;Camera3d&gt;</text>
</a>
</g>
</g>
<!-- node_System(31) -->
<g id="node38" class="node">
<title>node_System(31)</title>
<g id="a_node38"><a xlink:title="bevy_pbr::render::mesh::extract_meshes">
<polygon fill="lightgrey" stroke="black" points="221,-1689 122,-1689 122,-1653 221,-1653 221,-1689"/>
<text text-anchor="middle" x="171.5" y="-1667.3" font-family="Times,serif" font-size="14.00">extract_meshes</text>
</a>
</g>
</g>
<!-- node_System(32) -->
<g id="node39" class="node">
<title>node_System(32)</title>
<g id="a_node39"><a xlink:title="bevy_pbr::render::mesh::extract_skinned_meshes">
<polygon fill="lightgrey" stroke="black" points="245.5,-1736 97.5,-1736 97.5,-1700 245.5,-1700 245.5,-1736"/>
<text text-anchor="middle" x="171.5" y="-1714.3" font-family="Times,serif" font-size="14.00">extract_skinned_meshes</text>
</a>
</g>
</g>
<!-- node_System(33) -->
<g id="node40" class="node">
<title>node_System(33)</title>
<g id="a_node40"><a xlink:title="bevy_render::extract_component::extract_visible_components&lt;bevy_asset::handle::Handle&lt;bevy_pbr::pbr_material::StandardMaterial&gt;&gt;">
<polygon fill="lightgrey" stroke="black" points="339,-1783 4,-1783 4,-1747 339,-1747 339,-1783"/>
<text text-anchor="middle" x="171.5" y="-1761.3" font-family="Times,serif" font-size="14.00">extract_visible_components&lt;Handle&lt;StandardMaterial&gt;&gt;</text>
</a>
</g>
</g>
<!-- node_System(34) -->
<g id="node41" class="node">
<title>node_System(34)</title>
<g id="a_node41"><a xlink:title="bevy_pbr::material::extract_materials&lt;bevy_pbr::pbr_material::StandardMaterial&gt;">
<polygon fill="lightgrey" stroke="black" points="281.5,-1830 61.5,-1830 61.5,-1794 281.5,-1794 281.5,-1830"/>
<text text-anchor="middle" x="171.5" y="-1808.3" font-family="Times,serif" font-size="14.00">extract_materials&lt;StandardMaterial&gt;</text>
</a>
</g>
</g>
<!-- node_System(35) -->
<g id="node42" class="node">
<title>node_System(35)</title>
<g id="a_node42"><a xlink:title="bevy_pbr::prepass::extract_camera_prepass_phase">
<polygon fill="lightgrey" stroke="black" points="263.5,-1877 79.5,-1877 79.5,-1841 263.5,-1841 263.5,-1877"/>
<text text-anchor="middle" x="171.5" y="-1855.3" font-family="Times,serif" font-size="14.00">extract_camera_prepass_phase</text>
</a>
</g>
</g>
<!-- node_System(36) -->
<g id="node43" class="node">
<title>node_System(36)</title>
<g id="a_node43"><a xlink:title="bevy_render::extract_component::extract_components&lt;bevy_pbr::environment_map::EnvironmentMapLight&gt;">
<polygon fill="lightgrey" stroke="black" points="305,-1924 38,-1924 38,-1888 305,-1888 305,-1924"/>
<text text-anchor="middle" x="171.5" y="-1902.3" font-family="Times,serif" font-size="14.00">extract_components&lt;EnvironmentMapLight&gt;</text>
</a>
</g>
</g>
<!-- node_System(37) -->
<g id="node44" class="node">
<title>node_System(37)</title>
<g id="a_node44"><a xlink:title="bevy_render::extract_resource::extract_resource&lt;bevy_pbr::light::AmbientLight&gt;">
<polygon fill="lightgrey" stroke="black" points="271,-1971 72,-1971 72,-1935 271,-1935 271,-1971"/>
<text text-anchor="middle" x="171.5" y="-1949.3" font-family="Times,serif" font-size="14.00">extract_resource&lt;AmbientLight&gt;</text>
</a>
</g>
</g>
<!-- node_System(38) -->
<g id="node45" class="node">
<title>node_System(38)</title>
<g id="a_node45"><a xlink:title="bevy_render::extract_component::extract_components&lt;bevy_pbr::fog::FogSettings&gt;">
<polygon fill="lightgrey" stroke="black" points="275,-2018 68,-2018 68,-1982 275,-1982 275,-2018"/>
<text text-anchor="middle" x="171.5" y="-1996.3" font-family="Times,serif" font-size="14.00">extract_components&lt;FogSettings&gt;</text>
</a>
</g>
</g>
<!-- node_System(41) -->
<g id="node46" class="node">
<title>node_System(41)</title>
<g id="a_node46"><a xlink:title="bevy_gizmos::extract_gizmo_data">
<polygon fill="lightgrey" stroke="black" points="233,-2065 110,-2065 110,-2029 233,-2029 233,-2065"/>
<text text-anchor="middle" x="171.5" y="-2043.3" font-family="Times,serif" font-size="14.00">extract_gizmo_data</text>
</a>
</g>
</g>
</g>
</svg>
