<?xml version="1.0" encoding="UTF-8" standalone="no"?>
<!DOCTYPE svg PUBLIC "-//W3C//DTD SVG 1.1//EN"
 "http://www.w3.org/Graphics/SVG/1.1/DTD/svg11.dtd">
<!-- Generated by graphviz version 8.0.1 (0)
 -->
<!-- Pages: 1 -->
<svg width="352pt" height="890pt"
 viewBox="0.00 0.00 352.00 890.00" xmlns="http://www.w3.org/2000/svg" xmlns:xlink="http://www.w3.org/1999/xlink">
<g id="graph0" class="graph" transform="scale(1 1) rotate(0) translate(4 886)">
<polygon fill="#0d1117" stroke="none" points="-4,4 -4,-886 348,-886 348,4 -4,4"/>
<!-- node_System(0) -->
<g id="node1" class="node">
<title>node_System(0)</title>
<g id="a_node1"><a xlink:title="bevy_asset::assets::Assets&lt;bevy_scene::dynamic_scene::DynamicScene&gt;::asset_event_system">
<polygon fill="lightgrey" stroke="black" points="300.5,-36 43.5,-36 43.5,0 300.5,0 300.5,-36"/>
<text text-anchor="middle" x="172" y="-14.3" font-family="Times,serif" font-size="14.00">Assets&lt;DynamicScene&gt;asset_event_system</text>
</a>
</g>
</g>
<!-- node_System(1) -->
<g id="node2" class="node">
<title>node_System(1)</title>
<g id="a_node2"><a xlink:title="bevy_asset::assets::Assets&lt;bevy_scene::scene::Scene&gt;::asset_event_system">
<polygon fill="lightgrey" stroke="black" points="275,-83 69,-83 69,-47 275,-47 275,-83"/>
<text text-anchor="middle" x="172" y="-61.3" font-family="Times,serif" font-size="14.00">Assets&lt;Scene&gt;asset_event_system</text>
</a>
</g>
</g>
<!-- node_System(2) -->
<g id="node3" class="node">
<title>node_System(2)</title>
<g id="a_node3"><a xlink:title="bevy_asset::assets::Assets&lt;bevy_render::render_resource::shader::Shader&gt;::asset_event_system">
<polygon fill="lightgrey" stroke="black" points="278,-130 66,-130 66,-94 278,-94 278,-130"/>
<text text-anchor="middle" x="172" y="-108.3" font-family="Times,serif" font-size="14.00">Assets&lt;Shader&gt;asset_event_system</text>
</a>
</g>
</g>
<!-- node_System(3) -->
<g id="node4" class="node">
<title>node_System(3)</title>
<g id="a_node4"><a xlink:title="bevy_asset::assets::Assets&lt;bevy_render::mesh::mesh::Mesh&gt;::asset_event_system">
<polygon fill="lightgrey" stroke="black" points="273.5,-177 70.5,-177 70.5,-141 273.5,-141 273.5,-177"/>
<text text-anchor="middle" x="172" y="-155.3" font-family="Times,serif" font-size="14.00">Assets&lt;Mesh&gt;asset_event_system</text>
</a>
</g>
</g>
<!-- node_System(4) -->
<g id="node5" class="node">
<title>node_System(4)</title>
<g id="a_node5"><a xlink:title="bevy_asset::assets::Assets&lt;bevy_render::mesh::mesh::skinning::SkinnedMeshInverseBindposes&gt;::asset_event_system">
<polygon fill="lightgrey" stroke="black" points="344,-224 0,-224 0,-188 344,-188 344,-224"/>
<text text-anchor="middle" x="172" y="-202.3" font-family="Times,serif" font-size="14.00">Assets&lt;SkinnedMeshInverseBindposes&gt;asset_event_system</text>
</a>
</g>
</g>
<!-- node_System(5) -->
<g id="node6" class="node">
<title>node_System(5)</title>
<g id="a_node6"><a xlink:title="bevy_asset::assets::Assets&lt;bevy_render::texture::image::Image&gt;::asset_event_system">
<polygon fill="lightgrey" stroke="black" points="276,-271 68,-271 68,-235 276,-235 276,-271"/>
<text text-anchor="middle" x="172" y="-249.3" font-family="Times,serif" font-size="14.00">Assets&lt;Image&gt;asset_event_system</text>
</a>
</g>
</g>
<!-- node_System(6) -->
<g id="node7" class="node">
<title>node_System(6)</title>
<g id="a_node7"><a xlink:title="bevy_asset::assets::Assets&lt;bevy_sprite::texture_atlas::TextureAtlas&gt;::asset_event_system">
<polygon fill="lightgrey" stroke="black" points="294.5,-318 49.5,-318 49.5,-282 294.5,-282 294.5,-318"/>
<text text-anchor="middle" x="172" y="-296.3" font-family="Times,serif" font-size="14.00">Assets&lt;TextureAtlas&gt;asset_event_system</text>
</a>
</g>
</g>
<!-- node_System(7) -->
<g id="node8" class="node">
<title>node_System(7)</title>
<g id="a_node8"><a xlink:title="bevy_asset::assets::Assets&lt;bevy_sprite::mesh2d::color_material::ColorMaterial&gt;::asset_event_system">
<polygon fill="lightgrey" stroke="black" points="297.5,-365 46.5,-365 46.5,-329 297.5,-329 297.5,-365"/>
<text text-anchor="middle" x="172" y="-343.3" font-family="Times,serif" font-size="14.00">Assets&lt;ColorMaterial&gt;asset_event_system</text>
</a>
</g>
</g>
<!-- node_System(8) -->
<g id="node9" class="node">
<title>node_System(8)</title>
<g id="a_node9"><a xlink:title="bevy_asset::assets::Assets&lt;bevy_text::font::Font&gt;::asset_event_system">
<polygon fill="lightgrey" stroke="black" points="271.5,-412 72.5,-412 72.5,-376 271.5,-376 271.5,-412"/>
<text text-anchor="middle" x="172" y="-390.3" font-family="Times,serif" font-size="14.00">Assets&lt;Font&gt;asset_event_system</text>
</a>
</g>
</g>
<!-- node_System(9) -->
<g id="node10" class="node">
<title>node_System(9)</title>
<g id="a_node10"><a xlink:title="bevy_asset::assets::Assets&lt;bevy_text::font_atlas_set::FontAtlasSet&gt;::asset_event_system">
<polygon fill="lightgrey" stroke="black" points="294.5,-459 49.5,-459 49.5,-423 294.5,-423 294.5,-459"/>
<text text-anchor="middle" x="172" y="-437.3" font-family="Times,serif" font-size="14.00">Assets&lt;FontAtlasSet&gt;asset_event_system</text>
</a>
</g>
</g>
<!-- node_System(10) -->
<g id="node11" class="node">
<title>node_System(10)</title>
<g id="a_node11"><a xlink:title="bevy_asset::assets::Assets&lt;bevy_pbr::pbr_material::StandardMaterial&gt;::asset_event_system">
<polygon fill="lightgrey" stroke="black" points="306,-506 38,-506 38,-470 306,-470 306,-506"/>
<text text-anchor="middle" x="172" y="-484.3" font-family="Times,serif" font-size="14.00">Assets&lt;StandardMaterial&gt;asset_event_system</text>
</a>
</g>
</g>
<!-- node_System(11) -->
<g id="node12" class="node">
<title>node_System(11)</title>
<g id="a_node12"><a xlink:title="bevy_asset::assets::Assets&lt;bevy_gltf::Gltf&gt;::asset_event_system">
<polygon fill="lightgrey" stroke="black" points="270.5,-553 73.5,-553 73.5,-517 270.5,-517 270.5,-553"/>
<text text-anchor="middle" x="172" y="-531.3" font-family="Times,serif" font-size="14.00">Assets&lt;Gltf&gt;asset_event_system</text>
</a>
</g>
</g>
<!-- node_System(12) -->
<g id="node13" class="node">
<title>node_System(12)</title>
<g id="a_node13"><a xlink:title="bevy_asset::assets::Assets&lt;bevy_gltf::GltfNode&gt;::asset_event_system">
<polygon fill="lightgrey" stroke="black" points="285.5,-600 58.5,-600 58.5,-564 285.5,-564 285.5,-600"/>
<text text-anchor="middle" x="172" y="-578.3" font-family="Times,serif" font-size="14.00">Assets&lt;GltfNode&gt;asset_event_system</text>
</a>
</g>
</g>
<!-- node_System(13) -->
<g id="node14" class="node">
<title>node_System(13)</title>
<g id="a_node14"><a xlink:title="bevy_asset::assets::Assets&lt;bevy_gltf::GltfPrimitive&gt;::asset_event_system">
<polygon fill="lightgrey" stroke="black" points="296,-647 48,-647 48,-611 296,-611 296,-647"/>
<text text-anchor="middle" x="172" y="-625.3" font-family="Times,serif" font-size="14.00">Assets&lt;GltfPrimitive&gt;asset_event_system</text>
</a>
</g>
</g>
<!-- node_System(14) -->
<g id="node15" class="node">
<title>node_System(14)</title>
<g id="a_node15"><a xlink:title="bevy_asset::assets::Assets&lt;bevy_gltf::GltfMesh&gt;::asset_event_system">
<polygon fill="lightgrey" stroke="black" points="285,-694 59,-694 59,-658 285,-658 285,-694"/>
<text text-anchor="middle" x="172" y="-672.3" font-family="Times,serif" font-size="14.00">Assets&lt;GltfMesh&gt;asset_event_system</text>
</a>
</g>
</g>
<!-- node_System(15) -->
<g id="node16" class="node">
<title>node_System(15)</title>
<g id="a_node16"><a xlink:title="bevy_asset::assets::Assets&lt;bevy_audio::audio_source::AudioSource&gt;::asset_event_system">
<polygon fill="lightgrey" stroke="black" points="294.5,-741 49.5,-741 49.5,-705 294.5,-705 294.5,-741"/>
<text text-anchor="middle" x="172" y="-719.3" font-family="Times,serif" font-size="14.00">Assets&lt;AudioSource&gt;asset_event_system</text>
</a>
</g>
</g>
<!-- node_System(16) -->
<g id="node17" class="node">
<title>node_System(16)</title>
<g id="a_node17"><a xlink:title="bevy_asset::assets::Assets&lt;bevy_audio::sinks::AudioSink&gt;::asset_event_system">
<polygon fill="lightgrey" stroke="black" points="288.5,-788 55.5,-788 55.5,-752 288.5,-752 288.5,-788"/>
<text text-anchor="middle" x="172" y="-766.3" font-family="Times,serif" font-size="14.00">Assets&lt;AudioSink&gt;asset_event_system</text>
</a>
</g>
</g>
<!-- node_System(17) -->
<g id="node18" class="node">
<title>node_System(17)</title>
<g id="a_node18"><a xlink:title="bevy_asset::assets::Assets&lt;bevy_audio::sinks::SpatialAudioSink&gt;::asset_event_system">
<polygon fill="lightgrey" stroke="black" points="307.5,-835 36.5,-835 36.5,-799 307.5,-799 307.5,-835"/>
<text text-anchor="middle" x="172" y="-813.3" font-family="Times,serif" font-size="14.00">Assets&lt;SpatialAudioSink&gt;asset_event_system</text>
</a>
</g>
</g>
<!-- node_System(18) -->
<g id="node19" class="node">
<title>node_System(18)</title>
<g id="a_node19"><a xlink:title="bevy_asset::assets::Assets&lt;bevy_animation::AnimationClip&gt;::asset_event_system">
<polygon fill="lightgrey" stroke="black" points="300,-882 44,-882 44,-846 300,-846 300,-882"/>
<text text-anchor="middle" x="172" y="-860.3" font-family="Times,serif" font-size="14.00">Assets&lt;AnimationClip&gt;asset_event_system</text>
</a>
</g>
</g>
</g>
</svg>
