<?xml version="1.0" encoding="UTF-8" standalone="no"?>
<!DOCTYPE svg PUBLIC "-//W3C//DTD SVG 1.1//EN"
 "http://www.w3.org/Graphics/SVG/1.1/DTD/svg11.dtd">
<!-- Generated by graphviz version 8.0.1 (0)
 -->
<!-- Pages: 1 -->
<svg width="1694pt" height="939pt"
 viewBox="0.00 0.00 1694.00 939.00" xmlns="http://www.w3.org/2000/svg" xmlns:xlink="http://www.w3.org/1999/xlink">
<g id="graph0" class="graph" transform="scale(1 1) rotate(0) translate(4 935)">
<polygon fill="#0d1117" stroke="none" points="-4,4 -4,-935 1690,-935 1690,4 -4,4"/>
<g id="clust1" class="cluster">
<title>clusternode_Set(1)</title>
<g id="a_clust1"><a xlink:title="TransformPropagate">
<path fill="#ffffff" fill-opacity="0.266667" stroke="#ffffff" stroke-width="2" stroke-opacity="0.313725" d="M507.5,-272C507.5,-272 667.5,-272 667.5,-272 673.5,-272 679.5,-278 679.5,-284 679.5,-284 679.5,-440 679.5,-440 679.5,-446 673.5,-452 667.5,-452 667.5,-452 507.5,-452 507.5,-452 501.5,-452 495.5,-446 495.5,-440 495.5,-440 495.5,-284 495.5,-284 495.5,-278 501.5,-272 507.5,-272"/>
<text text-anchor="middle" x="587.5" y="-436.8" font-family="Helvetica,sans-Serif" font-size="14.00">TransformPropagate</text>
</a>
</g>
</g>
<g id="clust2" class="cluster">
<title>clusternode_Set(0)</title>
<g id="a_clust2"><a xlink:title="PropagateTransformsSet">
<path fill="#ffffff" fill-opacity="0.266667" stroke="#ffffff" stroke-width="2" stroke-opacity="0.313725" d="M515.5,-335C515.5,-335 659.5,-335 659.5,-335 665.5,-335 671.5,-341 671.5,-347 671.5,-347 671.5,-409 671.5,-409 671.5,-415 665.5,-421 659.5,-421 659.5,-421 515.5,-421 515.5,-421 509.5,-421 503.5,-415 503.5,-409 503.5,-409 503.5,-347 503.5,-347 503.5,-341 509.5,-335 515.5,-335"/>
<text text-anchor="middle" x="587.5" y="-405.8" font-family="Helvetica,sans-Serif" font-size="14.00">PropagateTransformsSet</text>
</a>
</g>
</g>
<g id="clust3" class="cluster">
<title>clusternode_Set(6)</title>
<g id="a_clust3"><a xlink:title="CameraUpdateSystem">
<path fill="#ffffff" fill-opacity="0.266667" stroke="#ffffff" stroke-width="2" stroke-opacity="0.313725" d="M457,-478C457,-478 717,-478 717,-478 723,-478 729,-484 729,-490 729,-490 729,-646 729,-646 729,-652 723,-658 717,-658 717,-658 457,-658 457,-658 451,-658 445,-652 445,-646 445,-646 445,-490 445,-490 445,-484 451,-478 457,-478"/>
<text text-anchor="middle" x="587" y="-642.8" font-family="Helvetica,sans-Serif" font-size="14.00">CameraUpdateSystem</text>
</a>
</g>
</g>
<g id="clust4" class="cluster">
<title>clusternode_Set(10)</title>
<g id="a_clust4"><a xlink:title="CalculateBoundsFlush">
<path fill="#ffffff" fill-opacity="0.266667" stroke="#ffffff" stroke-width="2" stroke-opacity="0.313725" d="M816,-837C816,-837 955,-837 955,-837 961,-837 967,-843 967,-849 967,-849 967,-911 967,-911 967,-917 961,-923 955,-923 955,-923 816,-923 816,-923 810,-923 804,-917 804,-911 804,-911 804,-849 804,-849 804,-843 810,-837 816,-837"/>
<text text-anchor="middle" x="885.5" y="-907.8" font-family="Helvetica,sans-Serif" font-size="14.00">CalculateBoundsFlush</text>
</a>
</g>
</g>
<g id="clust5" class="cluster">
<title>clusternode_Set(11)</title>
<g id="a_clust5"><a xlink:title="CalculateBounds">
<path fill="#ffffff" fill-opacity="0.266667" stroke="#ffffff" stroke-width="2" stroke-opacity="0.313725" d="M530,-837C530,-837 644,-837 644,-837 650,-837 656,-843 656,-849 656,-849 656,-911 656,-911 656,-917 650,-923 644,-923 644,-923 530,-923 530,-923 524,-923 518,-917 518,-911 518,-911 518,-849 518,-849 518,-843 524,-837 530,-837"/>
<text text-anchor="middle" x="587" y="-907.8" font-family="Helvetica,sans-Serif" font-size="14.00">CalculateBounds</text>
</a>
</g>
</g>
<g id="clust6" class="cluster">
<title>clusternode_Set(14)</title>
<g id="a_clust6"><a xlink:title="UpdateOrthographicFrusta">
<path fill="#ffffff" fill-opacity="0.266667" stroke="#ffffff" stroke-width="2" stroke-opacity="0.313725" d="M762,-743C762,-743 1009,-743 1009,-743 1015,-743 1021,-749 1021,-755 1021,-755 1021,-817 1021,-817 1021,-823 1015,-829 1009,-829 1009,-829 762,-829 762,-829 756,-829 750,-823 750,-817 750,-817 750,-755 750,-755 750,-749 756,-743 762,-743"/>
<text text-anchor="middle" x="885.5" y="-813.8" font-family="Helvetica,sans-Serif" font-size="14.00">UpdateOrthographicFrusta</text>
</a>
</g>
</g>
<g id="clust7" class="cluster">
<title>clusternode_Set(17)</title>
<g id="a_clust7"><a xlink:title="UpdatePerspectiveFrusta">
<path fill="#ffffff" fill-opacity="0.266667" stroke="#ffffff" stroke-width="2" stroke-opacity="0.313725" d="M766,-461C766,-461 1005,-461 1005,-461 1011,-461 1017,-467 1017,-473 1017,-473 1017,-535 1017,-535 1017,-541 1011,-547 1005,-547 1005,-547 766,-547 766,-547 760,-547 754,-541 754,-535 754,-535 754,-473 754,-473 754,-467 760,-461 766,-461"/>
<text text-anchor="middle" x="885.5" y="-531.8" font-family="Helvetica,sans-Serif" font-size="14.00">UpdatePerspectiveFrusta</text>
</a>
</g>
</g>
<g id="clust8" class="cluster">
<title>clusternode_Set(18)</title>
<g id="a_clust8"><a xlink:title="UpdateProjectionFrusta">
<path fill="#ffffff" fill-opacity="0.266667" stroke="#ffffff" stroke-width="2" stroke-opacity="0.313725" d="M801.5,-649C801.5,-649 969.5,-649 969.5,-649 975.5,-649 981.5,-655 981.5,-661 981.5,-661 981.5,-723 981.5,-723 981.5,-729 975.5,-735 969.5,-735 969.5,-735 801.5,-735 801.5,-735 795.5,-735 789.5,-729 789.5,-723 789.5,-723 789.5,-661 789.5,-661 789.5,-655 795.5,-649 801.5,-649"/>
<text text-anchor="middle" x="885.5" y="-719.8" font-family="Helvetica,sans-Serif" font-size="14.00">UpdateProjectionFrusta</text>
</a>
</g>
</g>
<g id="clust9" class="cluster">
<title>clusternode_Set(20)</title>
<g id="a_clust9"><a xlink:title="VisibilityPropagate">
<path fill="#ffffff" fill-opacity="0.266667" stroke="#ffffff" stroke-width="2" stroke-opacity="0.313725" d="M798.5,-555C798.5,-555 972.5,-555 972.5,-555 978.5,-555 984.5,-561 984.5,-567 984.5,-567 984.5,-629 984.5,-629 984.5,-635 978.5,-641 972.5,-641 972.5,-641 798.5,-641 798.5,-641 792.5,-641 786.5,-635 786.5,-629 786.5,-629 786.5,-567 786.5,-567 786.5,-561 792.5,-555 798.5,-555"/>
<text text-anchor="middle" x="885.5" y="-625.8" font-family="Helvetica,sans-Serif" font-size="14.00">VisibilityPropagate</text>
</a>
</g>
</g>
<g id="clust10" class="cluster">
<title>clusternode_Set(22)</title>
<g id="a_clust10"><a xlink:title="CheckVisibility">
<path fill="#ffffff" fill-opacity="0.266667" stroke="#ffffff" stroke-width="2" stroke-opacity="0.313725" d="M1084,-490C1084,-490 1183,-490 1183,-490 1189,-490 1195,-496 1195,-502 1195,-502 1195,-564 1195,-564 1195,-570 1189,-576 1183,-576 1183,-576 1084,-576 1084,-576 1078,-576 1072,-570 1072,-564 1072,-564 1072,-502 1072,-502 1072,-496 1078,-490 1084,-490"/>
<text text-anchor="middle" x="1133.5" y="-560.8" font-family="Helvetica,sans-Serif" font-size="14.00">CheckVisibility</text>
</a>
</g>
</g>
<g id="clust11" class="cluster">
<title>clusternode_Set(25)</title>
<g id="a_clust11"><a xlink:title="Flex">
<path fill="#ffffff" fill-opacity="0.266667" stroke="#ffffff" stroke-width="2" stroke-opacity="0.313725" d="M295,-342C295,-342 412,-342 412,-342 418,-342 424,-348 424,-354 424,-354 424,-416 424,-416 424,-422 418,-428 412,-428 412,-428 295,-428 295,-428 289,-428 283,-422 283,-416 283,-416 283,-354 283,-354 283,-348 289,-342 295,-342"/>
<text text-anchor="middle" x="353.5" y="-412.8" font-family="Helvetica,sans-Serif" font-size="14.00">Flex</text>
</a>
</g>
</g>
<g id="clust12" class="cluster">
<title>clusternode_Set(29)</title>
<g id="a_clust12"><a xlink:title="Stack">
<path fill="#ffffff" fill-opacity="0.266667" stroke="#ffffff" stroke-width="2" stroke-opacity="0.313725" d="M72.5,-673C72.5,-673 181.5,-673 181.5,-673 187.5,-673 193.5,-679 193.5,-685 193.5,-685 193.5,-747 193.5,-747 193.5,-753 187.5,-759 181.5,-759 181.5,-759 72.5,-759 72.5,-759 66.5,-759 60.5,-753 60.5,-747 60.5,-747 60.5,-685 60.5,-685 60.5,-679 66.5,-673 72.5,-673"/>
<text text-anchor="middle" x="127" y="-743.8" font-family="Helvetica,sans-Serif" font-size="14.00">Stack</text>
</a>
</g>
</g>
<g id="clust13" class="cluster">
<title>clusternode_Set(31)</title>
<g id="a_clust13"><a xlink:title="AddClusters">
<path fill="#ffffff" fill-opacity="0.266667" stroke="#ffffff" stroke-width="2" stroke-opacity="0.313725" d="M544.5,-8C544.5,-8 629.5,-8 629.5,-8 635.5,-8 641.5,-14 641.5,-20 641.5,-20 641.5,-82 641.5,-82 641.5,-88 635.5,-94 629.5,-94 629.5,-94 544.5,-94 544.5,-94 538.5,-94 532.5,-88 532.5,-82 532.5,-82 532.5,-20 532.5,-20 532.5,-14 538.5,-8 544.5,-8"/>
<text text-anchor="middle" x="587" y="-78.8" font-family="Helvetica,sans-Serif" font-size="14.00">AddClusters</text>
</a>
</g>
</g>
<g id="clust14" class="cluster">
<title>clusternode_Set(32)</title>
<g id="a_clust14"><a xlink:title="AddClustersFlush">
<path fill="#ffffff" fill-opacity="0.266667" stroke="#ffffff" stroke-width="2" stroke-opacity="0.313725" d="M816,-94C816,-94 955,-94 955,-94 961,-94 967,-100 967,-106 967,-106 967,-168 967,-168 967,-174 961,-180 955,-180 955,-180 816,-180 816,-180 810,-180 804,-174 804,-168 804,-168 804,-106 804,-106 804,-100 810,-94 816,-94"/>
<text text-anchor="middle" x="885.5" y="-164.8" font-family="Helvetica,sans-Serif" font-size="14.00">AddClustersFlush</text>
</a>
</g>
</g>
<g id="clust15" class="cluster">
<title>clusternode_Set(33)</title>
<g id="a_clust15"><a xlink:title="AssignLightsToClusters">
<path fill="#ffffff" fill-opacity="0.266667" stroke="#ffffff" stroke-width="2" stroke-opacity="0.313725" d="M1054,-210C1054,-210 1213,-210 1213,-210 1219,-210 1225,-216 1225,-222 1225,-222 1225,-284 1225,-284 1225,-290 1219,-296 1213,-296 1213,-296 1054,-296 1054,-296 1048,-296 1042,-290 1042,-284 1042,-284 1042,-222 1042,-222 1042,-216 1048,-210 1054,-210"/>
<text text-anchor="middle" x="1133.5" y="-280.8" font-family="Helvetica,sans-Serif" font-size="14.00">AssignLightsToClusters</text>
</a>
</g>
</g>
<g id="clust16" class="cluster">
<title>clusternode_Set(37)</title>
<g id="a_clust16"><a xlink:title="UpdateDirectionalLightCascades">
<path fill="#ffffff" fill-opacity="0.266667" stroke="#ffffff" stroke-width="2" stroke-opacity="0.313725" d="M777.5,-324C777.5,-324 993.5,-324 993.5,-324 999.5,-324 1005.5,-330 1005.5,-336 1005.5,-336 1005.5,-398 1005.5,-398 1005.5,-404 999.5,-410 993.5,-410 993.5,-410 777.5,-410 777.5,-410 771.5,-410 765.5,-404 765.5,-398 765.5,-398 765.5,-336 765.5,-336 765.5,-330 771.5,-324 777.5,-324"/>
<text text-anchor="middle" x="885.5" y="-394.8" font-family="Helvetica,sans-Serif" font-size="14.00">UpdateDirectionalLightCascades</text>
</a>
</g>
</g>
<g id="clust17" class="cluster">
<title>clusternode_Set(39)</title>
<g id="a_clust17"><a xlink:title="UpdateLightFrusta">
<path fill="#ffffff" fill-opacity="0.266667" stroke="#ffffff" stroke-width="2" stroke-opacity="0.313725" d="M1258,-285C1258,-285 1450,-285 1450,-285 1456,-285 1462,-291 1462,-297 1462,-297 1462,-453 1462,-453 1462,-459 1456,-465 1450,-465 1450,-465 1258,-465 1258,-465 1252,-465 1246,-459 1246,-453 1246,-453 1246,-297 1246,-297 1246,-291 1252,-285 1258,-285"/>
<text text-anchor="middle" x="1354" y="-449.8" font-family="Helvetica,sans-Serif" font-size="14.00">UpdateLightFrusta</text>
</a>
</g>
</g>
<g id="clust18" class="cluster">
<title>clusternode_Set(43)</title>
<g id="a_clust18"><a xlink:title="CheckLightVisibility">
<path fill="#ffffff" fill-opacity="0.266667" stroke="#ffffff" stroke-width="2" stroke-opacity="0.313725" d="M1495,-471C1495,-471 1666,-471 1666,-471 1672,-471 1678,-477 1678,-483 1678,-483 1678,-545 1678,-545 1678,-551 1672,-557 1666,-557 1666,-557 1495,-557 1495,-557 1489,-557 1483,-551 1483,-545 1483,-545 1483,-483 1483,-483 1483,-477 1489,-471 1495,-471"/>
<text text-anchor="middle" x="1580.5" y="-541.8" font-family="Helvetica,sans-Serif" font-size="14.00">CheckLightVisibility</text>
</a>
</g>
</g>
<!-- set_marker_node_Set(1) -->
<!-- node_System(8) -->
<g id="node14" class="node">
<title>node_System(8)</title>
<g id="a_node14"><a xlink:title="bevy_render::view::visibility::update_frusta&lt;bevy_render::camera::projection::OrthographicProjection&gt;">
<polygon fill="#70b9fc" stroke="#0c88f9" points="1013,-787 758,-787 758,-751 1013,-751 1013,-787"/>
<text text-anchor="middle" x="885.5" y="-765.3" font-family="Helvetica,sans-Serif" font-size="14.00" fill="#011a31">update_frusta&lt;OrthographicProjection&gt;</text>
</a>
</g>
</g>
<!-- set_marker_node_Set(1)&#45;&gt;node_System(8) -->
<g id="edge3" class="edge">
<title>set_marker_node_Set(1)&#45;&gt;node_System(8)</title>
<g id="a_edge3"><a xlink:title="TransformPropagate → update_frusta&lt;OrthographicProjection&gt;">
<path fill="none" stroke="#00b0cc" stroke-width="2" d="M679.5,-326.25C703.95,-326.98 724.82,-328.86 729,-333 736.98,-340.91 742.81,-728.37 750,-737 751.64,-738.97 753.38,-740.83 755.21,-742.59"/>
<polygon fill="#00b0cc" stroke="#00b0cc" stroke-width="2" points="753.04,-745.96 763,-749.55 757.45,-740.53 753.04,-745.96"/>
</a>
</g>
</g>
<!-- node_System(9) -->
<g id="node16" class="node">
<title>node_System(9)</title>
<g id="a_node16"><a xlink:title="bevy_render::view::visibility::update_frusta&lt;bevy_render::camera::projection::PerspectiveProjection&gt;">
<polygon fill="#70b9fc" stroke="#0c88f9" points="1009,-505 762,-505 762,-469 1009,-469 1009,-505"/>
<text text-anchor="middle" x="885.5" y="-483.3" font-family="Helvetica,sans-Serif" font-size="14.00" fill="#011a31">update_frusta&lt;PerspectiveProjection&gt;</text>
</a>
</g>
</g>
<!-- set_marker_node_Set(1)&#45;&gt;node_System(9) -->
<g id="edge5" class="edge">
<title>set_marker_node_Set(1)&#45;&gt;node_System(9)</title>
<g id="a_edge5"><a xlink:title="TransformPropagate → update_frusta&lt;PerspectiveProjection&gt;">
<path fill="none" stroke="#44d488" stroke-width="2" d="M679.5,-326.33C703.92,-327.07 724.76,-328.93 729,-333 748.46,-351.69 721.31,-433.63 739,-454 742.63,-458.18 746.67,-461.89 751.02,-465.19"/>
<polygon fill="#44d488" stroke="#44d488" stroke-width="2" points="749.41,-468.62 759.71,-471.13 753.23,-462.75 749.41,-468.62"/>
</a>
</g>
</g>
<!-- node_System(10) -->
<g id="node18" class="node">
<title>node_System(10)</title>
<g id="a_node18"><a xlink:title="bevy_render::view::visibility::update_frusta&lt;bevy_render::camera::projection::Projection&gt;">
<polygon fill="#70b9fc" stroke="#0c88f9" points="973.5,-693 797.5,-693 797.5,-657 973.5,-657 973.5,-693"/>
<text text-anchor="middle" x="885.5" y="-671.3" font-family="Helvetica,sans-Serif" font-size="14.00" fill="#011a31">update_frusta&lt;Projection&gt;</text>
</a>
</g>
</g>
<!-- set_marker_node_Set(1)&#45;&gt;node_System(10) -->
<g id="edge7" class="edge">
<title>set_marker_node_Set(1)&#45;&gt;node_System(10)</title>
<g id="a_edge7"><a xlink:title="TransformPropagate → update_frusta&lt;Projection&gt;">
<path fill="none" stroke="#ee9e44" stroke-width="2" d="M679.5,-326.29C703.93,-327.03 724.79,-328.9 729,-333 735.18,-339.03 744.42,-636.41 750,-643 759.3,-653.98 771.61,-661.57 785.02,-666.76"/>
<polygon fill="#ee9e44" stroke="#ee9e44" stroke-width="2" points="784.45,-670.92 795.05,-670.73 786.65,-664.27 784.45,-670.92"/>
</a>
</g>
</g>
<!-- node_System(12) -->
<g id="node22" class="node">
<title>node_System(12)</title>
<g id="a_node22"><a xlink:title="bevy_render::view::visibility::check_visibility">
<polygon fill="#70b9fc" stroke="#0c88f9" points="1187,-534 1080,-534 1080,-498 1187,-498 1187,-534"/>
<text text-anchor="middle" x="1133.5" y="-512.3" font-family="Helvetica,sans-Serif" font-size="14.00" fill="#011a31">check_visibility</text>
</a>
</g>
</g>
<!-- set_marker_node_Set(1)&#45;&gt;node_System(12) -->
<g id="edge13" class="edge">
<title>set_marker_node_Set(1)&#45;&gt;node_System(12)</title>
<g id="a_edge13"><a xlink:title="TransformPropagate → check_visibility">
<path fill="none" stroke="#881877" stroke-width="2" d="M679.5,-326.38C703.9,-327.12 724.73,-328.97 729,-333 745.08,-348.17 723.32,-416.41 739,-432 783.63,-476.4 960.57,-441.36 1021,-459 1046.06,-466.32 1072.15,-479.31 1092.78,-491.05"/>
<polygon fill="#881877" stroke="#881877" stroke-width="2" points="1091.55,-494.55 1101.95,-496.58 1095.08,-488.51 1091.55,-494.55"/>
</a>
</g>
</g>
<!-- node_System(21) -->
<g id="node32" class="node">
<title>node_System(21)</title>
<g id="a_node32"><a xlink:title="bevy_pbr::light::assign_lights_to_clusters">
<polygon fill="#abd5fc" stroke="#48a3f8" points="1217,-265 1050,-265 1050,-229 1217,-229 1217,-265"/>
<text text-anchor="middle" x="1133.5" y="-243.3" font-family="Helvetica,sans-Serif" font-size="14.00" fill="#011a31">assign_lights_to_clusters</text>
</a>
</g>
</g>
<!-- set_marker_node_Set(1)&#45;&gt;node_System(21) -->
<g id="edge20" class="edge">
<title>set_marker_node_Set(1)&#45;&gt;node_System(21)</title>
<g id="a_edge20"><a xlink:title="TransformPropagate → assign_lights_to_clusters">
<path fill="none" stroke="#3363bb" stroke-width="2" d="M679.5,-332.26C701.3,-331.64 720.67,-328.9 729,-322 745.31,-308.48 733.45,-242.23 750,-229 792.66,-194.9 938.11,-211.98 1036.84,-228.6"/>
<polygon fill="#3363bb" stroke="#3363bb" stroke-width="2" points="1037.1,-232.54 1047.54,-230.78 1038.28,-225.64 1037.1,-232.54"/>
</a>
</g>
</g>
<!-- node_System(22) -->
<g id="node34" class="node">
<title>node_System(22)</title>
<g id="a_node34"><a xlink:title="bevy_pbr::light::update_directional_light_cascades">
<polygon fill="#abd5fc" stroke="#48a3f8" points="997.5,-368 773.5,-368 773.5,-332 997.5,-332 997.5,-368"/>
<text text-anchor="middle" x="885.5" y="-346.3" font-family="Helvetica,sans-Serif" font-size="14.00" fill="#011a31">update_directional_light_cascades</text>
</a>
</g>
</g>
<!-- set_marker_node_Set(1)&#45;&gt;node_System(22) -->
<g id="edge23" class="edge">
<title>set_marker_node_Set(1)&#45;&gt;node_System(22)</title>
<g id="a_edge23"><a xlink:title="TransformPropagate → update_directional_light_cascades">
<path fill="none" stroke="#eede00" stroke-width="2" d="M679.5,-330.01C695.99,-330.8 713.01,-331.79 729,-333 739.2,-333.77 749.77,-334.69 760.38,-335.69"/>
<polygon fill="#eede00" stroke="#eede00" stroke-width="2" points="760.02,-339.46 770.31,-336.94 760.69,-332.49 760.02,-339.46"/>
</a>
</g>
</g>
<!-- node_System(23) -->
<g id="node36" class="node">
<title>node_System(23)</title>
<g id="a_node36"><a xlink:title="bevy_pbr::light::update_directional_light_frusta">
<polygon fill="#abd5fc" stroke="#48a3f8" points="1454,-423 1254,-423 1254,-387 1454,-387 1454,-423"/>
<text text-anchor="middle" x="1354" y="-401.3" font-family="Helvetica,sans-Serif" font-size="14.00" fill="#011a31">update_directional_light_frusta</text>
</a>
</g>
</g>
<!-- set_marker_node_Set(1)&#45;&gt;node_System(23) -->
<g id="edge26" class="edge">
<title>set_marker_node_Set(1)&#45;&gt;node_System(23)</title>
<g id="a_edge26"><a xlink:title="TransformPropagate → update_directional_light_frusta">
<path fill="none" stroke="#aa3a55" stroke-width="2" d="M679.5,-332.55C701.4,-331.95 720.83,-329.15 729,-322 739,-313.24 736.61,-276.08 739,-263 743.56,-238.05 730.41,-223.11 750,-207 770.38,-190.23 1205.3,-190.45 1225,-208 1280.21,-257.19 1202.23,-317.92 1245.85,-379.36"/>
<polygon fill="#aa3a55" stroke="#aa3a55" stroke-width="2" points="1243.89,-381.7 1252.94,-387.22 1249.3,-377.27 1243.89,-381.7"/>
</a>
</g>
</g>
<!-- node_System(24) -->
<g id="node37" class="node">
<title>node_System(24)</title>
<g id="a_node37"><a xlink:title="bevy_pbr::light::update_point_light_frusta">
<polygon fill="#abd5fc" stroke="#48a3f8" points="1438,-376 1270,-376 1270,-340 1438,-340 1438,-376"/>
<text text-anchor="middle" x="1354" y="-354.3" font-family="Helvetica,sans-Serif" font-size="14.00" fill="#011a31">update_point_light_frusta</text>
</a>
</g>
</g>
<!-- set_marker_node_Set(1)&#45;&gt;node_System(24) -->
<g id="edge28" class="edge">
<title>set_marker_node_Set(1)&#45;&gt;node_System(24)</title>
<g id="a_edge28"><a xlink:title="TransformPropagate → update_point_light_frusta">
<path fill="none" stroke="#0090cc" stroke-width="2" d="M679.5,-322.63C701.24,-323.42 720.58,-326.24 729,-333 757.32,-355.75 721.2,-389.85 750,-412 797.74,-448.71 960.97,-416.85 1021,-412 1101.11,-405.53 1191.04,-390.41 1257.08,-377.81"/>
<polygon fill="#0090cc" stroke="#0090cc" stroke-width="2" points="1258.38,-380.74 1267.54,-375.41 1257.06,-373.86 1258.38,-380.74"/>
</a>
</g>
</g>
<!-- node_System(25) -->
<g id="node38" class="node">
<title>node_System(25)</title>
<g id="a_node38"><a xlink:title="bevy_pbr::light::update_spot_light_frusta">
<polygon fill="#abd5fc" stroke="#48a3f8" points="1436,-329 1272,-329 1272,-293 1436,-293 1436,-329"/>
<text text-anchor="middle" x="1354" y="-307.3" font-family="Helvetica,sans-Serif" font-size="14.00" fill="#011a31">update_spot_light_frusta</text>
</a>
</g>
</g>
<!-- set_marker_node_Set(1)&#45;&gt;node_System(25) -->
<g id="edge30" class="edge">
<title>set_marker_node_Set(1)&#45;&gt;node_System(25)</title>
<g id="a_edge30"><a xlink:title="TransformPropagate → update_spot_light_frusta">
<path fill="none" stroke="#663699" stroke-width="2" d="M679.5,-323.97C702.51,-323.27 727.16,-322.56 750,-322 929.84,-317.58 1139.89,-314.14 1258.59,-312.35"/>
<polygon fill="#663699" stroke="#663699" stroke-width="2" points="1258.61,-315.81 1268.55,-312.16 1258.5,-308.81 1258.61,-315.81"/>
</a>
</g>
</g>
<!-- node_System(26) -->
<g id="node40" class="node">
<title>node_System(26)</title>
<g id="a_node40"><a xlink:title="bevy_pbr::light::check_light_mesh_visibility">
<polygon fill="#abd5fc" stroke="#48a3f8" points="1670,-515 1491,-515 1491,-479 1670,-479 1670,-515"/>
<text text-anchor="middle" x="1580.5" y="-493.3" font-family="Helvetica,sans-Serif" font-size="14.00" fill="#011a31">check_light_mesh_visibility</text>
</a>
</g>
</g>
<!-- set_marker_node_Set(1)&#45;&gt;node_System(26) -->
<g id="edge33" class="edge">
<title>set_marker_node_Set(1)&#45;&gt;node_System(26)</title>
<g id="a_edge33"><a xlink:title="TransformPropagate → check_light_mesh_visibility">
<path fill="none" stroke="#99d955" stroke-width="2" d="M679.5,-328.31C703.9,-327.75 724.74,-326.03 729,-322 733.66,-317.59 745.46,-96.53 750,-92 792.48,-49.61 824.48,-80 884.5,-80 884.5,-80 884.5,-80 1355,-80 1530.15,-80 1569.26,-368.74 1577.45,-465.69"/>
<polygon fill="#99d955" stroke="#99d955" stroke-width="2" points="1574.19,-465.84 1578.45,-475.54 1581.17,-465.3 1574.19,-465.84"/>
</a>
</g>
</g>
<!-- node_System(18) -->
<g id="node45" class="node">
<title>node_System(18)</title>
<g id="a_node45"><a xlink:title="bevy_ui::update::update_clipping_system">
<polygon fill="lightgrey" stroke="black" points="959.5,-270 811.5,-270 811.5,-234 959.5,-234 959.5,-270"/>
<text text-anchor="middle" x="885.5" y="-248.3" font-family="Times,serif" font-size="14.00">update_clipping_system</text>
</a>
</g>
</g>
<!-- set_marker_node_Set(1)&#45;&gt;node_System(18) -->
<g id="edge17" class="edge">
<title>set_marker_node_Set(1)&#45;&gt;node_System(18)</title>
<g id="a_edge17"><a xlink:title="TransformPropagate → update_clipping_system">
<path fill="none" stroke="#0090cc" stroke-width="2" d="M679.5,-330.93C700.9,-330.24 720.06,-327.81 729,-322 731.23,-320.55 747.9,-280.62 750,-279 764.03,-268.17 781.28,-261.35 798.68,-257.13"/>
<polygon fill="#0090cc" stroke="#0090cc" stroke-width="2" points="800.25,-259.97 809.33,-254.5 798.83,-253.11 800.25,-259.97"/>
</a>
</g>
</g>
<!-- set_marker_node_Set(0) -->
<!-- node_System(1) -->
<g id="node3" class="node">
<title>node_System(1)</title>
<g id="a_node3"><a xlink:title="bevy_transform::systems::propagate_transforms">
<polygon fill="#ffe7b9" stroke="#ffc453" points="661.5,-379 512.5,-379 512.5,-343 661.5,-343 661.5,-379"/>
<text text-anchor="middle" x="587" y="-357.3" font-family="Helvetica,sans-Serif" font-size="14.00" fill="#322100">propagate_transforms</text>
</a>
</g>
</g>
<!-- node_System(0) -->
<g id="node4" class="node">
<title>node_System(0)</title>
<g id="a_node4"><a xlink:title="bevy_transform::systems::sync_simple_transforms">
<polygon fill="#ffe7b9" stroke="#ffc453" points="668,-316 506,-316 506,-280 668,-280 668,-316"/>
<text text-anchor="middle" x="587" y="-294.3" font-family="Helvetica,sans-Serif" font-size="14.00" fill="#322100">sync_simple_transforms</text>
</a>
</g>
</g>
<!-- set_marker_node_Set(6) -->
<!-- set_marker_node_Set(6)&#45;&gt;node_System(21) -->
<g id="edge22" class="edge">
<title>set_marker_node_Set(6)&#45;&gt;node_System(21)</title>
<g id="a_edge22"><a xlink:title="CameraUpdateSystem → assign_lights_to_clusters">
<path fill="none" stroke="#99d955" stroke-width="2" d="M630.07,-478C661.99,-469.71 704.44,-453.51 729,-423 743.38,-405.14 733.49,-337.91 750,-322 837.96,-237.22 901.55,-301.62 1021,-276 1031.4,-273.77 1042.29,-271.21 1053.02,-268.56"/>
<polygon fill="#99d955" stroke="#99d955" stroke-width="2" points="1054.66,-271.26 1063.51,-265.42 1052.96,-264.47 1054.66,-271.26"/>
</a>
</g>
</g>
<!-- set_marker_node_Set(6)&#45;&gt;node_System(22) -->
<g id="edge24" class="edge">
<title>set_marker_node_Set(6)&#45;&gt;node_System(22)</title>
<g id="a_edge24"><a xlink:title="CameraUpdateSystem → update_directional_light_cascades">
<path fill="none" stroke="#881877" stroke-width="2" d="M623.43,-478C654.8,-469.27 700,-452.45 729,-423 745.63,-406.12 731.45,-388.74 750,-374 753.59,-371.15 757.41,-368.59 761.39,-366.3"/>
<polygon fill="#881877" stroke="#881877" stroke-width="2" points="763.63,-369.1 771.03,-361.52 760.52,-362.83 763.63,-369.1"/>
</a>
</g>
</g>
<!-- node_System(3) -->
<g id="node6" class="node">
<title>node_System(3)</title>
<g id="a_node6"><a xlink:title="bevy_render::camera::camera::camera_system&lt;bevy_render::camera::projection::Projection&gt;">
<polygon fill="#70b9fc" stroke="#0c88f9" points="681.5,-580 492.5,-580 492.5,-544 681.5,-544 681.5,-580"/>
<text text-anchor="middle" x="587" y="-558.3" font-family="Helvetica,sans-Serif" font-size="14.00" fill="#011a31">camera_system&lt;Projection&gt;</text>
</a>
</g>
</g>
<!-- node_System(3)&#45;&gt;node_System(10) -->
<g id="edge6" class="edge">
<title>node_System(3)&#45;&gt;node_System(10)</title>
<g id="a_edge6"><a xlink:title="SystemTypeSet(camera_system&lt;Projection&gt;&quot;) → update_frusta&lt;Projection&gt;">
<path fill="none" stroke="#0090cc" stroke-width="2" d="M681.96,-564.01C699.03,-568.07 715.63,-574.89 729,-586 749.77,-603.25 729.8,-625.08 750,-643 760,-651.87 772.02,-658.4 784.7,-663.18"/>
<polygon fill="#0090cc" stroke="#0090cc" stroke-width="2" points="784.42,-667.44 795.02,-667.25 786.62,-660.79 784.42,-667.44"/>
</a>
</g>
</g>
<!-- node_System(4) -->
<g id="node7" class="node">
<title>node_System(4)</title>
<g id="a_node7"><a xlink:title="bevy_render::camera::camera::camera_system&lt;bevy_render::camera::projection::OrthographicProjection&gt;">
<polygon fill="#70b9fc" stroke="#0c88f9" points="721,-627 453,-627 453,-591 721,-591 721,-627"/>
<text text-anchor="middle" x="587" y="-605.3" font-family="Helvetica,sans-Serif" font-size="14.00" fill="#011a31">camera_system&lt;OrthographicProjection&gt;</text>
</a>
</g>
</g>
<!-- node_System(4)&#45;&gt;node_System(8) -->
<g id="edge2" class="edge">
<title>node_System(4)&#45;&gt;node_System(8)</title>
<g id="a_edge2"><a xlink:title="SystemTypeSet(camera_system&lt;OrthographicProjection&gt;&quot;) → update_frusta&lt;OrthographicProjection&gt;">
<path fill="none" stroke="#881877" stroke-width="2" d="M605.61,-627.31C633.55,-655.28 690.97,-708.4 750,-737 757.32,-740.54 765.05,-743.71 772.96,-746.54"/>
<polygon fill="#881877" stroke="#881877" stroke-width="2" points="772.49,-750.73 783.08,-750.57 774.7,-744.09 772.49,-750.73"/>
</a>
</g>
</g>
<!-- node_System(5) -->
<g id="node8" class="node">
<title>node_System(5)</title>
<g id="a_node8"><a xlink:title="bevy_render::camera::camera::camera_system&lt;bevy_render::camera::projection::PerspectiveProjection&gt;">
<polygon fill="#70b9fc" stroke="#0c88f9" points="717,-533 457,-533 457,-497 717,-497 717,-533"/>
<text text-anchor="middle" x="587" y="-511.3" font-family="Helvetica,sans-Serif" font-size="14.00" fill="#011a31">camera_system&lt;PerspectiveProjection&gt;</text>
</a>
</g>
</g>
<!-- node_System(5)&#45;&gt;node_System(9) -->
<g id="edge4" class="edge">
<title>node_System(5)&#45;&gt;node_System(9)</title>
<g id="a_edge4"><a xlink:title="SystemTypeSet(camera_system&lt;PerspectiveProjection&gt;&quot;) → update_frusta&lt;PerspectiveProjection&gt;">
<path fill="none" stroke="#aa3a55" stroke-width="2" d="M717.19,-502.8C727.73,-501.8 738.4,-500.8 748.98,-499.8"/>
<polygon fill="#aa3a55" stroke="#aa3a55" stroke-width="2" points="749.21,-503.01 758.83,-498.58 748.55,-496.04 749.21,-503.01"/>
</a>
</g>
</g>
<!-- set_marker_node_Set(10) -->
<!-- set_marker_node_Set(10)&#45;&gt;node_System(12) -->
<g id="edge8" class="edge">
<title>set_marker_node_Set(10)&#45;&gt;node_System(12)</title>
<g id="a_edge8"><a xlink:title="CalculateBoundsFlush → check_visibility">
<path fill="none" stroke="#663699" stroke-width="2" d="M967,-906.81C986.94,-906.07 1006.67,-900.89 1021,-887 1033.95,-874.44 1030.9,-743.01 1032,-725 1033.25,-704.45 1029.01,-555.97 1042,-540 1048.64,-531.84 1057.7,-526.27 1067.53,-522.51"/>
<polygon fill="#663699" stroke="#663699" stroke-width="2" points="1069.27,-525.03 1077.81,-518.76 1067.22,-518.33 1069.27,-525.03"/>
</a>
</g>
</g>
<!-- set_marker_node_Set(10)&#45;&gt;node_System(26) -->
<g id="edge32" class="edge">
<title>set_marker_node_Set(10)&#45;&gt;node_System(26)</title>
<g id="a_edge32"><a xlink:title="CalculateBoundsFlush → check_light_mesh_visibility">
<path fill="none" stroke="#22c2bb" stroke-width="2" d="M967,-897.23C985.18,-896.17 1004.1,-893.24 1021,-887 1082.44,-864.32 1424.23,-549.89 1483,-521 1483.39,-520.81 1483.79,-520.62 1484.18,-520.43"/>
<polygon fill="#22c2bb" stroke="#22c2bb" stroke-width="2" points="1486.24,-523.49 1494.04,-516.32 1483.47,-517.06 1486.24,-523.49"/>
</a>
</g>
</g>
<!-- node_System(6) -->
<g id="node10" class="node">
<title>node_System(6)</title>
<g id="a_node10"><a xlink:title="bevy_ecs::schedule::executor::apply_system_buffers">
<polygon fill="#e70000" stroke="#5a0000" stroke-width="2" points="959,-881 812,-881 812,-845 959,-845 959,-881"/>
<text text-anchor="middle" x="885.5" y="-859.3" font-family="Helvetica,sans-Serif" font-size="14.00" fill="#ffffff">apply_system_buffers</text>
</a>
</g>
</g>
<!-- set_marker_node_Set(11) -->
<!-- set_marker_node_Set(11)&#45;&gt;set_marker_node_Set(10) -->
<g id="edge1" class="edge">
<title>set_marker_node_Set(11)&#45;&gt;set_marker_node_Set(10)</title>
<g id="a_edge1"><a xlink:title="CalculateBounds → CalculateBoundsFlush">
<path fill="none" stroke="#eede00" stroke-width="2" d="M656,-892C696.03,-892 747.24,-892 791.03,-892"/>
<polygon fill="#eede00" stroke="#eede00" stroke-width="2" points="791,-895.5 801,-892 791,-888.5 791,-895.5"/>
</a>
</g>
</g>
<!-- node_System(7) -->
<g id="node12" class="node">
<title>node_System(7)</title>
<g id="a_node12"><a xlink:title="bevy_render::view::visibility::calculate_bounds">
<polygon fill="#70b9fc" stroke="#0c88f9" points="648,-881 526,-881 526,-845 648,-845 648,-881"/>
<text text-anchor="middle" x="587" y="-859.3" font-family="Helvetica,sans-Serif" font-size="14.00" fill="#011a31">calculate_bounds</text>
</a>
</g>
</g>
<!-- set_marker_node_Set(14) -->
<!-- set_marker_node_Set(14)&#45;&gt;node_System(12) -->
<g id="edge9" class="edge">
<title>set_marker_node_Set(14)&#45;&gt;node_System(12)</title>
<g id="a_edge9"><a xlink:title="UpdateOrthographicFrusta → check_visibility">
<path fill="none" stroke="#3363bb" stroke-width="2" d="M1021,-793C1041.4,-773.51 1023.89,-561.63 1042,-540 1048.68,-532.03 1057.67,-526.54 1067.41,-522.79"/>
<polygon fill="#3363bb" stroke="#3363bb" stroke-width="2" points="1069.02,-525.34 1077.54,-519.04 1066.95,-518.65 1069.02,-525.34"/>
</a>
</g>
</g>
<!-- set_marker_node_Set(17) -->
<!-- set_marker_node_Set(17)&#45;&gt;node_System(12) -->
<g id="edge10" class="edge">
<title>set_marker_node_Set(17)&#45;&gt;node_System(12)</title>
<g id="a_edge10"><a xlink:title="UpdatePerspectiveFrusta → check_visibility">
<path fill="none" stroke="#22c2bb" stroke-width="2" d="M1017,-516C1034.32,-516 1051.43,-516 1066.97,-516"/>
<polygon fill="#22c2bb" stroke="#22c2bb" stroke-width="2" points="1066.55,-519.5 1076.55,-516 1066.55,-512.5 1066.55,-519.5"/>
</a>
</g>
</g>
<!-- set_marker_node_Set(18) -->
<!-- set_marker_node_Set(18)&#45;&gt;node_System(12) -->
<g id="edge11" class="edge">
<title>set_marker_node_Set(18)&#45;&gt;node_System(12)</title>
<g id="a_edge11"><a xlink:title="UpdateProjectionFrusta → check_visibility">
<path fill="none" stroke="#99d955" stroke-width="2" d="M981.5,-716.74C996.12,-714.37 1009.98,-709.02 1021,-699 1034.18,-687.01 1030.23,-553.38 1042,-540 1048.87,-532.19 1057.96,-526.79 1067.73,-523.07"/>
<polygon fill="#99d955" stroke="#99d955" stroke-width="2" points="1069.35,-525.62 1077.88,-519.33 1067.29,-518.93 1069.35,-525.62"/>
</a>
</g>
</g>
<!-- set_marker_node_Set(20) -->
<!-- set_marker_node_Set(20)&#45;&gt;node_System(12) -->
<g id="edge12" class="edge">
<title>set_marker_node_Set(20)&#45;&gt;node_System(12)</title>
<g id="a_edge12"><a xlink:title="VisibilityPropagate → check_visibility">
<path fill="none" stroke="#eede00" stroke-width="2" d="M984.5,-620.24C997.68,-617.79 1010.32,-613.08 1021,-605 1045.21,-586.68 1019.97,-560.89 1042,-540 1049.22,-533.16 1058.15,-528.22 1067.57,-524.66"/>
<polygon fill="#eede00" stroke="#eede00" stroke-width="2" points="1069.18,-527.19 1077.67,-520.85 1067.08,-520.51 1069.18,-527.19"/>
</a>
</g>
</g>
<!-- node_System(11) -->
<g id="node20" class="node">
<title>node_System(11)</title>
<g id="a_node20"><a xlink:title="bevy_render::view::visibility::visibility_propagate_system">
<polygon fill="#70b9fc" stroke="#0c88f9" points="976.5,-599 794.5,-599 794.5,-563 976.5,-563 976.5,-599"/>
<text text-anchor="middle" x="885.5" y="-577.3" font-family="Helvetica,sans-Serif" font-size="14.00" fill="#011a31">visibility_propagate_system</text>
</a>
</g>
</g>
<!-- set_marker_node_Set(22) -->
<!-- set_marker_node_Set(22)&#45;&gt;node_System(21) -->
<g id="edge21" class="edge">
<title>set_marker_node_Set(22)&#45;&gt;node_System(21)</title>
<g id="a_edge21"><a xlink:title="CheckVisibility → assign_lights_to_clusters">
<path fill="none" stroke="#22c2bb" stroke-width="2" d="M1072,-554.85C1055.54,-553.81 1039.98,-548.52 1031.5,-534.5 1004.2,-489.38 1081.11,-340.45 1116.61,-276.55"/>
<polygon fill="#22c2bb" stroke="#22c2bb" stroke-width="2" points="1120.08,-277.74 1121.92,-267.3 1113.98,-274.31 1120.08,-277.74"/>
</a>
</g>
</g>
<!-- set_marker_node_Set(22)&#45;&gt;node_System(23) -->
<g id="edge25" class="edge">
<title>set_marker_node_Set(22)&#45;&gt;node_System(23)</title>
<g id="a_edge25"><a xlink:title="CheckVisibility → update_directional_light_frusta">
<path fill="none" stroke="#00b0cc" stroke-width="2" d="M1195,-552.45C1206.01,-550.99 1216.64,-547.32 1225,-540 1233.08,-532.92 1236.32,-463.33 1247.36,-433.49"/>
<polygon fill="#00b0cc" stroke="#00b0cc" stroke-width="2" points="1250.83,-434.7 1252.69,-424.27 1244.73,-431.26 1250.83,-434.7"/>
</a>
</g>
</g>
<!-- set_marker_node_Set(22)&#45;&gt;node_System(26) -->
<g id="edge35" class="edge">
<title>set_marker_node_Set(22)&#45;&gt;node_System(26)</title>
<g id="a_edge35"><a xlink:title="CheckVisibility → check_light_mesh_visibility">
<path fill="none" stroke="#881877" stroke-width="2" d="M1195,-542.21C1205.03,-541.59 1215.31,-540.85 1225,-540 1310.64,-532.45 1407.52,-520.46 1478.33,-511.06"/>
<polygon fill="#881877" stroke="#881877" stroke-width="2" points="1478.35,-514.19 1487.8,-509.39 1477.42,-507.25 1478.35,-514.19"/>
</a>
</g>
</g>
<!-- set_marker_node_Set(25) -->
<!-- node_System(16) -->
<g id="node24" class="node">
<title>node_System(16)</title>
<g id="a_node24"><a xlink:title="bevy_ui::flex::flex_node_system">
<polygon fill="#ffb1e5" stroke="#ff4bc2" points="416,-386 291,-386 291,-350 416,-350 416,-386"/>
<text text-anchor="middle" x="353.5" y="-364.3" font-family="Helvetica,sans-Serif" font-size="14.00" fill="#320021">flex_node_system</text>
</a>
</g>
</g>
<!-- node_System(16)&#45;&gt;set_marker_node_Set(1) -->
<g id="edge16" class="edge">
<title>node_System(16)&#45;&gt;set_marker_node_Set(1)</title>
<g id="a_edge16"><a xlink:title="flex_node_system → TransformPropagate">
<path fill="none" stroke="#44d488" stroke-width="2" d="M393.74,-349.61C409.35,-343.15 427.69,-336.61 445,-333 457.13,-330.47 469.96,-328.7 482.75,-327.5"/>
<polygon fill="#44d488" stroke="#44d488" stroke-width="2" points="482.81,-330.77 492.5,-326.48 482.25,-323.79 482.81,-330.77"/>
</a>
</g>
</g>
<!-- node_System(28) -->
<g id="node47" class="node">
<title>node_System(28)</title>
<g id="a_node47"><a xlink:title="bevy_animation::animation_player">
<polygon fill="lightgrey" stroke="black" points="408.5,-316 298.5,-316 298.5,-280 408.5,-280 408.5,-316"/>
<text text-anchor="middle" x="353.5" y="-294.3" font-family="Times,serif" font-size="14.00">animation_player</text>
</a>
</g>
</g>
<!-- node_System(16)&#45;&gt;node_System(28) -->
<g id="edge37" class="edge">
<title>node_System(16)&#45;&gt;node_System(28)</title>
<path fill="none" stroke="#c93526" stroke-width="2" d="M353.5,-349.97C353.5,-339.66 353.5,-326.76 353.5,-316.39"/>
<g id="a_edge37&#45;label"><a xlink:title="flex_node_system — animation_player">
<polygon fill="#c6e6ff" stroke="none" points="308,-323.5 308,-342.5 370,-342.5 370,-323.5 308,-323.5"/>
<text text-anchor="start" x="310" y="-329.3" font-family="Times,serif" font-size="14.00" fill="#c93526">Transform</text>
</a>
</g>
</g>
<!-- set_marker_node_Set(29) -->
<!-- node_System(17) -->
<g id="node26" class="node">
<title>node_System(17)</title>
<g id="a_node26"><a xlink:title="bevy_ui::stack::ui_stack_system">
<polygon fill="#ffb1e5" stroke="#ff4bc2" points="185.5,-717 68.5,-717 68.5,-681 185.5,-681 185.5,-717"/>
<text text-anchor="middle" x="127" y="-695.3" font-family="Helvetica,sans-Serif" font-size="14.00" fill="#320021">ui_stack_system</text>
</a>
</g>
</g>
<!-- set_marker_node_Set(31) -->
<!-- set_marker_node_Set(32) -->
<!-- set_marker_node_Set(31)&#45;&gt;set_marker_node_Set(32) -->
<g id="edge18" class="edge">
<title>set_marker_node_Set(31)&#45;&gt;set_marker_node_Set(32)</title>
<g id="a_edge18"><a xlink:title="AddClusters → AddClustersFlush">
<path fill="none" stroke="#ee9e44" stroke-width="2" d="M636.27,-94C667.41,-112.21 709.52,-133.65 750,-144 763.16,-147.37 777.28,-149.46 791.25,-150.69"/>
<polygon fill="#ee9e44" stroke="#ee9e44" stroke-width="2" points="790.78,-154.38 801,-151.58 791.27,-147.39 790.78,-154.38"/>
</a>
</g>
</g>
<!-- node_System(19) -->
<g id="node28" class="node">
<title>node_System(19)</title>
<g id="a_node28"><a xlink:title="bevy_pbr::light::add_clusters">
<polygon fill="#abd5fc" stroke="#48a3f8" points="633.5,-52 540.5,-52 540.5,-16 633.5,-16 633.5,-52"/>
<text text-anchor="middle" x="587" y="-30.3" font-family="Helvetica,sans-Serif" font-size="14.00" fill="#011a31">add_clusters</text>
</a>
</g>
</g>
<!-- set_marker_node_Set(33) -->
<!-- set_marker_node_Set(32)&#45;&gt;set_marker_node_Set(33) -->
<g id="edge19" class="edge">
<title>set_marker_node_Set(32)&#45;&gt;set_marker_node_Set(33)</title>
<g id="a_edge19"><a xlink:title="AddClustersFlush → AssignLightsToClusters">
<path fill="none" stroke="#663699" stroke-width="2" d="M967,-171.58C1008.78,-183.3 1058.02,-197.11 1091.87,-206.6"/>
<polygon fill="#663699" stroke="#663699" stroke-width="2" points="1091.41,-210.67 1101.98,-210 1093.3,-203.93 1091.41,-210.67"/>
</a>
</g>
</g>
<!-- node_System(20) -->
<g id="node30" class="node">
<title>node_System(20)</title>
<g id="a_node30"><a xlink:title="bevy_ecs::schedule::executor::apply_system_buffers">
<polygon fill="#e70000" stroke="#5a0000" stroke-width="2" points="959,-138 812,-138 812,-102 959,-102 959,-138"/>
<text text-anchor="middle" x="885.5" y="-116.3" font-family="Helvetica,sans-Serif" font-size="14.00" fill="#ffffff">apply_system_buffers</text>
</a>
</g>
</g>
<!-- set_marker_node_Set(33)&#45;&gt;node_System(24) -->
<g id="edge29" class="edge">
<title>set_marker_node_Set(33)&#45;&gt;node_System(24)</title>
<g id="a_edge29"><a xlink:title="AssignLightsToClusters → update_point_light_frusta">
<path fill="none" stroke="#ee9e44" stroke-width="2" d="M1225,-224C1262.58,-257.3 1210.94,-299.06 1246,-335 1249.63,-338.72 1253.7,-341.91 1258.08,-344.63"/>
<polygon fill="#ee9e44" stroke="#ee9e44" stroke-width="2" points="1257.04,-348.06 1267.54,-349.5 1260.23,-341.82 1257.04,-348.06"/>
</a>
</g>
</g>
<!-- set_marker_node_Set(33)&#45;&gt;node_System(25) -->
<g id="edge31" class="edge">
<title>set_marker_node_Set(33)&#45;&gt;node_System(25)</title>
<g id="a_edge31"><a xlink:title="AssignLightsToClusters → update_spot_light_frusta">
<path fill="none" stroke="#3363bb" stroke-width="2" d="M1225,-224C1262.57,-236.93 1299.44,-263.96 1323.89,-284.47"/>
<polygon fill="#3363bb" stroke="#3363bb" stroke-width="2" points="1321.71,-287.94 1331.57,-291.81 1326.28,-282.63 1321.71,-287.94"/>
</a>
</g>
</g>
<!-- set_marker_node_Set(37) -->
<!-- set_marker_node_Set(37)&#45;&gt;node_System(23) -->
<g id="edge27" class="edge">
<title>set_marker_node_Set(37)&#45;&gt;node_System(23)</title>
<g id="a_edge27"><a xlink:title="UpdateDirectionalLightCascades → update_directional_light_frusta">
<path fill="none" stroke="#44d488" stroke-width="2" d="M1005.5,-385.63C1077.85,-389.66 1169.68,-394.78 1240.77,-398.74"/>
<polygon fill="#44d488" stroke="#44d488" stroke-width="2" points="1240.54,-402.4 1250.72,-399.47 1240.93,-395.42 1240.54,-402.4"/>
</a>
</g>
</g>
<!-- set_marker_node_Set(39) -->
<!-- set_marker_node_Set(39)&#45;&gt;node_System(26) -->
<g id="edge34" class="edge">
<title>set_marker_node_Set(39)&#45;&gt;node_System(26)</title>
<g id="a_edge34"><a xlink:title="UpdateLightFrusta → check_light_mesh_visibility">
<path fill="none" stroke="#eede00" stroke-width="2" d="M1462,-464.03C1475.22,-467.74 1488.54,-471.48 1501.23,-475.03"/>
<polygon fill="#eede00" stroke="#eede00" stroke-width="2" points="1501.03,-479.18 1511.61,-478.51 1502.93,-472.44 1501.03,-479.18"/>
</a>
</g>
</g>
<!-- set_marker_node_Set(43) -->
<!-- node_System(2) -->
<g id="node41" class="node">
<title>node_System(2)</title>
<g id="a_node41"><a xlink:title="bevy_window::system::exit_on_all_closed">
<polygon fill="lightgrey" stroke="black" points="186.5,-803 67.5,-803 67.5,-767 186.5,-767 186.5,-803"/>
<text text-anchor="middle" x="127" y="-781.3" font-family="Times,serif" font-size="14.00">exit_on_all_closed</text>
</a>
</g>
</g>
<!-- node_System(13) -->
<g id="node42" class="node">
<title>node_System(13)</title>
<g id="a_node42"><a xlink:title="bevy_text::text2d::update_text2d_layout">
<polygon fill="lightgrey" stroke="black" points="193.5,-850 60.5,-850 60.5,-814 193.5,-814 193.5,-850"/>
<text text-anchor="middle" x="127" y="-828.3" font-family="Times,serif" font-size="14.00">update_text2d_layout</text>
</a>
</g>
</g>
<!-- node_System(14) -->
<g id="node43" class="node">
<title>node_System(14)</title>
<g id="a_node43"><a xlink:title="bevy_ui::widget::text::text_system">
<polygon fill="lightgrey" stroke="black" points="167.5,-438 86.5,-438 86.5,-402 167.5,-402 167.5,-438"/>
<text text-anchor="middle" x="127" y="-416.3" font-family="Times,serif" font-size="14.00">text_system</text>
</a>
</g>
</g>
<!-- node_System(14)&#45;&gt;set_marker_node_Set(25) -->
<g id="edge14" class="edge">
<title>node_System(14)&#45;&gt;set_marker_node_Set(25)</title>
<g id="a_edge14"><a xlink:title="text_system → Flex">
<path fill="none" stroke="#00b0cc" stroke-width="2" d="M167.88,-415.91C196.26,-413.01 235.41,-409 270.35,-405.42"/>
<polygon fill="#00b0cc" stroke="#00b0cc" stroke-width="2" points="270.41,-408.62 280,-404.12 269.7,-401.66 270.41,-408.62"/>
</a>
</g>
</g>
<!-- node_System(15) -->
<g id="node44" class="node">
<title>node_System(15)</title>
<g id="a_node44"><a xlink:title="bevy_ui::widget::image::update_image_calculated_size_system">
<polygon fill="lightgrey" stroke="black" points="240,-391 14,-391 14,-355 240,-355 240,-391"/>
<text text-anchor="middle" x="127" y="-369.3" font-family="Times,serif" font-size="14.00">update_image_calculated_size_system</text>
</a>
</g>
</g>
<!-- node_System(15)&#45;&gt;set_marker_node_Set(25) -->
<g id="edge15" class="edge">
<title>node_System(15)&#45;&gt;set_marker_node_Set(25)</title>
<g id="a_edge15"><a xlink:title="update_image_calculated_size_system → Flex">
<path fill="none" stroke="#aa3a55" stroke-width="2" d="M240.1,-387.42C250.13,-388.57 260.23,-389.68 270.13,-390.71"/>
<polygon fill="#aa3a55" stroke="#aa3a55" stroke-width="2" points="269.7,-394.48 280,-392 270.4,-387.52 269.7,-394.48"/>
</a>
</g>
</g>
<!-- node_System(27) -->
<g id="node46" class="node">
<title>node_System(27)</title>
<g id="a_node46"><a xlink:title="bevy_audio::audio_output::play_queued_audio_system&lt;bevy_audio::audio_source::AudioSource&gt;">
<polygon fill="lightgrey" stroke="black" points="254,-897 0,-897 0,-861 254,-861 254,-897"/>
<text text-anchor="middle" x="127" y="-875.3" font-family="Times,serif" font-size="14.00">play_queued_audio_system&lt;AudioSource&gt;</text>
</a>
</g>
</g>
<!-- node_System(28)&#45;&gt;set_marker_node_Set(1) -->
<g id="edge36" class="edge">
<title>node_System(28)&#45;&gt;set_marker_node_Set(1)</title>
<g id="a_edge36"><a xlink:title="animation_player → TransformPropagate">
<path fill="none" stroke="#00b0cc" stroke-width="2" d="M408.64,-314.47C420.52,-317.48 433.1,-320.23 445,-322 457.18,-323.81 470.02,-325.1 482.79,-326.01"/>
<polygon fill="#00b0cc" stroke="#00b0cc" stroke-width="2" points="482.31,-329.67 492.5,-326.79 482.74,-322.68 482.31,-329.67"/>
</a>
</g>
</g>
</g>
</svg>
