<?xml version="1.0" encoding="UTF-8" standalone="no"?>
<!DOCTYPE svg PUBLIC "-//W3C//DTD SVG 1.1//EN"
 "http://www.w3.org/Graphics/SVG/1.1/DTD/svg11.dtd">
<!-- Generated by graphviz version 8.0.1 (0)
 -->
<!-- Pages: 1 -->
<svg width="308pt" height="392pt"
 viewBox="0.00 0.00 308.00 392.00" xmlns="http://www.w3.org/2000/svg" xmlns:xlink="http://www.w3.org/1999/xlink">
<g id="graph0" class="graph" transform="scale(1 1) rotate(0) translate(4 388)">
<polygon fill="#0d1117" stroke="none" points="-4,4 -4,-388 304,-388 304,4 -4,4"/>
<g id="clust1" class="cluster">
<title>clusternode_Set(1)</title>
<g id="a_clust1"><a xlink:title="TransformPropagate">
<path fill="#ffffff" fill-opacity="0.266667" stroke="#ffffff" stroke-width="2" stroke-opacity="0.313725" d="M70.5,-8C70.5,-8 230.5,-8 230.5,-8 236.5,-8 242.5,-14 242.5,-20 242.5,-20 242.5,-176 242.5,-176 242.5,-182 236.5,-188 230.5,-188 230.5,-188 70.5,-188 70.5,-188 64.5,-188 58.5,-182 58.5,-176 58.5,-176 58.5,-20 58.5,-20 58.5,-14 64.5,-8 70.5,-8"/>
<text text-anchor="middle" x="150.5" y="-172.8" font-family="Helvetica,sans-Serif" font-size="14.00">TransformPropagate</text>
</a>
</g>
</g>
<g id="clust2" class="cluster">
<title>clusternode_Set(0)</title>
<g id="a_clust2"><a xlink:title="PropagateTransformsSet">
<path fill="#ffffff" fill-opacity="0.266667" stroke="#ffffff" stroke-width="2" stroke-opacity="0.313725" d="M78.5,-71C78.5,-71 222.5,-71 222.5,-71 228.5,-71 234.5,-77 234.5,-83 234.5,-83 234.5,-145 234.5,-145 234.5,-151 228.5,-157 222.5,-157 222.5,-157 78.5,-157 78.5,-157 72.5,-157 66.5,-151 66.5,-145 66.5,-145 66.5,-83 66.5,-83 66.5,-77 72.5,-71 78.5,-71"/>
<text text-anchor="middle" x="150.5" y="-141.8" font-family="Helvetica,sans-Serif" font-size="14.00">PropagateTransformsSet</text>
</a>
</g>
</g>
<g id="clust3" class="cluster">
<title>clusternode_Set(5)</title>
<g id="a_clust3"><a xlink:title="CameraUpdateSystem">
<path fill="#ffffff" fill-opacity="0.266667" stroke="#ffffff" stroke-width="2" stroke-opacity="0.313725" d="M20,-196C20,-196 280,-196 280,-196 286,-196 292,-202 292,-208 292,-208 292,-364 292,-364 292,-370 286,-376 280,-376 280,-376 20,-376 20,-376 14,-376 8,-370 8,-364 8,-364 8,-208 8,-208 8,-202 14,-196 20,-196"/>
<text text-anchor="middle" x="150" y="-360.8" font-family="Helvetica,sans-Serif" font-size="14.00">CameraUpdateSystem</text>
</a>
</g>
</g>
<!-- set_marker_node_Set(1) -->
<!-- set_marker_node_Set(0) -->
<!-- node_System(1) -->
<g id="node3" class="node">
<title>node_System(1)</title>
<g id="a_node3"><a xlink:title="bevy_transform::systems::propagate_transforms">
<polygon fill="#ffe7b9" stroke="#ffc453" points="224.5,-115 75.5,-115 75.5,-79 224.5,-79 224.5,-115"/>
<text text-anchor="middle" x="150" y="-93.3" font-family="Helvetica,sans-Serif" font-size="14.00" fill="#322100">propagate_transforms</text>
</a>
</g>
</g>
<!-- node_System(0) -->
<g id="node4" class="node">
<title>node_System(0)</title>
<g id="a_node4"><a xlink:title="bevy_transform::systems::sync_simple_transforms">
<polygon fill="#ffe7b9" stroke="#ffc453" points="231,-52 69,-52 69,-16 231,-16 231,-52"/>
<text text-anchor="middle" x="150" y="-30.3" font-family="Helvetica,sans-Serif" font-size="14.00" fill="#322100">sync_simple_transforms</text>
</a>
</g>
</g>
<!-- set_marker_node_Set(5) -->
<!-- node_System(2) -->
<g id="node6" class="node">
<title>node_System(2)</title>
<g id="a_node6"><a xlink:title="bevy_render::camera::camera::camera_system&lt;bevy_render::camera::projection::Projection&gt;">
<polygon fill="#70b9fc" stroke="#0c88f9" points="244.5,-334 55.5,-334 55.5,-298 244.5,-298 244.5,-334"/>
<text text-anchor="middle" x="150" y="-312.3" font-family="Helvetica,sans-Serif" font-size="14.00" fill="#011a31">camera_system&lt;Projection&gt;</text>
</a>
</g>
</g>
<!-- node_System(3) -->
<g id="node7" class="node">
<title>node_System(3)</title>
<g id="a_node7"><a xlink:title="bevy_render::camera::camera::camera_system&lt;bevy_render::camera::projection::OrthographicProjection&gt;">
<polygon fill="#70b9fc" stroke="#0c88f9" points="284,-287 16,-287 16,-251 284,-251 284,-287"/>
<text text-anchor="middle" x="150" y="-265.3" font-family="Helvetica,sans-Serif" font-size="14.00" fill="#011a31">camera_system&lt;OrthographicProjection&gt;</text>
</a>
</g>
</g>
<!-- node_System(4) -->
<g id="node8" class="node">
<title>node_System(4)</title>
<g id="a_node8"><a xlink:title="bevy_render::camera::camera::camera_system&lt;bevy_render::camera::projection::PerspectiveProjection&gt;">
<polygon fill="#70b9fc" stroke="#0c88f9" points="280,-240 20,-240 20,-204 280,-204 280,-240"/>
<text text-anchor="middle" x="150" y="-218.3" font-family="Helvetica,sans-Serif" font-size="14.00" fill="#011a31">camera_system&lt;PerspectiveProjection&gt;</text>
</a>
</g>
</g>
</g>
</svg>
