<?xml version="1.0" encoding="UTF-8" standalone="no"?>
<!DOCTYPE svg PUBLIC "-//W3C//DTD SVG 1.1//EN"
 "http://www.w3.org/Graphics/SVG/1.1/DTD/svg11.dtd">
<!-- Generated by graphviz version 8.0.1 (0)
 -->
<!-- Pages: 1 -->
<svg width="390pt" height="690pt"
 viewBox="0.00 0.00 390.00 690.00" xmlns="http://www.w3.org/2000/svg" xmlns:xlink="http://www.w3.org/1999/xlink">
<g id="graph0" class="graph" transform="scale(1 1) rotate(0) translate(4 686)">
<polygon fill="white" stroke="none" points="-4,4 -4,-686 386,-686 386,4 -4,4"/>
<!-- node_System(0) -->
<g id="node1" class="node">
<title>node_System(0)</title>
<g id="a_node1"><a xlink:title="bevy_window::system::close_when_requested">
<polygon fill="lightgrey" stroke="black" points="349,-36 210,-36 210,0 349,0 349,-36"/>
<text text-anchor="middle" x="279.5" y="-14.3" font-family="Times,serif" font-size="14.00">close_when_requested</text>
</a>
</g>
</g>
<!-- node_System(1) -->
<g id="node2" class="node">
<title>node_System(1)</title>
<g id="a_node2"><a xlink:title="bevy_scene::scene_spawner::scene_spawner_system">
<polygon fill="lightgrey" stroke="black" points="350.5,-83 208.5,-83 208.5,-47 350.5,-47 350.5,-83"/>
<text text-anchor="middle" x="279.5" y="-61.3" font-family="Times,serif" font-size="14.00">scene_spawner_system</text>
</a>
</g>
</g>
<!-- node_System(2) -->
<g id="node3" class="node">
<title>node_System(2)</title>
<g id="a_node3"><a xlink:title="bevy_winit::accessibility::handle_window_focus">
<polygon fill="lightgrey" stroke="black" points="349,-635 210,-635 210,-599 349,-599 349,-635"/>
<text text-anchor="middle" x="279.5" y="-613.3" font-family="Times,serif" font-size="14.00">handle_window_focus</text>
</a>
</g>
</g>
<!-- node_System(3) -->
<g id="node4" class="node">
<title>node_System(3)</title>
<g id="a_node4"><a xlink:title="bevy_winit::accessibility::window_closed">
<polygon fill="lightgrey" stroke="black" points="330,-565 229,-565 229,-529 330,-529 330,-565"/>
<text text-anchor="middle" x="279.5" y="-543.3" font-family="Times,serif" font-size="14.00">window_closed</text>
</a>
</g>
</g>
<!-- node_System(3)&#45;&gt;node_System(2) -->
<g id="edge1" class="edge">
<title>node_System(3)&#45;&gt;node_System(2)</title>
<path fill="none" stroke="#c93526" stroke-width="2" d="M279.5,-565.39C279.5,-575.76 279.5,-588.66 279.5,-598.97"/>
<g id="a_edge1&#45;label"><a xlink:title="window_closed — handle_window_focus">
<polygon fill="#d3d3d3" stroke="none" points="210.5,-572.5 210.5,-591.5 319.5,-591.5 319.5,-572.5 210.5,-572.5"/>
<text text-anchor="start" x="212.5" y="-578.3" font-family="Times,serif" font-size="14.00" fill="#c93526">AccessKitAdapters</text>
</a>
</g>
</g>
<!-- node_System(4) -->
<g id="node5" class="node">
<title>node_System(4)</title>
<g id="a_node5"><a xlink:title="bevy_winit::accessibility::poll_receivers">
<polygon fill="lightgrey" stroke="black" points="325.5,-495 233.5,-495 233.5,-459 325.5,-459 325.5,-495"/>
<text text-anchor="middle" x="279.5" y="-473.3" font-family="Times,serif" font-size="14.00">poll_receivers</text>
</a>
</g>
</g>
<!-- node_System(4)&#45;&gt;node_System(3) -->
<g id="edge2" class="edge">
<title>node_System(4)&#45;&gt;node_System(3)</title>
<path fill="none" stroke="#c93526" stroke-width="2" d="M279.5,-495.39C279.5,-505.76 279.5,-518.66 279.5,-528.97"/>
<g id="a_edge2&#45;label"><a xlink:title="poll_receivers — window_closed">
<polygon fill="#d3d3d3" stroke="none" points="204,-502.5 204,-521.5 326,-521.5 326,-502.5 204,-502.5"/>
<text text-anchor="start" x="206" y="-508.3" font-family="Times,serif" font-size="14.00" fill="#c93526">WinitActionHandlers</text>
</a>
</g>
</g>
<!-- node_System(5) -->
<g id="node6" class="node">
<title>node_System(5)</title>
<g id="a_node6"><a xlink:title="bevy_winit::accessibility::update_accessibility_nodes">
<polygon fill="lightgrey" stroke="black" points="361.5,-448 197.5,-448 197.5,-412 361.5,-412 361.5,-448"/>
<text text-anchor="middle" x="279.5" y="-426.3" font-family="Times,serif" font-size="14.00">update_accessibility_nodes</text>
</a>
</g>
</g>
<!-- node_System(5)&#45;&gt;node_System(3) -->
<g id="edge3" class="edge">
<title>node_System(5)&#45;&gt;node_System(3)</title>
<path fill="none" stroke="#c93526" stroke-width="2" d="M197.19,-426.11C153.91,-428.9 104.04,-440.72 75.5,-476.5 32.74,-530.11 155.36,-543.1 228.76,-546.15"/>
<g id="a_edge3&#45;label"><a xlink:title="update_accessibility_nodes — window_closed">
<polygon fill="#d3d3d3" stroke="none" points="48,-478.5 48,-497.5 157,-497.5 157,-478.5 48,-478.5"/>
<text text-anchor="start" x="50" y="-484.3" font-family="Times,serif" font-size="14.00" fill="#c93526">AccessKitAdapters</text>
</a>
</g>
</g>
<!-- node_System(6) -->
<g id="node7" class="node">
<title>node_System(6)</title>
<g id="a_node7"><a xlink:title="bevy_ui::accessibility::calc_bounds">
<polygon fill="lightgrey" stroke="black" points="321.5,-378 237.5,-378 237.5,-342 321.5,-342 321.5,-378"/>
<text text-anchor="middle" x="279.5" y="-356.3" font-family="Times,serif" font-size="14.00">calc_bounds</text>
</a>
</g>
</g>
<!-- node_System(5)&#45;&gt;node_System(6) -->
<g id="edge4" class="edge">
<title>node_System(5)&#45;&gt;node_System(6)</title>
<path fill="none" stroke="#c93526" stroke-width="2" d="M279.5,-411.97C279.5,-401.66 279.5,-388.76 279.5,-378.39"/>
<g id="a_edge4&#45;label"><a xlink:title="update_accessibility_nodes — calc_bounds">
<polygon fill="#d3d3d3" stroke="none" points="212.5,-385.5 212.5,-404.5 317.5,-404.5 317.5,-385.5 212.5,-385.5"/>
<text text-anchor="start" x="214.5" y="-391.3" font-family="Times,serif" font-size="14.00" fill="#c93526">AccessibilityNode</text>
</a>
</g>
</g>
<!-- node_System(7) -->
<g id="node8" class="node">
<title>node_System(7)</title>
<g id="a_node8"><a xlink:title="bevy_ui::accessibility::button_changed">
<polygon fill="lightgrey" stroke="black" points="331,-270 228,-270 228,-234 331,-234 331,-270"/>
<text text-anchor="middle" x="279.5" y="-248.3" font-family="Times,serif" font-size="14.00">button_changed</text>
</a>
</g>
</g>
<!-- node_System(5)&#45;&gt;node_System(7) -->
<g id="edge5" class="edge">
<title>node_System(5)&#45;&gt;node_System(7)</title>
<path fill="none" stroke="#c93526" stroke-width="2" d="M215.61,-411.56C139.24,-386.42 27.64,-337.89 77.5,-280.5 113.74,-238.79 180.82,-237.33 227.7,-242.56"/>
<g id="a_edge5&#45;label"><a xlink:title="update_accessibility_nodes — button_changed">
<polygon fill="#d3d3d3" stroke="none" points="50,-282.5 50,-301.5 155,-301.5 155,-282.5 50,-282.5"/>
<text text-anchor="start" x="52" y="-288.3" font-family="Times,serif" font-size="14.00" fill="#c93526">AccessibilityNode</text>
</a>
</g>
</g>
<!-- node_System(8) -->
<g id="node9" class="node">
<title>node_System(8)</title>
<g id="a_node9"><a xlink:title="bevy_ui::accessibility::image_changed">
<polygon fill="lightgrey" stroke="black" points="330,-200 229,-200 229,-164 330,-164 330,-200"/>
<text text-anchor="middle" x="279.5" y="-178.3" font-family="Times,serif" font-size="14.00">image_changed</text>
</a>
</g>
</g>
<!-- node_System(5)&#45;&gt;node_System(8) -->
<g id="edge6" class="edge">
<title>node_System(5)&#45;&gt;node_System(8)</title>
<path fill="none" stroke="#c93526" stroke-width="2" d="M197.08,-426.36C154.07,-419.75 104.85,-403.77 77.5,-366.5 25.58,-295.76 153.81,-231.03 229.2,-200.48"/>
<g id="a_edge6&#45;label"><a xlink:title="update_accessibility_nodes — image_changed">
<polygon fill="#d3d3d3" stroke="none" points="50,-345.5 50,-364.5 155,-364.5 155,-345.5 50,-345.5"/>
<text text-anchor="start" x="52" y="-351.3" font-family="Times,serif" font-size="14.00" fill="#c93526">AccessibilityNode</text>
</a>
</g>
</g>
<!-- node_System(9) -->
<g id="node10" class="node">
<title>node_System(9)</title>
<g id="a_node10"><a xlink:title="bevy_ui::accessibility::label_changed">
<polygon fill="lightgrey" stroke="black" points="327,-130 232,-130 232,-94 327,-94 327,-130"/>
<text text-anchor="middle" x="279.5" y="-108.3" font-family="Times,serif" font-size="14.00">label_changed</text>
</a>
</g>
</g>
<!-- node_System(5)&#45;&gt;node_System(9) -->
<g id="edge7" class="edge">
<title>node_System(5)&#45;&gt;node_System(9)</title>
<path fill="none" stroke="#c93526" stroke-width="2" d="M197.06,-439.73C154.74,-439.77 106.18,-431.16 77.5,-397.5 2.75,-309.76 95.13,-239.14 177,-158 192.03,-143.1 212.73,-132.57 231.6,-125.38"/>
<g id="a_edge7&#45;label"><a xlink:title="update_accessibility_nodes — label_changed">
<polygon fill="#d3d3d3" stroke="none" points="50,-376.5 50,-395.5 155,-395.5 155,-376.5 50,-376.5"/>
<text text-anchor="start" x="52" y="-382.3" font-family="Times,serif" font-size="14.00" fill="#c93526">AccessibilityNode</text>
</a>
</g>
</g>
<!-- node_System(7)&#45;&gt;node_System(6) -->
<g id="edge8" class="edge">
<title>node_System(7)&#45;&gt;node_System(6)</title>
<path fill="none" stroke="#c93526" stroke-width="2" d="M279.5,-270.32C279.5,-290.18 279.5,-321.69 279.5,-341.59"/>
<g id="a_edge8&#45;label"><a xlink:title="button_changed — calc_bounds">
<polygon fill="#d3d3d3" stroke="none" points="212.5,-296.5 212.5,-315.5 317.5,-315.5 317.5,-296.5 212.5,-296.5"/>
<text text-anchor="start" x="214.5" y="-302.3" font-family="Times,serif" font-size="14.00" fill="#c93526">AccessibilityNode</text>
</a>
</g>
</g>
<!-- node_System(7)&#45;&gt;node_System(8) -->
<g id="edge9" class="edge">
<title>node_System(7)&#45;&gt;node_System(8)</title>
<path fill="none" stroke="#c93526" stroke-width="2" d="M279.5,-233.97C279.5,-223.66 279.5,-210.76 279.5,-200.39"/>
<g id="a_edge9&#45;label"><a xlink:title="button_changed — image_changed">
<polygon fill="#d3d3d3" stroke="none" points="212.5,-207.5 212.5,-226.5 317.5,-226.5 317.5,-207.5 212.5,-207.5"/>
<text text-anchor="start" x="214.5" y="-213.3" font-family="Times,serif" font-size="14.00" fill="#c93526">AccessibilityNode</text>
</a>
</g>
</g>
<!-- node_System(8)&#45;&gt;node_System(6) -->
<g id="edge10" class="edge">
<title>node_System(8)&#45;&gt;node_System(6)</title>
<path fill="none" stroke="#c93526" stroke-width="2" d="M228.68,-196.25C152.93,-219.9 24.71,-270.73 77.5,-331.5 116.29,-376.15 190.43,-374.67 237.3,-368.25"/>
<g id="a_edge10&#45;label"><a xlink:title="image_changed — calc_bounds">
<polygon fill="#d3d3d3" stroke="none" points="50,-310.5 50,-329.5 155,-329.5 155,-310.5 50,-310.5"/>
<text text-anchor="start" x="52" y="-316.3" font-family="Times,serif" font-size="14.00" fill="#c93526">AccessibilityNode</text>
</a>
</g>
</g>
<!-- node_System(9)&#45;&gt;node_System(6) -->
<g id="edge11" class="edge">
<title>node_System(9)&#45;&gt;node_System(6)</title>
<path fill="none" stroke="#c93526" stroke-width="2" d="M231.89,-105.16C184.7,-101.38 114.29,-104.47 77.5,-148.5 14.67,-223.7 161.39,-305.73 237.4,-341.54"/>
<g id="a_edge11&#45;label"><a xlink:title="label_changed — calc_bounds">
<polygon fill="#d3d3d3" stroke="none" points="50,-150.5 50,-169.5 155,-169.5 155,-150.5 50,-150.5"/>
<text text-anchor="start" x="52" y="-156.3" font-family="Times,serif" font-size="14.00" fill="#c93526">AccessibilityNode</text>
</a>
</g>
</g>
<!-- node_System(9)&#45;&gt;node_System(7) -->
<g id="edge12" class="edge">
<title>node_System(9)&#45;&gt;node_System(7)</title>
<path fill="none" stroke="#c93526" stroke-width="2" d="M231.61,-118.41C158.09,-130.18 30.57,-159.33 77.5,-215.5 113.26,-258.3 180.79,-262.41 227.88,-259.14"/>
<g id="a_edge12&#45;label"><a xlink:title="label_changed — button_changed">
<polygon fill="#d3d3d3" stroke="none" points="50,-194.5 50,-213.5 155,-213.5 155,-194.5 50,-194.5"/>
<text text-anchor="start" x="52" y="-200.3" font-family="Times,serif" font-size="14.00" fill="#c93526">AccessibilityNode</text>
</a>
</g>
</g>
<!-- node_System(9)&#45;&gt;node_System(8) -->
<g id="edge13" class="edge">
<title>node_System(9)&#45;&gt;node_System(8)</title>
<path fill="none" stroke="#c93526" stroke-width="2" d="M279.5,-130.39C279.5,-140.76 279.5,-153.66 279.5,-163.97"/>
<g id="a_edge13&#45;label"><a xlink:title="label_changed — image_changed">
<polygon fill="#d3d3d3" stroke="none" points="212.5,-137.5 212.5,-156.5 317.5,-156.5 317.5,-137.5 212.5,-137.5"/>
<text text-anchor="start" x="214.5" y="-143.3" font-family="Times,serif" font-size="14.00" fill="#c93526">AccessibilityNode</text>
</a>
</g>
</g>
<!-- node_System(10) -->
<g id="node11" class="node">
<title>node_System(10)</title>
<g id="a_node11"><a xlink:title="bevy_pbr::prepass::update_previous_view_projections">
<polygon fill="lightgrey" stroke="black" points="382,-682 177,-682 177,-646 382,-646 382,-682"/>
<text text-anchor="middle" x="279.5" y="-660.3" font-family="Times,serif" font-size="14.00">update_previous_view_projections</text>
</a>
</g>
</g>
</g>
</svg>
