<?xml version="1.0" encoding="UTF-8" standalone="no"?>
<!DOCTYPE svg PUBLIC "-//W3C//DTD SVG 1.1//EN"
 "http://www.w3.org/Graphics/SVG/1.1/DTD/svg11.dtd">
<!-- Generated by graphviz version 8.0.1 (0)
 -->
<!-- Pages: 1 -->
<svg width="404pt" height="2261pt"
 viewBox="0.00 0.00 404.00 2261.00" xmlns="http://www.w3.org/2000/svg" xmlns:xlink="http://www.w3.org/1999/xlink">
<g id="graph0" class="graph" transform="scale(1 1) rotate(0) translate(4 2257)">
<polygon fill="white" stroke="none" points="-4,4 -4,-2257 400,-2257 400,4 -4,4"/>
<g id="clust1" class="cluster">
<title>clusternode_Set(2)</title>
<g id="a_clust1"><a xlink:title="TimeSystem">
<path fill="#000000" fill-opacity="0.031373" stroke="#000000" stroke-width="2" stroke-opacity="0.250980" d="M156,-8C156,-8 240,-8 240,-8 246,-8 252,-14 252,-20 252,-20 252,-82 252,-82 252,-88 246,-94 240,-94 240,-94 156,-94 156,-94 150,-94 144,-88 144,-82 144,-82 144,-20 144,-20 144,-14 150,-8 156,-8"/>
<text text-anchor="middle" x="198" y="-78.8" font-family="Helvetica,sans-Serif" font-size="14.00">TimeSystem</text>
</a>
</g>
</g>
<!-- set_marker_node_Set(2) -->
<!-- node_System(1) -->
<g id="node2" class="node">
<title>node_System(1)</title>
<g id="a_node2"><a xlink:title="bevy_time::time_system">
<polygon fill="#c7ddbd" stroke="#8dba79" points="244,-52 152,-52 152,-16 244,-16 244,-52"/>
<text text-anchor="middle" x="198" y="-30.3" font-family="Helvetica,sans-Serif" font-size="14.00" fill="#162111">time_system</text>
</a>
</g>
</g>
<!-- node_System(0) -->
<g id="node3" class="node">
<title>node_System(0)</title>
<g id="a_node3"><a xlink:title="bevy_ecs::event::Events&lt;bevy_app::app::AppExit&gt;::update_system">
<polygon fill="lightgrey" stroke="black" points="295.5,-138 100.5,-138 100.5,-102 295.5,-102 295.5,-138"/>
<text text-anchor="middle" x="198" y="-116.3" font-family="Times,serif" font-size="14.00">Events&lt;AppExit&gt;update_system</text>
</a>
</g>
</g>
<!-- node_System(2) -->
<g id="node4" class="node">
<title>node_System(2)</title>
<g id="a_node4"><a xlink:title="bevy_ecs::event::Events&lt;bevy_hierarchy::events::HierarchyEvent&gt;::update_system">
<polygon fill="lightgrey" stroke="black" points="315,-185 81,-185 81,-149 315,-149 315,-185"/>
<text text-anchor="middle" x="198" y="-163.3" font-family="Times,serif" font-size="14.00">Events&lt;HierarchyEvent&gt;update_system</text>
</a>
</g>
</g>
<!-- node_System(3) -->
<g id="node5" class="node">
<title>node_System(3)</title>
<g id="a_node5"><a xlink:title="bevy_ecs::event::Events&lt;bevy_input::keyboard::KeyboardInput&gt;::update_system">
<polygon fill="lightgrey" stroke="black" points="313.5,-232 82.5,-232 82.5,-196 313.5,-196 313.5,-232"/>
<text text-anchor="middle" x="198" y="-210.3" font-family="Times,serif" font-size="14.00">Events&lt;KeyboardInput&gt;update_system</text>
</a>
</g>
</g>
<!-- node_System(4) -->
<g id="node6" class="node">
<title>node_System(4)</title>
<g id="a_node6"><a xlink:title="bevy_ecs::event::Events&lt;bevy_input::mouse::MouseButtonInput&gt;::update_system">
<polygon fill="lightgrey" stroke="black" points="323.5,-279 72.5,-279 72.5,-243 323.5,-243 323.5,-279"/>
<text text-anchor="middle" x="198" y="-257.3" font-family="Times,serif" font-size="14.00">Events&lt;MouseButtonInput&gt;update_system</text>
</a>
</g>
</g>
<!-- node_System(5) -->
<g id="node7" class="node">
<title>node_System(5)</title>
<g id="a_node7"><a xlink:title="bevy_ecs::event::Events&lt;bevy_input::mouse::MouseMotion&gt;::update_system">
<polygon fill="lightgrey" stroke="black" points="311,-326 85,-326 85,-290 311,-290 311,-326"/>
<text text-anchor="middle" x="198" y="-304.3" font-family="Times,serif" font-size="14.00">Events&lt;MouseMotion&gt;update_system</text>
</a>
</g>
</g>
<!-- node_System(6) -->
<g id="node8" class="node">
<title>node_System(6)</title>
<g id="a_node8"><a xlink:title="bevy_ecs::event::Events&lt;bevy_input::mouse::MouseWheel&gt;::update_system">
<polygon fill="lightgrey" stroke="black" points="309,-373 87,-373 87,-337 309,-337 309,-373"/>
<text text-anchor="middle" x="198" y="-351.3" font-family="Times,serif" font-size="14.00">Events&lt;MouseWheel&gt;update_system</text>
</a>
</g>
</g>
<!-- node_System(7) -->
<g id="node9" class="node">
<title>node_System(7)</title>
<g id="a_node9"><a xlink:title="bevy_ecs::event::Events&lt;bevy_input::gamepad::GamepadConnectionEvent&gt;::update_system">
<polygon fill="lightgrey" stroke="black" points="345.5,-420 50.5,-420 50.5,-384 345.5,-384 345.5,-420"/>
<text text-anchor="middle" x="198" y="-398.3" font-family="Times,serif" font-size="14.00">Events&lt;GamepadConnectionEvent&gt;update_system</text>
</a>
</g>
</g>
<!-- node_System(8) -->
<g id="node10" class="node">
<title>node_System(8)</title>
<g id="a_node10"><a xlink:title="bevy_ecs::event::Events&lt;bevy_input::gamepad::GamepadButtonChangedEvent&gt;::update_system">
<polygon fill="lightgrey" stroke="black" points="356.5,-467 39.5,-467 39.5,-431 356.5,-431 356.5,-467"/>
<text text-anchor="middle" x="198" y="-445.3" font-family="Times,serif" font-size="14.00">Events&lt;GamepadButtonChangedEvent&gt;update_system</text>
</a>
</g>
</g>
<!-- node_System(9) -->
<g id="node11" class="node">
<title>node_System(9)</title>
<g id="a_node11"><a xlink:title="bevy_ecs::event::Events&lt;bevy_input::gamepad::GamepadAxisChangedEvent&gt;::update_system">
<polygon fill="lightgrey" stroke="black" points="351,-514 45,-514 45,-478 351,-478 351,-514"/>
<text text-anchor="middle" x="198" y="-492.3" font-family="Times,serif" font-size="14.00">Events&lt;GamepadAxisChangedEvent&gt;update_system</text>
</a>
</g>
</g>
<!-- node_System(10) -->
<g id="node12" class="node">
<title>node_System(10)</title>
<g id="a_node12"><a xlink:title="bevy_ecs::event::Events&lt;bevy_input::gamepad::GamepadEvent&gt;::update_system">
<polygon fill="lightgrey" stroke="black" points="314,-561 82,-561 82,-525 314,-525 314,-561"/>
<text text-anchor="middle" x="198" y="-539.3" font-family="Times,serif" font-size="14.00">Events&lt;GamepadEvent&gt;update_system</text>
</a>
</g>
</g>
<!-- node_System(11) -->
<g id="node13" class="node">
<title>node_System(11)</title>
<g id="a_node13"><a xlink:title="bevy_ecs::event::Events&lt;bevy_input::touch::TouchInput&gt;::update_system">
<polygon fill="lightgrey" stroke="black" points="304,-608 92,-608 92,-572 304,-572 304,-608"/>
<text text-anchor="middle" x="198" y="-586.3" font-family="Times,serif" font-size="14.00">Events&lt;TouchInput&gt;update_system</text>
</a>
</g>
</g>
<!-- node_System(12) -->
<g id="node14" class="node">
<title>node_System(12)</title>
<g id="a_node14"><a xlink:title="bevy_ecs::event::Events&lt;bevy_window::event::WindowResized&gt;::update_system">
<polygon fill="lightgrey" stroke="black" points="317.5,-655 78.5,-655 78.5,-619 317.5,-619 317.5,-655"/>
<text text-anchor="middle" x="198" y="-633.3" font-family="Times,serif" font-size="14.00">Events&lt;WindowResized&gt;update_system</text>
</a>
</g>
</g>
<!-- node_System(13) -->
<g id="node15" class="node">
<title>node_System(13)</title>
<g id="a_node15"><a xlink:title="bevy_ecs::event::Events&lt;bevy_window::event::WindowCreated&gt;::update_system">
<polygon fill="lightgrey" stroke="black" points="317.5,-702 78.5,-702 78.5,-666 317.5,-666 317.5,-702"/>
<text text-anchor="middle" x="198" y="-680.3" font-family="Times,serif" font-size="14.00">Events&lt;WindowCreated&gt;update_system</text>
</a>
</g>
</g>
<!-- node_System(14) -->
<g id="node16" class="node">
<title>node_System(14)</title>
<g id="a_node16"><a xlink:title="bevy_ecs::event::Events&lt;bevy_window::event::WindowClosed&gt;::update_system">
<polygon fill="lightgrey" stroke="black" points="315.5,-749 80.5,-749 80.5,-713 315.5,-713 315.5,-749"/>
<text text-anchor="middle" x="198" y="-727.3" font-family="Times,serif" font-size="14.00">Events&lt;WindowClosed&gt;update_system</text>
</a>
</g>
</g>
<!-- node_System(15) -->
<g id="node17" class="node">
<title>node_System(15)</title>
<g id="a_node17"><a xlink:title="bevy_ecs::event::Events&lt;bevy_window::event::WindowCloseRequested&gt;::update_system">
<polygon fill="lightgrey" stroke="black" points="340,-796 56,-796 56,-760 340,-760 340,-796"/>
<text text-anchor="middle" x="198" y="-774.3" font-family="Times,serif" font-size="14.00">Events&lt;WindowCloseRequested&gt;update_system</text>
</a>
</g>
</g>
<!-- node_System(16) -->
<g id="node18" class="node">
<title>node_System(16)</title>
<g id="a_node18"><a xlink:title="bevy_ecs::event::Events&lt;bevy_window::event::RequestRedraw&gt;::update_system">
<polygon fill="lightgrey" stroke="black" points="315.5,-843 80.5,-843 80.5,-807 315.5,-807 315.5,-843"/>
<text text-anchor="middle" x="198" y="-821.3" font-family="Times,serif" font-size="14.00">Events&lt;RequestRedraw&gt;update_system</text>
</a>
</g>
</g>
<!-- node_System(17) -->
<g id="node19" class="node">
<title>node_System(17)</title>
<g id="a_node19"><a xlink:title="bevy_ecs::event::Events&lt;bevy_window::event::CursorMoved&gt;::update_system">
<polygon fill="lightgrey" stroke="black" points="310,-890 86,-890 86,-854 310,-854 310,-890"/>
<text text-anchor="middle" x="198" y="-868.3" font-family="Times,serif" font-size="14.00">Events&lt;CursorMoved&gt;update_system</text>
</a>
</g>
</g>
<!-- node_System(18) -->
<g id="node20" class="node">
<title>node_System(18)</title>
<g id="a_node20"><a xlink:title="bevy_ecs::event::Events&lt;bevy_window::event::CursorEntered&gt;::update_system">
<polygon fill="lightgrey" stroke="black" points="312.5,-937 83.5,-937 83.5,-901 312.5,-901 312.5,-937"/>
<text text-anchor="middle" x="198" y="-915.3" font-family="Times,serif" font-size="14.00">Events&lt;CursorEntered&gt;update_system</text>
</a>
</g>
</g>
<!-- node_System(19) -->
<g id="node21" class="node">
<title>node_System(19)</title>
<g id="a_node21"><a xlink:title="bevy_ecs::event::Events&lt;bevy_window::event::CursorLeft&gt;::update_system">
<polygon fill="lightgrey" stroke="black" points="302.5,-984 93.5,-984 93.5,-948 302.5,-948 302.5,-984"/>
<text text-anchor="middle" x="198" y="-962.3" font-family="Times,serif" font-size="14.00">Events&lt;CursorLeft&gt;update_system</text>
</a>
</g>
</g>
<!-- node_System(20) -->
<g id="node22" class="node">
<title>node_System(20)</title>
<g id="a_node22"><a xlink:title="bevy_ecs::event::Events&lt;bevy_window::event::ReceivedCharacter&gt;::update_system">
<polygon fill="lightgrey" stroke="black" points="324,-1031 72,-1031 72,-995 324,-995 324,-1031"/>
<text text-anchor="middle" x="198" y="-1009.3" font-family="Times,serif" font-size="14.00">Events&lt;ReceivedCharacter&gt;update_system</text>
</a>
</g>
</g>
<!-- node_System(21) -->
<g id="node23" class="node">
<title>node_System(21)</title>
<g id="a_node23"><a xlink:title="bevy_ecs::event::Events&lt;bevy_window::event::Ime&gt;::update_system">
<polygon fill="lightgrey" stroke="black" points="283,-1078 113,-1078 113,-1042 283,-1042 283,-1078"/>
<text text-anchor="middle" x="198" y="-1056.3" font-family="Times,serif" font-size="14.00">Events&lt;Ime&gt;update_system</text>
</a>
</g>
</g>
<!-- node_System(22) -->
<g id="node24" class="node">
<title>node_System(22)</title>
<g id="a_node24"><a xlink:title="bevy_ecs::event::Events&lt;bevy_window::event::WindowFocused&gt;::update_system">
<polygon fill="lightgrey" stroke="black" points="319,-1125 77,-1125 77,-1089 319,-1089 319,-1125"/>
<text text-anchor="middle" x="198" y="-1103.3" font-family="Times,serif" font-size="14.00">Events&lt;WindowFocused&gt;update_system</text>
</a>
</g>
</g>
<!-- node_System(23) -->
<g id="node25" class="node">
<title>node_System(23)</title>
<g id="a_node25"><a xlink:title="bevy_ecs::event::Events&lt;bevy_window::event::WindowScaleFactorChanged&gt;::update_system">
<polygon fill="lightgrey" stroke="black" points="352.5,-1172 43.5,-1172 43.5,-1136 352.5,-1136 352.5,-1172"/>
<text text-anchor="middle" x="198" y="-1150.3" font-family="Times,serif" font-size="14.00">Events&lt;WindowScaleFactorChanged&gt;update_system</text>
</a>
</g>
</g>
<!-- node_System(24) -->
<g id="node26" class="node">
<title>node_System(24)</title>
<g id="a_node26"><a xlink:title="bevy_ecs::event::Events&lt;bevy_window::event::WindowBackendScaleFactorChanged&gt;::update_system">
<polygon fill="lightgrey" stroke="black" points="376,-1219 20,-1219 20,-1183 376,-1183 376,-1219"/>
<text text-anchor="middle" x="198" y="-1197.3" font-family="Times,serif" font-size="14.00">Events&lt;WindowBackendScaleFactorChanged&gt;update_system</text>
</a>
</g>
</g>
<!-- node_System(25) -->
<g id="node27" class="node">
<title>node_System(25)</title>
<g id="a_node27"><a xlink:title="bevy_ecs::event::Events&lt;bevy_window::event::FileDragAndDrop&gt;::update_system">
<polygon fill="lightgrey" stroke="black" points="322.5,-1266 73.5,-1266 73.5,-1230 322.5,-1230 322.5,-1266"/>
<text text-anchor="middle" x="198" y="-1244.3" font-family="Times,serif" font-size="14.00">Events&lt;FileDragAndDrop&gt;update_system</text>
</a>
</g>
</g>
<!-- node_System(26) -->
<g id="node28" class="node">
<title>node_System(26)</title>
<g id="a_node28"><a xlink:title="bevy_ecs::event::Events&lt;bevy_window::event::WindowMoved&gt;::update_system">
<polygon fill="lightgrey" stroke="black" points="315,-1313 81,-1313 81,-1277 315,-1277 315,-1313"/>
<text text-anchor="middle" x="198" y="-1291.3" font-family="Times,serif" font-size="14.00">Events&lt;WindowMoved&gt;update_system</text>
</a>
</g>
</g>
<!-- node_System(27) -->
<g id="node29" class="node">
<title>node_System(27)</title>
<g id="a_node29"><a xlink:title="bevy_ecs::event::Events&lt;bevy_asset::assets::AssetEvent&lt;bevy_scene::dynamic_scene::DynamicScene&gt;&gt;::update_system">
<polygon fill="lightgrey" stroke="black" points="352.5,-1360 43.5,-1360 43.5,-1324 352.5,-1324 352.5,-1360"/>
<text text-anchor="middle" x="198" y="-1338.3" font-family="Times,serif" font-size="14.00">Events&lt;AssetEvent&lt;DynamicScene&gt;&gt;update_system</text>
</a>
</g>
</g>
<!-- node_System(28) -->
<g id="node30" class="node">
<title>node_System(28)</title>
<g id="a_node30"><a xlink:title="bevy_ecs::event::Events&lt;bevy_asset::assets::AssetEvent&lt;bevy_scene::scene::Scene&gt;&gt;::update_system">
<polygon fill="lightgrey" stroke="black" points="327.5,-1407 68.5,-1407 68.5,-1371 327.5,-1371 327.5,-1407"/>
<text text-anchor="middle" x="198" y="-1385.3" font-family="Times,serif" font-size="14.00">Events&lt;AssetEvent&lt;Scene&gt;&gt;update_system</text>
</a>
</g>
</g>
<!-- node_System(29) -->
<g id="node31" class="node">
<title>node_System(29)</title>
<g id="a_node31"><a xlink:title="bevy_ecs::event::Events&lt;accesskit::ActionRequest&gt;::update_system">
<polygon fill="lightgrey" stroke="black" points="313,-1454 83,-1454 83,-1418 313,-1418 313,-1454"/>
<text text-anchor="middle" x="198" y="-1432.3" font-family="Times,serif" font-size="14.00">Events&lt;ActionRequest&gt;update_system</text>
</a>
</g>
</g>
<!-- node_System(30) -->
<g id="node32" class="node">
<title>node_System(30)</title>
<g id="a_node32"><a xlink:title="bevy_ecs::event::Events&lt;bevy_asset::assets::AssetEvent&lt;bevy_render::render_resource::shader::Shader&gt;&gt;::update_system">
<polygon fill="lightgrey" stroke="black" points="330,-1501 66,-1501 66,-1465 330,-1465 330,-1501"/>
<text text-anchor="middle" x="198" y="-1479.3" font-family="Times,serif" font-size="14.00">Events&lt;AssetEvent&lt;Shader&gt;&gt;update_system</text>
</a>
</g>
</g>
<!-- node_System(31) -->
<g id="node33" class="node">
<title>node_System(31)</title>
<g id="a_node33"><a xlink:title="bevy_ecs::event::Events&lt;bevy_asset::assets::AssetEvent&lt;bevy_render::mesh::mesh::Mesh&gt;&gt;::update_system">
<polygon fill="lightgrey" stroke="black" points="326,-1548 70,-1548 70,-1512 326,-1512 326,-1548"/>
<text text-anchor="middle" x="198" y="-1526.3" font-family="Times,serif" font-size="14.00">Events&lt;AssetEvent&lt;Mesh&gt;&gt;update_system</text>
</a>
</g>
</g>
<!-- node_System(32) -->
<g id="node34" class="node">
<title>node_System(32)</title>
<g id="a_node34"><a xlink:title="bevy_ecs::event::Events&lt;bevy_asset::assets::AssetEvent&lt;bevy_render::mesh::mesh::skinning::SkinnedMeshInverseBindposes&gt;&gt;::update_system">
<polygon fill="lightgrey" stroke="black" points="396,-1595 0,-1595 0,-1559 396,-1559 396,-1595"/>
<text text-anchor="middle" x="198" y="-1573.3" font-family="Times,serif" font-size="14.00">Events&lt;AssetEvent&lt;SkinnedMeshInverseBindposes&gt;&gt;update_system</text>
</a>
</g>
</g>
<!-- node_System(33) -->
<g id="node35" class="node">
<title>node_System(33)</title>
<g id="a_node35"><a xlink:title="bevy_ecs::event::Events&lt;bevy_asset::assets::AssetEvent&lt;bevy_render::texture::image::Image&gt;&gt;::update_system">
<polygon fill="lightgrey" stroke="black" points="328,-1642 68,-1642 68,-1606 328,-1606 328,-1642"/>
<text text-anchor="middle" x="198" y="-1620.3" font-family="Times,serif" font-size="14.00">Events&lt;AssetEvent&lt;Image&gt;&gt;update_system</text>
</a>
</g>
</g>
<!-- node_System(34) -->
<g id="node36" class="node">
<title>node_System(34)</title>
<g id="a_node36"><a xlink:title="bevy_ecs::event::Events&lt;bevy_asset::assets::AssetEvent&lt;bevy_sprite::texture_atlas::TextureAtlas&gt;&gt;::update_system">
<polygon fill="lightgrey" stroke="black" points="346.5,-1689 49.5,-1689 49.5,-1653 346.5,-1653 346.5,-1689"/>
<text text-anchor="middle" x="198" y="-1667.3" font-family="Times,serif" font-size="14.00">Events&lt;AssetEvent&lt;TextureAtlas&gt;&gt;update_system</text>
</a>
</g>
</g>
<!-- node_System(35) -->
<g id="node37" class="node">
<title>node_System(35)</title>
<g id="a_node37"><a xlink:title="bevy_ecs::event::Events&lt;bevy_asset::assets::AssetEvent&lt;bevy_sprite::mesh2d::color_material::ColorMaterial&gt;&gt;::update_system">
<polygon fill="lightgrey" stroke="black" points="350,-1736 46,-1736 46,-1700 350,-1700 350,-1736"/>
<text text-anchor="middle" x="198" y="-1714.3" font-family="Times,serif" font-size="14.00">Events&lt;AssetEvent&lt;ColorMaterial&gt;&gt;update_system</text>
</a>
</g>
</g>
<!-- node_System(36) -->
<g id="node38" class="node">
<title>node_System(36)</title>
<g id="a_node38"><a xlink:title="bevy_ecs::event::Events&lt;bevy_asset::assets::AssetEvent&lt;bevy_text::font::Font&gt;&gt;::update_system">
<polygon fill="lightgrey" stroke="black" points="323.5,-1783 72.5,-1783 72.5,-1747 323.5,-1747 323.5,-1783"/>
<text text-anchor="middle" x="198" y="-1761.3" font-family="Times,serif" font-size="14.00">Events&lt;AssetEvent&lt;Font&gt;&gt;update_system</text>
</a>
</g>
</g>
<!-- node_System(37) -->
<g id="node39" class="node">
<title>node_System(37)</title>
<g id="a_node39"><a xlink:title="bevy_ecs::event::Events&lt;bevy_asset::assets::AssetEvent&lt;bevy_text::font_atlas_set::FontAtlasSet&gt;&gt;::update_system">
<polygon fill="lightgrey" stroke="black" points="346.5,-1830 49.5,-1830 49.5,-1794 346.5,-1794 346.5,-1830"/>
<text text-anchor="middle" x="198" y="-1808.3" font-family="Times,serif" font-size="14.00">Events&lt;AssetEvent&lt;FontAtlasSet&gt;&gt;update_system</text>
</a>
</g>
</g>
<!-- node_System(38) -->
<g id="node40" class="node">
<title>node_System(38)</title>
<g id="a_node40"><a xlink:title="bevy_ecs::event::Events&lt;bevy_asset::assets::AssetEvent&lt;bevy_pbr::pbr_material::StandardMaterial&gt;&gt;::update_system">
<polygon fill="lightgrey" stroke="black" points="358,-1877 38,-1877 38,-1841 358,-1841 358,-1877"/>
<text text-anchor="middle" x="198" y="-1855.3" font-family="Times,serif" font-size="14.00">Events&lt;AssetEvent&lt;StandardMaterial&gt;&gt;update_system</text>
</a>
</g>
</g>
<!-- node_System(39) -->
<g id="node41" class="node">
<title>node_System(39)</title>
<g id="a_node41"><a xlink:title="bevy_ecs::event::Events&lt;bevy_asset::assets::AssetEvent&lt;bevy_gltf::Gltf&gt;&gt;::update_system">
<polygon fill="lightgrey" stroke="black" points="322.5,-1924 73.5,-1924 73.5,-1888 322.5,-1888 322.5,-1924"/>
<text text-anchor="middle" x="198" y="-1902.3" font-family="Times,serif" font-size="14.00">Events&lt;AssetEvent&lt;Gltf&gt;&gt;update_system</text>
</a>
</g>
</g>
<!-- node_System(40) -->
<g id="node42" class="node">
<title>node_System(40)</title>
<g id="a_node42"><a xlink:title="bevy_ecs::event::Events&lt;bevy_asset::assets::AssetEvent&lt;bevy_gltf::GltfNode&gt;&gt;::update_system">
<polygon fill="lightgrey" stroke="black" points="337.5,-1971 58.5,-1971 58.5,-1935 337.5,-1935 337.5,-1971"/>
<text text-anchor="middle" x="198" y="-1949.3" font-family="Times,serif" font-size="14.00">Events&lt;AssetEvent&lt;GltfNode&gt;&gt;update_system</text>
</a>
</g>
</g>
<!-- node_System(41) -->
<g id="node43" class="node">
<title>node_System(41)</title>
<g id="a_node43"><a xlink:title="bevy_ecs::event::Events&lt;bevy_asset::assets::AssetEvent&lt;bevy_gltf::GltfPrimitive&gt;&gt;::update_system">
<polygon fill="lightgrey" stroke="black" points="348,-2018 48,-2018 48,-1982 348,-1982 348,-2018"/>
<text text-anchor="middle" x="198" y="-1996.3" font-family="Times,serif" font-size="14.00">Events&lt;AssetEvent&lt;GltfPrimitive&gt;&gt;update_system</text>
</a>
</g>
</g>
<!-- node_System(42) -->
<g id="node44" class="node">
<title>node_System(42)</title>
<g id="a_node44"><a xlink:title="bevy_ecs::event::Events&lt;bevy_asset::assets::AssetEvent&lt;bevy_gltf::GltfMesh&gt;&gt;::update_system">
<polygon fill="lightgrey" stroke="black" points="337,-2065 59,-2065 59,-2029 337,-2029 337,-2065"/>
<text text-anchor="middle" x="198" y="-2043.3" font-family="Times,serif" font-size="14.00">Events&lt;AssetEvent&lt;GltfMesh&gt;&gt;update_system</text>
</a>
</g>
</g>
<!-- node_System(43) -->
<g id="node45" class="node">
<title>node_System(43)</title>
<g id="a_node45"><a xlink:title="bevy_ecs::event::Events&lt;bevy_asset::assets::AssetEvent&lt;bevy_audio::audio_source::AudioSource&gt;&gt;::update_system">
<polygon fill="lightgrey" stroke="black" points="347,-2112 49,-2112 49,-2076 347,-2076 347,-2112"/>
<text text-anchor="middle" x="198" y="-2090.3" font-family="Times,serif" font-size="14.00">Events&lt;AssetEvent&lt;AudioSource&gt;&gt;update_system</text>
</a>
</g>
</g>
<!-- node_System(44) -->
<g id="node46" class="node">
<title>node_System(44)</title>
<g id="a_node46"><a xlink:title="bevy_ecs::event::Events&lt;bevy_asset::assets::AssetEvent&lt;bevy_audio::sinks::AudioSink&gt;&gt;::update_system">
<polygon fill="lightgrey" stroke="black" points="341,-2159 55,-2159 55,-2123 341,-2123 341,-2159"/>
<text text-anchor="middle" x="198" y="-2137.3" font-family="Times,serif" font-size="14.00">Events&lt;AssetEvent&lt;AudioSink&gt;&gt;update_system</text>
</a>
</g>
</g>
<!-- node_System(45) -->
<g id="node47" class="node">
<title>node_System(45)</title>
<g id="a_node47"><a xlink:title="bevy_ecs::event::Events&lt;bevy_asset::assets::AssetEvent&lt;bevy_audio::sinks::SpatialAudioSink&gt;&gt;::update_system">
<polygon fill="lightgrey" stroke="black" points="359.5,-2206 36.5,-2206 36.5,-2170 359.5,-2170 359.5,-2206"/>
<text text-anchor="middle" x="198" y="-2184.3" font-family="Times,serif" font-size="14.00">Events&lt;AssetEvent&lt;SpatialAudioSink&gt;&gt;update_system</text>
</a>
</g>
</g>
<!-- node_System(46) -->
<g id="node48" class="node">
<title>node_System(46)</title>
<g id="a_node48"><a xlink:title="bevy_ecs::event::Events&lt;bevy_asset::assets::AssetEvent&lt;bevy_animation::AnimationClip&gt;&gt;::update_system">
<polygon fill="lightgrey" stroke="black" points="352,-2253 44,-2253 44,-2217 352,-2217 352,-2253"/>
<text text-anchor="middle" x="198" y="-2231.3" font-family="Times,serif" font-size="14.00">Events&lt;AssetEvent&lt;AnimationClip&gt;&gt;update_system</text>
</a>
</g>
</g>
</g>
</svg>
