<?xml version="1.0" encoding="UTF-8" standalone="no"?>
<!DOCTYPE svg PUBLIC "-//W3C//DTD SVG 1.1//EN"
 "http://www.w3.org/Graphics/SVG/1.1/DTD/svg11.dtd">
<!-- Generated by graphviz version 8.0.1 (0)
 -->
<!-- Pages: 1 -->
<svg width="971pt" height="345pt"
 viewBox="0.00 0.00 971.00 345.00" xmlns="http://www.w3.org/2000/svg" xmlns:xlink="http://www.w3.org/1999/xlink">
<g id="graph0" class="graph" transform="scale(1 1) rotate(0) translate(4 341)">
<polygon fill="white" stroke="none" points="-4,4 -4,-341 967,-341 967,4 -4,4"/>
<g id="clust1" class="cluster">
<title>clusternode_Set(1)</title>
<g id="a_clust1"><a xlink:title="InputSystem">
<path fill="#000000" fill-opacity="0.031373" stroke="#000000" stroke-width="2" stroke-opacity="0.250980" d="M285,-102C285,-102 943,-102 943,-102 949,-102 955,-108 955,-114 955,-114 955,-317 955,-317 955,-323 949,-329 943,-329 943,-329 285,-329 285,-329 279,-329 273,-323 273,-317 273,-317 273,-114 273,-114 273,-108 279,-102 285,-102"/>
<text text-anchor="middle" x="614" y="-313.8" font-family="Helvetica,sans-Serif" font-size="14.00">InputSystem</text>
</a>
</g>
</g>
<g id="clust2" class="cluster">
<title>clusternode_Set(11)</title>
<g id="a_clust2"><a xlink:title="Focus">
<path fill="#000000" fill-opacity="0.031373" stroke="#000000" stroke-width="2" stroke-opacity="0.250980" d="M549.5,-8C549.5,-8 658.5,-8 658.5,-8 664.5,-8 670.5,-14 670.5,-20 670.5,-20 670.5,-82 670.5,-82 670.5,-88 664.5,-94 658.5,-94 658.5,-94 549.5,-94 549.5,-94 543.5,-94 537.5,-88 537.5,-82 537.5,-82 537.5,-20 537.5,-20 537.5,-14 543.5,-8 549.5,-8"/>
<text text-anchor="middle" x="604" y="-78.8" font-family="Helvetica,sans-Serif" font-size="14.00">Focus</text>
</a>
</g>
</g>
<!-- set_marker_node_Set(1) -->
<!-- node_System(9) -->
<g id="node10" class="node">
<title>node_System(9)</title>
<g id="a_node10"><a xlink:title="bevy_ui::focus::ui_focus_system">
<polygon fill="#ffb1e5" stroke="#ff4bc2" points="662.5,-52 545.5,-52 545.5,-16 662.5,-16 662.5,-52"/>
<text text-anchor="middle" x="604" y="-30.3" font-family="Helvetica,sans-Serif" font-size="14.00" fill="#320021">ui_focus_system</text>
</a>
</g>
</g>
<!-- set_marker_node_Set(1)&#45;&gt;node_System(9) -->
<g id="edge6" class="edge">
<title>set_marker_node_Set(1)&#45;&gt;node_System(9)</title>
<g id="a_edge6"><a xlink:title="InputSystem → ui_focus_system">
<path fill="none" stroke="#0090cc" stroke-width="2" d="M488.94,-102C489.24,-86.5 490.22,-70.81 506,-57 513.65,-50.31 522.89,-45.48 532.59,-42"/>
<polygon fill="#0090cc" stroke="#0090cc" stroke-width="2" points="534.46,-44.5 543.04,-38.29 532.46,-37.79 534.46,-44.5"/>
</a>
</g>
</g>
<!-- node_System(0) -->
<g id="node2" class="node">
<title>node_System(0)</title>
<g id="a_node2"><a xlink:title="bevy_input::keyboard::keyboard_input_system">
<polygon fill="#d36aaf" stroke="#a5317d" points="455.5,-251 295.5,-251 295.5,-215 455.5,-215 455.5,-251"/>
<text text-anchor="middle" x="375.5" y="-229.3" font-family="Helvetica,sans-Serif" font-size="14.00" fill="#270b1d">keyboard_input_system</text>
</a>
</g>
</g>
<!-- node_System(1) -->
<g id="node3" class="node">
<title>node_System(1)</title>
<g id="a_node3"><a xlink:title="bevy_input::mouse::mouse_button_input_system">
<polygon fill="#d36aaf" stroke="#a5317d" points="470,-204 281,-204 281,-168 470,-168 470,-204"/>
<text text-anchor="middle" x="375.5" y="-182.3" font-family="Helvetica,sans-Serif" font-size="14.00" fill="#270b1d">mouse_button_input_system</text>
</a>
</g>
</g>
<!-- node_System(2) -->
<g id="node4" class="node">
<title>node_System(2)</title>
<g id="a_node4"><a xlink:title="bevy_input::gamepad::gamepad_event_system">
<polygon fill="#d36aaf" stroke="#a5317d" points="457.5,-298 293.5,-298 293.5,-262 457.5,-262 457.5,-298"/>
<text text-anchor="middle" x="375.5" y="-276.3" font-family="Helvetica,sans-Serif" font-size="14.00" fill="#270b1d">gamepad_event_system</text>
</a>
</g>
</g>
<!-- node_System(3) -->
<g id="node5" class="node">
<title>node_System(3)</title>
<g id="a_node5"><a xlink:title="bevy_input::gamepad::gamepad_connection_system">
<polygon fill="#d36aaf" stroke="#a5317d" points="702,-281 506,-281 506,-245 702,-245 702,-281"/>
<text text-anchor="middle" x="604" y="-259.3" font-family="Helvetica,sans-Serif" font-size="14.00" fill="#270b1d">gamepad_connection_system</text>
</a>
</g>
</g>
<!-- node_System(2)&#45;&gt;node_System(3) -->
<g id="edge1" class="edge">
<title>node_System(2)&#45;&gt;node_System(3)</title>
<g id="a_edge1"><a xlink:title="SystemTypeSet(gamepad_event_system&quot;) → gamepad_connection_system">
<path fill="none" stroke="#eede00" stroke-width="2" d="M457.95,-273.89C469.31,-273.03 481.14,-272.15 492.92,-271.26"/>
<polygon fill="#eede00" stroke="#eede00" stroke-width="2" points="492.96,-274.54 502.67,-270.31 492.43,-267.56 492.96,-274.54"/>
</a>
</g>
</g>
<!-- node_System(4) -->
<g id="node6" class="node">
<title>node_System(4)</title>
<g id="a_node6"><a xlink:title="bevy_input::gamepad::gamepad_button_event_system">
<polygon fill="#d36aaf" stroke="#a5317d" points="947,-251 738,-251 738,-215 947,-215 947,-251"/>
<text text-anchor="middle" x="842.5" y="-229.3" font-family="Helvetica,sans-Serif" font-size="14.00" fill="#270b1d">gamepad_button_event_system</text>
</a>
</g>
</g>
<!-- node_System(2)&#45;&gt;node_System(4) -->
<g id="edge2" class="edge">
<title>node_System(2)&#45;&gt;node_System(4)</title>
<g id="a_edge2"><a xlink:title="SystemTypeSet(gamepad_event_system&quot;) → gamepad_button_event_system">
<path fill="none" stroke="#881877" stroke-width="2" d="M455.9,-261.64C460.7,-260.17 465.43,-258.62 470,-257 486.67,-251.08 488.78,-244.05 506,-240 577.38,-223.21 659.66,-221.24 724.88,-223.57"/>
<polygon fill="#881877" stroke="#881877" stroke-width="2" points="724.55,-227.18 734.69,-224.09 724.84,-220.19 724.55,-227.18"/>
</a>
</g>
</g>
<!-- node_System(5) -->
<g id="node7" class="node">
<title>node_System(5)</title>
<g id="a_node7"><a xlink:title="bevy_input::gamepad::gamepad_axis_event_system">
<polygon fill="#d36aaf" stroke="#a5317d" points="940,-298 745,-298 745,-262 940,-262 940,-298"/>
<text text-anchor="middle" x="842.5" y="-276.3" font-family="Helvetica,sans-Serif" font-size="14.00" fill="#270b1d">gamepad_axis_event_system</text>
</a>
</g>
</g>
<!-- node_System(2)&#45;&gt;node_System(5) -->
<g id="edge4" class="edge">
<title>node_System(2)&#45;&gt;node_System(5)</title>
<g id="a_edge4"><a xlink:title="SystemTypeSet(gamepad_event_system&quot;) → gamepad_axis_event_system">
<path fill="none" stroke="#aa3a55" stroke-width="2" d="M457.99,-285.08C473.9,-285.88 490.47,-286.58 506,-287 593.08,-289.35 614.92,-289.18 702,-287 711.72,-286.76 721.81,-286.42 731.92,-286.02"/>
<polygon fill="#aa3a55" stroke="#aa3a55" stroke-width="2" points="731.87,-289.4 741.72,-285.49 731.58,-282.41 731.87,-289.4"/>
</a>
</g>
</g>
<!-- node_System(3)&#45;&gt;node_System(4) -->
<g id="edge3" class="edge">
<title>node_System(3)&#45;&gt;node_System(4)</title>
<g id="a_edge3"><a xlink:title="SystemTypeSet(gamepad_connection_system&quot;) → gamepad_button_event_system">
<path fill="none" stroke="#00b0cc" stroke-width="2" d="M702.22,-250.67C709.73,-249.72 717.35,-248.75 724.97,-247.78"/>
<polygon fill="#00b0cc" stroke="#00b0cc" stroke-width="2" points="725.27,-250.89 734.75,-246.16 724.39,-243.95 725.27,-250.89"/>
</a>
</g>
</g>
<!-- node_System(3)&#45;&gt;node_System(5) -->
<g id="edge5" class="edge">
<title>node_System(3)&#45;&gt;node_System(5)</title>
<g id="a_edge5"><a xlink:title="SystemTypeSet(gamepad_connection_system&quot;) → gamepad_axis_event_system">
<path fill="none" stroke="#44d488" stroke-width="2" d="M702.22,-269.99C711.96,-270.69 721.9,-271.4 731.76,-272.11"/>
<polygon fill="#44d488" stroke="#44d488" stroke-width="2" points="731.43,-275.81 741.66,-273.04 731.94,-268.83 731.43,-275.81"/>
</a>
</g>
</g>
<!-- node_System(6) -->
<g id="node8" class="node">
<title>node_System(6)</title>
<g id="a_node8"><a xlink:title="bevy_input::touch::touch_screen_input_system">
<polygon fill="#d36aaf" stroke="#a5317d" points="468,-146 283,-146 283,-110 468,-110 468,-146"/>
<text text-anchor="middle" x="375.5" y="-124.3" font-family="Helvetica,sans-Serif" font-size="14.00" fill="#270b1d">touch_screen_input_system</text>
</a>
</g>
</g>
<!-- set_marker_node_Set(11) -->
<!-- node_System(7) -->
<g id="node11" class="node">
<title>node_System(7)</title>
<g id="a_node11"><a xlink:title="bevy_asset::asset_server::free_unused_assets_system">
<polygon fill="lightgrey" stroke="black" points="205,-222 40,-222 40,-186 205,-186 205,-222"/>
<text text-anchor="middle" x="122.5" y="-200.3" font-family="Times,serif" font-size="14.00">free_unused_assets_system</text>
</a>
</g>
</g>
<!-- node_System(8) -->
<g id="node12" class="node">
<title>node_System(8)</title>
<g id="a_node12"><a xlink:title="bevy_scene::bundle::scene_spawner">
<polygon fill="lightgrey" stroke="black" points="171.5,-269 73.5,-269 73.5,-233 171.5,-233 171.5,-269"/>
<text text-anchor="middle" x="122.5" y="-247.3" font-family="Times,serif" font-size="14.00">scene_spawner</text>
</a>
</g>
</g>
<!-- node_System(10) -->
<g id="node13" class="node">
<title>node_System(10)</title>
<g id="a_node13"><a xlink:title="bevy_pbr::prepass::update_mesh_previous_global_transforms">
<polygon fill="lightgrey" stroke="black" points="245,-316 0,-316 0,-280 245,-280 245,-316"/>
<text text-anchor="middle" x="122.5" y="-294.3" font-family="Times,serif" font-size="14.00">update_mesh_previous_global_transforms</text>
</a>
</g>
</g>
<!-- node_System(11) -->
<g id="node14" class="node">
<title>node_System(11)</title>
<g id="a_node14"><a xlink:title="bevy_gilrs::gilrs_system::gilrs_event_system">
<polygon fill="lightgrey" stroke="black" points="182.5,-175 62.5,-175 62.5,-139 182.5,-139 182.5,-175"/>
<text text-anchor="middle" x="122.5" y="-153.3" font-family="Times,serif" font-size="14.00">gilrs_event_system</text>
</a>
</g>
</g>
<!-- node_System(11)&#45;&gt;set_marker_node_Set(1) -->
<g id="edge7" class="edge">
<title>node_System(11)&#45;&gt;set_marker_node_Set(1)</title>
<g id="a_edge7"><a xlink:title="gilrs_event_system → InputSystem">
<path fill="none" stroke="#ee9e44" stroke-width="2" d="M182.98,-157C206.1,-157 233.38,-157 260.01,-157"/>
<polygon fill="#ee9e44" stroke="#ee9e44" stroke-width="2" points="260,-160.5 270,-157 260,-153.5 260,-160.5"/>
</a>
</g>
</g>
</g>
</svg>
