<?xml version="1.0" encoding="UTF-8" standalone="no"?>
<!DOCTYPE svg PUBLIC "-//W3C//DTD SVG 1.1//EN"
 "http://www.w3.org/Graphics/SVG/1.1/DTD/svg11.dtd">
<!-- Generated by graphviz version 8.0.1 (0)
 -->
<!-- Pages: 1 -->
<svg width="370pt" height="937pt"
 viewBox="0.00 0.00 370.00 937.00" xmlns="http://www.w3.org/2000/svg" xmlns:xlink="http://www.w3.org/1999/xlink">
<g id="graph0" class="graph" transform="scale(1 1) rotate(0) translate(4 933)">
<polygon fill="white" stroke="none" points="-4,4 -4,-933 366,-933 366,4 -4,4"/>
<!-- node_System(0) -->
<g id="node1" class="node">
<title>node_System(0)</title>
<g id="a_node1"><a xlink:title="bevy_asset::io::file_asset_io::filesystem_watcher_system">
<polygon fill="lightgrey" stroke="black" points="263,-36 99,-36 99,0 263,0 263,-36"/>
<text text-anchor="middle" x="181" y="-14.3" font-family="Times,serif" font-size="14.00">filesystem_watcher_system</text>
</a>
</g>
</g>
<!-- node_System(1) -->
<g id="node2" class="node">
<title>node_System(1)</title>
<g id="a_node2"><a xlink:title="bevy_asset::loader::update_asset_storage_system&lt;bevy_scene::dynamic_scene::DynamicScene&gt;">
<polygon fill="lightgrey" stroke="black" points="318.5,-83 43.5,-83 43.5,-47 318.5,-47 318.5,-83"/>
<text text-anchor="middle" x="181" y="-61.3" font-family="Times,serif" font-size="14.00">update_asset_storage_system&lt;DynamicScene&gt;</text>
</a>
</g>
</g>
<!-- node_System(2) -->
<g id="node3" class="node">
<title>node_System(2)</title>
<g id="a_node3"><a xlink:title="bevy_asset::loader::update_asset_storage_system&lt;bevy_scene::scene::Scene&gt;">
<polygon fill="lightgrey" stroke="black" points="293,-130 69,-130 69,-94 293,-94 293,-130"/>
<text text-anchor="middle" x="181" y="-108.3" font-family="Times,serif" font-size="14.00">update_asset_storage_system&lt;Scene&gt;</text>
</a>
</g>
</g>
<!-- node_System(3) -->
<g id="node4" class="node">
<title>node_System(3)</title>
<g id="a_node4"><a xlink:title="bevy_asset::loader::update_asset_storage_system&lt;bevy_render::render_resource::shader::Shader&gt;">
<polygon fill="lightgrey" stroke="black" points="296,-177 66,-177 66,-141 296,-141 296,-177"/>
<text text-anchor="middle" x="181" y="-155.3" font-family="Times,serif" font-size="14.00">update_asset_storage_system&lt;Shader&gt;</text>
</a>
</g>
</g>
<!-- node_System(4) -->
<g id="node5" class="node">
<title>node_System(4)</title>
<g id="a_node5"><a xlink:title="bevy_asset::loader::update_asset_storage_system&lt;bevy_render::mesh::mesh::Mesh&gt;">
<polygon fill="lightgrey" stroke="black" points="291.5,-224 70.5,-224 70.5,-188 291.5,-188 291.5,-224"/>
<text text-anchor="middle" x="181" y="-202.3" font-family="Times,serif" font-size="14.00">update_asset_storage_system&lt;Mesh&gt;</text>
</a>
</g>
</g>
<!-- node_System(5) -->
<g id="node6" class="node">
<title>node_System(5)</title>
<g id="a_node6"><a xlink:title="bevy_asset::loader::update_asset_storage_system&lt;bevy_render::mesh::mesh::skinning::SkinnedMeshInverseBindposes&gt;">
<polygon fill="lightgrey" stroke="black" points="362,-271 0,-271 0,-235 362,-235 362,-271"/>
<text text-anchor="middle" x="181" y="-249.3" font-family="Times,serif" font-size="14.00">update_asset_storage_system&lt;SkinnedMeshInverseBindposes&gt;</text>
</a>
</g>
</g>
<!-- node_System(6) -->
<g id="node7" class="node">
<title>node_System(6)</title>
<g id="a_node7"><a xlink:title="bevy_asset::loader::update_asset_storage_system&lt;bevy_render::texture::image::Image&gt;">
<polygon fill="lightgrey" stroke="black" points="294,-318 68,-318 68,-282 294,-282 294,-318"/>
<text text-anchor="middle" x="181" y="-296.3" font-family="Times,serif" font-size="14.00">update_asset_storage_system&lt;Image&gt;</text>
</a>
</g>
</g>
<!-- node_System(7) -->
<g id="node8" class="node">
<title>node_System(7)</title>
<g id="a_node8"><a xlink:title="bevy_asset::loader::update_asset_storage_system&lt;bevy_sprite::texture_atlas::TextureAtlas&gt;">
<polygon fill="lightgrey" stroke="black" points="312.5,-365 49.5,-365 49.5,-329 312.5,-329 312.5,-365"/>
<text text-anchor="middle" x="181" y="-343.3" font-family="Times,serif" font-size="14.00">update_asset_storage_system&lt;TextureAtlas&gt;</text>
</a>
</g>
</g>
<!-- node_System(8) -->
<g id="node9" class="node">
<title>node_System(8)</title>
<g id="a_node9"><a xlink:title="bevy_asset::loader::update_asset_storage_system&lt;bevy_sprite::mesh2d::color_material::ColorMaterial&gt;">
<polygon fill="lightgrey" stroke="black" points="315.5,-412 46.5,-412 46.5,-376 315.5,-376 315.5,-412"/>
<text text-anchor="middle" x="181" y="-390.3" font-family="Times,serif" font-size="14.00">update_asset_storage_system&lt;ColorMaterial&gt;</text>
</a>
</g>
</g>
<!-- node_System(9) -->
<g id="node10" class="node">
<title>node_System(9)</title>
<g id="a_node10"><a xlink:title="bevy_asset::loader::update_asset_storage_system&lt;bevy_text::font::Font&gt;">
<polygon fill="lightgrey" stroke="black" points="289.5,-459 72.5,-459 72.5,-423 289.5,-423 289.5,-459"/>
<text text-anchor="middle" x="181" y="-437.3" font-family="Times,serif" font-size="14.00">update_asset_storage_system&lt;Font&gt;</text>
</a>
</g>
</g>
<!-- node_System(10) -->
<g id="node11" class="node">
<title>node_System(10)</title>
<g id="a_node11"><a xlink:title="bevy_asset::loader::update_asset_storage_system&lt;bevy_text::font_atlas_set::FontAtlasSet&gt;">
<polygon fill="lightgrey" stroke="black" points="312.5,-506 49.5,-506 49.5,-470 312.5,-470 312.5,-506"/>
<text text-anchor="middle" x="181" y="-484.3" font-family="Times,serif" font-size="14.00">update_asset_storage_system&lt;FontAtlasSet&gt;</text>
</a>
</g>
</g>
<!-- node_System(11) -->
<g id="node12" class="node">
<title>node_System(11)</title>
<g id="a_node12"><a xlink:title="bevy_asset::loader::update_asset_storage_system&lt;bevy_pbr::pbr_material::StandardMaterial&gt;">
<polygon fill="lightgrey" stroke="black" points="324,-553 38,-553 38,-517 324,-517 324,-553"/>
<text text-anchor="middle" x="181" y="-531.3" font-family="Times,serif" font-size="14.00">update_asset_storage_system&lt;StandardMaterial&gt;</text>
</a>
</g>
</g>
<!-- node_System(12) -->
<g id="node13" class="node">
<title>node_System(12)</title>
<g id="a_node13"><a xlink:title="bevy_asset::loader::update_asset_storage_system&lt;bevy_gltf::Gltf&gt;">
<polygon fill="lightgrey" stroke="black" points="288.5,-600 73.5,-600 73.5,-564 288.5,-564 288.5,-600"/>
<text text-anchor="middle" x="181" y="-578.3" font-family="Times,serif" font-size="14.00">update_asset_storage_system&lt;Gltf&gt;</text>
</a>
</g>
</g>
<!-- node_System(13) -->
<g id="node14" class="node">
<title>node_System(13)</title>
<g id="a_node14"><a xlink:title="bevy_asset::loader::update_asset_storage_system&lt;bevy_gltf::GltfNode&gt;">
<polygon fill="lightgrey" stroke="black" points="303.5,-647 58.5,-647 58.5,-611 303.5,-611 303.5,-647"/>
<text text-anchor="middle" x="181" y="-625.3" font-family="Times,serif" font-size="14.00">update_asset_storage_system&lt;GltfNode&gt;</text>
</a>
</g>
</g>
<!-- node_System(14) -->
<g id="node15" class="node">
<title>node_System(14)</title>
<g id="a_node15"><a xlink:title="bevy_asset::loader::update_asset_storage_system&lt;bevy_gltf::GltfPrimitive&gt;">
<polygon fill="lightgrey" stroke="black" points="314,-694 48,-694 48,-658 314,-658 314,-694"/>
<text text-anchor="middle" x="181" y="-672.3" font-family="Times,serif" font-size="14.00">update_asset_storage_system&lt;GltfPrimitive&gt;</text>
</a>
</g>
</g>
<!-- node_System(15) -->
<g id="node16" class="node">
<title>node_System(15)</title>
<g id="a_node16"><a xlink:title="bevy_asset::loader::update_asset_storage_system&lt;bevy_gltf::GltfMesh&gt;">
<polygon fill="lightgrey" stroke="black" points="303,-741 59,-741 59,-705 303,-705 303,-741"/>
<text text-anchor="middle" x="181" y="-719.3" font-family="Times,serif" font-size="14.00">update_asset_storage_system&lt;GltfMesh&gt;</text>
</a>
</g>
</g>
<!-- node_System(16) -->
<g id="node17" class="node">
<title>node_System(16)</title>
<g id="a_node17"><a xlink:title="bevy_asset::loader::update_asset_storage_system&lt;bevy_audio::audio_source::AudioSource&gt;">
<polygon fill="lightgrey" stroke="black" points="312.5,-788 49.5,-788 49.5,-752 312.5,-752 312.5,-788"/>
<text text-anchor="middle" x="181" y="-766.3" font-family="Times,serif" font-size="14.00">update_asset_storage_system&lt;AudioSource&gt;</text>
</a>
</g>
</g>
<!-- node_System(17) -->
<g id="node18" class="node">
<title>node_System(17)</title>
<g id="a_node18"><a xlink:title="bevy_asset::loader::update_asset_storage_system&lt;bevy_audio::sinks::AudioSink&gt;">
<polygon fill="lightgrey" stroke="black" points="306.5,-835 55.5,-835 55.5,-799 306.5,-799 306.5,-835"/>
<text text-anchor="middle" x="181" y="-813.3" font-family="Times,serif" font-size="14.00">update_asset_storage_system&lt;AudioSink&gt;</text>
</a>
</g>
</g>
<!-- node_System(18) -->
<g id="node19" class="node">
<title>node_System(18)</title>
<g id="a_node19"><a xlink:title="bevy_asset::loader::update_asset_storage_system&lt;bevy_audio::sinks::SpatialAudioSink&gt;">
<polygon fill="lightgrey" stroke="black" points="325.5,-882 36.5,-882 36.5,-846 325.5,-846 325.5,-882"/>
<text text-anchor="middle" x="181" y="-860.3" font-family="Times,serif" font-size="14.00">update_asset_storage_system&lt;SpatialAudioSink&gt;</text>
</a>
</g>
</g>
<!-- node_System(19) -->
<g id="node20" class="node">
<title>node_System(19)</title>
<g id="a_node20"><a xlink:title="bevy_asset::loader::update_asset_storage_system&lt;bevy_animation::AnimationClip&gt;">
<polygon fill="lightgrey" stroke="black" points="318,-929 44,-929 44,-893 318,-893 318,-929"/>
<text text-anchor="middle" x="181" y="-907.3" font-family="Times,serif" font-size="14.00">update_asset_storage_system&lt;AnimationClip&gt;</text>
</a>
</g>
</g>
</g>
</svg>
