<?xml version="1.0" encoding="UTF-8" standalone="no"?>
<!DOCTYPE svg PUBLIC "-//W3C//DTD SVG 1.1//EN"
 "http://www.w3.org/Graphics/SVG/1.1/DTD/svg11.dtd">
<!-- Generated by graphviz version 8.0.1 (0)
 -->
<!-- Pages: 1 -->
<svg width="555pt" height="279pt"
 viewBox="0.00 0.00 555.00 279.00" xmlns="http://www.w3.org/2000/svg" xmlns:xlink="http://www.w3.org/1999/xlink">
<g id="graph0" class="graph" transform="scale(1 1) rotate(0) translate(4 275)">
<polygon fill="white" stroke="none" points="-4,4 -4,-275 551,-275 551,4 -4,4"/>
<!-- node_System(0) -->
<g id="node1" class="node">
<title>node_System(0)</title>
<g id="a_node1"><a xlink:title="bevy_core::tick_global_task_pools">
<polygon fill="lightgrey" stroke="black" points="270.5,-36 127.5,-36 127.5,0 270.5,0 270.5,-36"/>
<text text-anchor="middle" x="199" y="-14.3" font-family="Times,serif" font-size="14.00">tick_global_task_pools</text>
</a>
</g>
</g>
<!-- node_System(1) -->
<g id="node2" class="node">
<title>node_System(1)</title>
<g id="a_node2"><a xlink:title="bevy_core::update_frame_count">
<polygon fill="lightgrey" stroke="black" points="263,-83 135,-83 135,-47 263,-47 263,-83"/>
<text text-anchor="middle" x="199" y="-61.3" font-family="Times,serif" font-size="14.00">update_frame_count</text>
</a>
</g>
</g>
<!-- node_System(2) -->
<g id="node3" class="node">
<title>node_System(2)</title>
<g id="a_node3"><a xlink:title="bevy_hierarchy::valid_parent_check_plugin::check_hierarchy_component_has_valid_parent&lt;bevy_transform::components::global_transform::GlobalTransform&gt;">
<polygon fill="lightgrey" stroke="black" points="390.5,-130 7.5,-130 7.5,-94 390.5,-94 390.5,-130"/>
<text text-anchor="middle" x="199" y="-108.3" font-family="Times,serif" font-size="14.00">check_hierarchy_component_has_valid_parent&lt;GlobalTransform&gt;</text>
</a>
</g>
</g>
<!-- node_System(3) -->
<g id="node4" class="node">
<title>node_System(3)</title>
<g id="a_node4"><a xlink:title="bevy_winit::system::changed_window">
<polygon fill="lightgrey" stroke="black" points="255,-177 143,-177 143,-141 255,-141 255,-177"/>
<text text-anchor="middle" x="199" y="-155.3" font-family="Times,serif" font-size="14.00">changed_window</text>
</a>
</g>
</g>
<!-- node_System(4) -->
<g id="node5" class="node">
<title>node_System(4)</title>
<g id="a_node5"><a xlink:title="bevy_winit::system::despawn_window">
<polygon fill="lightgrey" stroke="black" points="547,-177 434,-177 434,-141 547,-141 547,-177"/>
<text text-anchor="middle" x="490.5" y="-155.3" font-family="Times,serif" font-size="14.00">despawn_window</text>
</a>
</g>
</g>
<!-- node_System(3)&#45;&gt;node_System(4) -->
<g id="edge1" class="edge">
<title>node_System(3)&#45;&gt;node_System(4)</title>
<g id="a_edge1"><a xlink:title="SystemTypeSet(changed_window&quot;) → despawn_window">
<path fill="none" stroke="#eede00" stroke-width="2" d="M255.48,-159C302.6,-159 370.43,-159 420.95,-159"/>
<polygon fill="#eede00" stroke="#eede00" stroke-width="2" points="420.72,-162.5 430.72,-159 420.72,-155.5 420.72,-162.5"/>
</a>
</g>
</g>
<!-- node_System(5) -->
<g id="node6" class="node">
<title>node_System(5)</title>
<g id="a_node6"><a xlink:title="bevy_hierarchy::valid_parent_check_plugin::check_hierarchy_component_has_valid_parent&lt;bevy_render::view::visibility::ComputedVisibility&gt;">
<polygon fill="lightgrey" stroke="black" points="398,-224 0,-224 0,-188 398,-188 398,-224"/>
<text text-anchor="middle" x="199" y="-202.3" font-family="Times,serif" font-size="14.00">check_hierarchy_component_has_valid_parent&lt;ComputedVisibility&gt;</text>
</a>
</g>
</g>
<!-- node_System(6) -->
<g id="node7" class="node">
<title>node_System(6)</title>
<g id="a_node7"><a xlink:title="bevy_gizmos::update_gizmo_meshes">
<polygon fill="lightgrey" stroke="black" points="268.5,-271 129.5,-271 129.5,-235 268.5,-235 268.5,-271"/>
<text text-anchor="middle" x="199" y="-249.3" font-family="Times,serif" font-size="14.00">update_gizmo_meshes</text>
</a>
</g>
</g>
</g>
</svg>
